<svg xmlns="http://www.w3.org/2000/svg" viewBox="0 0 623.78 423.27"><g id="freepik--background-complete--inject-114"><rect x="1.94" y="265.37" width="619.9" height="30.93" style="fill:#ebebeb"></rect><rect x="444.08" y="18.97" width="177.76" height="198.32" style="fill:#dbdbdb"></rect><rect x="455.79" y="30.68" width="154.34" height="175.01" style="fill:#ebebeb"></rect><rect x="469.74" y="61.63" width="54.4" height="64.46" style="fill:#fff"></rect><path d="M562,101a2,2,0,1,1-2-2A2,2,0,0,1,562,101Z" transform="translate(-63.11 -34.93)" style="fill:#455a64"></path><path d="M543.2,109.48c5.51-.43,11-.46,16.51-.52s11,.09,16.5.52c-5.5.42-11,.45-16.5.51S548.71,109.9,543.2,109.48Z" transform="translate(-63.11 -34.93)" style="fill:#ebebeb"></path><path d="M543.2,114.57a79.23,79.23,0,0,1,17.95,0,79.23,79.23,0,0,1-17.95,0Z" transform="translate(-63.11 -34.93)" style="fill:#ebebeb"></path><path d="M543.2,119.66c3.83-.39,7.65-.49,11.47-.51s7.64.11,11.46.51a112.67,112.67,0,0,1-11.46.52C550.85,120.16,547,120.06,543.2,119.66Z" transform="translate(-63.11 -34.93)" style="fill:#ebebeb"></path><path d="M543.2,124.76c4.79-.4,9.57-.49,14.35-.51s9.56.11,14.34.51c-4.78.4-9.56.49-14.34.51S548,125.16,543.2,124.76Z" transform="translate(-63.11 -34.93)" style="fill:#ebebeb"></path><path d="M543.2,129.85c4.16-.4,8.31-.49,12.46-.51s8.31.11,12.46.51c-4.15.41-8.3.5-12.46.52S547.36,130.25,543.2,129.85Z" transform="translate(-63.11 -34.93)" style="fill:#ebebeb"></path><path d="M543.2,135c5.32-.43,10.64-.45,15.95-.51s10.63.08,16,.51c-5.32.42-10.63.45-16,.51S548.52,135.37,543.2,135Z" transform="translate(-63.11 -34.93)" style="fill:#ebebeb"></path><path d="M543.2,140a104.26,104.26,0,0,1,20.6,0,91,91,0,0,1-10.3.51A93.6,93.6,0,0,1,543.2,140Z" transform="translate(-63.11 -34.93)" style="fill:#ebebeb"></path><path d="M543.2,145.14c5.51-.43,11-.45,16.51-.51s11,.08,16.5.51c-5.5.42-11,.45-16.5.51S548.71,145.56,543.2,145.14Z" transform="translate(-63.11 -34.93)" style="fill:#ebebeb"></path><path d="M543.2,150.23c5.51-.42,11-.45,16.51-.51s11,.09,16.5.51c-5.5.43-11,.45-16.5.51S548.71,150.65,543.2,150.23Z" transform="translate(-63.11 -34.93)" style="fill:#ebebeb"></path><rect x="532.43" y="101.82" width="64.37" height="76.28" style="fill:#fff"></rect><path d="M629.68,147.05a2,2,0,1,1-2-2A2,2,0,0,1,629.68,147.05Z" transform="translate(-63.11 -34.93)" style="fill:#455a64"></path><path d="M604.54,155.79a45.13,45.13,0,0,1,7.14-.51,44,44,0,0,1,7.14.51,50.24,50.24,0,0,1-14.28,0Z" transform="translate(-63.11 -34.93)" style="fill:#ebebeb"></path><path d="M604.54,161.54a75.47,75.47,0,0,1,9.25-.51,73.38,73.38,0,0,1,9.24.51,84,84,0,0,1-18.49,0Z" transform="translate(-63.11 -34.93)" style="fill:#ebebeb"></path><path d="M604.54,167.29a72.18,72.18,0,0,1,17.13,0,72.18,72.18,0,0,1-17.13,0Z" transform="translate(-63.11 -34.93)" style="fill:#ebebeb"></path><path d="M604.54,173a72.18,72.18,0,0,1,17.13,0,72.18,72.18,0,0,1-17.13,0Z" transform="translate(-63.11 -34.93)" style="fill:#ebebeb"></path><path d="M604.54,178.79a54.52,54.52,0,0,1,14.88,0,47.72,47.72,0,0,1-7.44.51A49,49,0,0,1,604.54,178.79Z" transform="translate(-63.11 -34.93)" style="fill:#ebebeb"></path><path d="M604.54,184.54a82.19,82.19,0,0,1,9.52-.51,80.08,80.08,0,0,1,9.53.51,80.09,80.09,0,0,1-9.53.52A82.2,82.2,0,0,1,604.54,184.54Z" transform="translate(-63.11 -34.93)" style="fill:#ebebeb"></path><path d="M604.54,190.3a54.62,54.62,0,0,1,7.86-.52,53.22,53.22,0,0,1,7.86.52,54.61,54.61,0,0,1-7.86.51A56.08,56.08,0,0,1,604.54,190.3Z" transform="translate(-63.11 -34.93)" style="fill:#ebebeb"></path><path d="M604.54,196.05a88,88,0,0,1,9.86-.52,85.65,85.65,0,0,1,9.85.52,85.64,85.64,0,0,1-9.85.51A88,88,0,0,1,604.54,196.05Z" transform="translate(-63.11 -34.93)" style="fill:#ebebeb"></path><path d="M604.54,201.8a85.69,85.69,0,0,1,9.86-.51,83.44,83.44,0,0,1,9.85.51,95.47,95.47,0,0,1-19.71,0Z" transform="translate(-63.11 -34.93)" style="fill:#ebebeb"></path><path d="M632.67,155.79a77.26,77.26,0,0,1,9.36-.51,75.13,75.13,0,0,1,9.35.51,86.06,86.06,0,0,1-18.71,0Z" transform="translate(-63.11 -34.93)" style="fill:#ebebeb"></path><path d="M632.67,161.54a33.59,33.59,0,0,1,6.15-.51,32.73,32.73,0,0,1,6.15.51,37.34,37.34,0,0,1-12.3,0Z" transform="translate(-63.11 -34.93)" style="fill:#ebebeb"></path><path d="M632.67,167.29a76.18,76.18,0,0,1,17.6,0,76.18,76.18,0,0,1-17.6,0Z" transform="translate(-63.11 -34.93)" style="fill:#ebebeb"></path><path d="M632.67,173a72.18,72.18,0,0,1,17.13,0,72.18,72.18,0,0,1-17.13,0Z" transform="translate(-63.11 -34.93)" style="fill:#ebebeb"></path><path d="M632.67,178.79a86.06,86.06,0,0,1,18.71,0,75.13,75.13,0,0,1-9.35.51A77.26,77.26,0,0,1,632.67,178.79Z" transform="translate(-63.11 -34.93)" style="fill:#ebebeb"></path><path d="M632.67,184.54a50.29,50.29,0,0,1,7.44-.51,49,49,0,0,1,7.44.51,49,49,0,0,1-7.44.52A50.3,50.3,0,0,1,632.67,184.54Z" transform="translate(-63.11 -34.93)" style="fill:#ebebeb"></path><path d="M632.67,190.3a68.46,68.46,0,0,1,8.8-.52,66.51,66.51,0,0,1,8.8.52,68.24,68.24,0,0,1-8.8.51A70.3,70.3,0,0,1,632.67,190.3Z" transform="translate(-63.11 -34.93)" style="fill:#ebebeb"></path><path d="M632.67,196.05a42.21,42.21,0,0,1,6.81-.52,41.11,41.11,0,0,1,6.81.52,41.09,41.09,0,0,1-6.81.51A42.2,42.2,0,0,1,632.67,196.05Z" transform="translate(-63.11 -34.93)" style="fill:#ebebeb"></path><path d="M632.67,201.8a37.89,37.89,0,0,1,6.53-.51,36.78,36.78,0,0,1,6.53.51,42.06,42.06,0,0,1-13.06,0Z" transform="translate(-63.11 -34.93)" style="fill:#ebebeb"></path><rect x="519.14" y="43.91" width="32.73" height="32.73" style="fill:#c7c7c7"></rect><path d="M600.57,82.16a2,2,0,1,1-2-2A2,2,0,0,1,600.57,82.16Z" transform="translate(-63.11 -34.93)" style="fill:#455a64"></path><rect x="605.57" y="30.68" width="4.42" height="175.2" style="fill:#c7c7c7"></rect><rect x="1.94" y="134.93" width="178.68" height="8.85" style="fill:#ebebeb"></rect><rect x="13.26" y="143.78" width="8.85" height="29.27" style="fill:#ebebeb"></rect><rect x="13.26" y="143.78" width="8.85" height="9.05" style="fill:#dbdbdb"></rect><rect x="160.46" y="143.78" width="8.85" height="29.27" style="fill:#ebebeb"></rect><rect x="160.46" y="143.78" width="8.85" height="9.05" style="fill:#dbdbdb"></rect><rect x="54.33" y="134.56" width="56.41" height="14.2" transform="translate(161.08 24.19) rotate(90)" style="fill:#c7c7c7"></rect><rect x="80.32" y="151.38" width="6.2" height="15.97" transform="translate(179.67 41.01) rotate(90)" style="fill:#dbdbdb"></rect><rect x="61.7" y="132" width="65.8" height="9.93" transform="translate(168.45 7.43) rotate(90)" style="fill:#dbdbdb"></rect><rect x="81.9" y="119.92" width="25.31" height="5.96" transform="translate(154.35 -6.59) rotate(90)" style="fill:#ebebeb"></rect><rect x="110.4" y="138.25" width="65.8" height="9.93" transform="translate(78.95 -94.31) rotate(44.67)" style="fill:#c7c7c7"></rect><rect x="134.09" y="143.59" width="25.31" height="5.96" transform="translate(82.3 -95.76) rotate(44.67)" style="fill:#dbdbdb"></rect><rect x="82.99" y="136.45" width="49.98" height="16.86" transform="translate(189.76 1.97) rotate(90)" style="fill:#a6a6a6"></rect><rect x="105.65" y="153.82" width="4.66" height="16.86" transform="translate(207.12 19.33) rotate(90)" style="fill:#c7c7c7"></rect><rect x="107.08" y="147.53" width="1.81" height="16.86" transform="translate(200.83 13.04) rotate(90)" style="fill:#c7c7c7"></rect><path d="M239.65,109.46A39.9,39.9,0,0,1,232,133h0a40.11,40.11,0,1,1-32.44-63.69c1.1,0,2.19,0,3.27.13a40.15,40.15,0,0,1,28.26,15.18,42.1,42.1,0,0,1,2.5,3.56A39.93,39.93,0,0,1,239.65,109.46Z" transform="translate(-63.11 -34.93)" style="fill:#ebebeb"></path><path d="M208.21,128.39c-.51,1.35.34,1.41.39,2s0,1.63-1.63,3.26-4.32,1.29-4.88,2-1.52,3.54-2.87,4.5-1.57.39-3.48.78-3.37,2.87-3.93,4,.11,3.14-1.24,3.2-2-2.86-3.2-4.44a10.36,10.36,0,0,1-2-4.83c-.4-1.85.22-5.73,0-7.24s-4.27-4.22-5.73-6.07-3.49-5.56-3.37-6.8a5.06,5.06,0,0,1,1.68-3.09c.68-.5.4-.78.51-1.23s.67-.56.78-1.13a3.38,3.38,0,0,0-.89-2.52c-.57-.28-1,.67-1.3.5s-1.34-1.35-1.74-1.46-.28.73-.84-.34-.84-3.76-1.29-4.21-.79.79-1.86,0-1.51-2.3-2-2.53-1.07.06-1.53-.84.4-2.53,0-2.36-1.28,1.46-1.51.23,1.13-5.4.9-7.64a9,9,0,0,1,2.14-6.52s.22-1.23.45-2,5.05-3.93,5.61-4.83a4.16,4.16,0,0,0,.4-1.6,40,40,0,0,1,23.75-7.78c1.1,0,2.19,0,3.27.13l.11.15a4.7,4.7,0,0,0,2.43,1.54c1.42.52,1.76,1.19,1.46,1.75a1.42,1.42,0,0,1-1.35.72c-.56,0-1.08-.27-1.68.11s-1.2,2.4-2,2.51-2.17-1.8-2.47-2.36.68-1.76.22-2.32-1.27-.45-2.54-.57-4.23.38-4.12.87,4.35-.08,4.46.9-3.11,2.62-3.67,2.47-1.31-1.13-2.14-1.24-1.49.56-2,.64-1.13-.56-1.92-.41-1,.82-1.38,1.08-1.39.26-1.5.86,1.23.94,1.57,1.31-.41,1.65-.07,1.91,2.43-1.57,3-2,1-2.39,2.09-2.36,1.5,2,1.87,2.14,1.2-.45,2.44-.19,2.1,3,2.32,3.78.75,1.65.3,2a3.23,3.23,0,0,1-2.73-.75c-.27-.53,1.34-1.31,1.23-1.5a1.59,1.59,0,0,0-1.53-.16c-.49.3-.71.91-1.24,1.06s-1.91-1.42-2.28-1,.37,1.88.75,2.21,1.76.53,1.87.9-.94,1.2-2.21,1.13-2.32-1-2.81-.64-.23,1.5-.56,1.87-2.17.11-3.07,1.09-1.31,2.43-2.21,3.26-1.31-.23-2.51.93-1.39,3.75-1.42,4.65,0,1.61-.3,1.49a2.49,2.49,0,0,1-.83-1.38c-.11-.49.27-1.31.27-1.61a5.35,5.35,0,0,0-2.74-2c-1-.15-1.91.68-2.66,1.28s-2.09.48-2.58,1-.86,4.79-.49,5.8.86,1,2.06.49.53-1.54,1.24-1.31a1.66,1.66,0,0,1,1.08,1.57c0,.6-1.42,2-1.23,2.44s1.42-.08,2,.11.9.56.71,2.1-.07,2.73.82,3.24,1.41-.73,1.8-.57,1,1.07,1.52,1,.28-.56,1.35-.89.67-.57.9-1.24a1.22,1.22,0,0,1,1.62-.9c.73.34.23.84.29,1.41s1.34.61,2.35,1,1.58,0,3.6.67,2.13,2.7,3,3,3.65-.23,5.67,1.23,1.46,4.16,2.47,5,4.78,1.85,6.24,2.13,1.68-.73,2.86-.45a2.51,2.51,0,0,1,2.25,2.25C213.1,124,208.71,127.05,208.21,128.39Z" transform="translate(-63.11 -34.93)" style="fill:#dbdbdb"></path><path d="M178,99.67c0,.32,1,.45,2.09,1.09s1.54,2.51,2.14,2.47.41-.9.63-1.12a.73.73,0,0,0,0-1.2c-.6-.49-1.18-1.54-2.27-1.69s-1.28-.6-1.77-.56A.84.84,0,0,0,178,99.67Z" transform="translate(-63.11 -34.93)" style="fill:#dbdbdb"></path><path d="M184.2,102.82c-.16.46,0,.78,1.2,1.08s2.32-.3,1.95-.54-.94-.13-.71-.54.15-1-.83-.9S184.35,102.41,184.2,102.82Z" transform="translate(-63.11 -34.93)" style="fill:#dbdbdb"></path><path d="M188.4,103c-.41,0-.64.77-.23,1.22s.42.37.9,0,1.24-.56,1.05-.94S188.81,102.89,188.4,103Z" transform="translate(-63.11 -34.93)" style="fill:#dbdbdb"></path><path d="M191.66,104.48c.18-.57,1.12,0,1.53.58a2.42,2.42,0,0,1,0,2.1c-.22.64-.37,1.39-.9,1.09s0-1.2,0-1.72S191.51,104.93,191.66,104.48Z" transform="translate(-63.11 -34.93)" style="fill:#dbdbdb"></path><path d="M207.8,73.23c-.2.47.71.64,1.23.94s.94.49,1.24,0a.82.82,0,0,0-.53-1.16C209.33,72.9,208,72.79,207.8,73.23Z" transform="translate(-63.11 -34.93)" style="fill:#dbdbdb"></path><path d="M214.87,77.62c.35.36.94.3,1.35.82s.26,1.42.79,1.68.9,0,.93-.37-.74-1.31-.67-1.5,1.09.26,1.31.83-.22,1.34.3,1.49.41-.52.64-.67.71-.07.67-.52a3.4,3.4,0,0,0-1.12-1.76,4.09,4.09,0,0,0-1.69-.9,2.46,2.46,0,0,0-2,.3C215,77.35,214.66,77.39,214.87,77.62Z" transform="translate(-63.11 -34.93)" style="fill:#dbdbdb"></path><path d="M231.08,84.67a.69.69,0,0,1-.22.4c-.78.56-1.72-1.39-2.8-1.76s-1.58-1.76-1.8-1.46-.15.71-.49,1.2-.82.37-1.05,1.31,1.05,2.66.75,3.22-.67.37-1.27.33-.49.49-1.27.27-.12-1.2-1.35-2.36-1.65-1.39-1.39-1.91-.11-1.28.45-1.35,1,.75,1.39,1,.86-.45.89-1-1.31-1.42-1.79-1.88a3.34,3.34,0,0,1-.34-2.5c.19-.33.75-.22.9-1,.09-.48-.68-1.29-1.33-1.87A40.2,40.2,0,0,1,231.08,84.67Z" transform="translate(-63.11 -34.93)" style="fill:#dbdbdb"></path><path d="M236.67,118.25c.11-1.2-.49-1.28.11-3.49a6.39,6.39,0,0,0-1.09-5.05c-.44-.49-1.42-.34-2.21.15s-.22.86-.74,1-1.05-.12-1.54-.08-.94,1.27-2,1.24-1.73-1.54-2.51-2.61-2.4-1.74-2.92-3,.48-3.33.26-4.87-1.24-1.19-1.43-2.05.16-.45.42-1.28-.3-1.27.22-2.69,1.46-2.14,1.24-2.78a10.39,10.39,0,0,1-1-2.43c0-.74.72-.71,2.14-1.76s1.8-1,2.88-.6a15.92,15.92,0,0,0,2.4.68c.63.11,1.5,1.76,1.76,1.68s.3-.56.41-1.27a1.6,1.6,0,0,1,.47-.81A40.14,40.14,0,0,1,232,133C235.81,127.21,236.56,119.44,236.67,118.25Z" transform="translate(-63.11 -34.93)" style="fill:#dbdbdb"></path><path d="M245.69,109.46a45.28,45.28,0,0,1-1.31,12.26l-.34,1.52-.49,1.47-1,3-1.28,2.85c-.22.47-.41,1-.65,1.41l-.78,1.36a46.18,46.18,0,0,1-7.53,10L230,145.4c-.75.73-1.64,1.31-2.46,2a48.62,48.62,0,0,1-5.23,3.5c-.91.52-1.87,1-2.8,1.44l-1.42.7c-.48.22-1,.38-1.47.58l-3,1.11-3.05.82-1.53.41-1.56.25-3.13.5-3.16.19-1.58.09c-.52,0-1.05,0-1.58-.05l-3.17-.14c-1.05-.11-2.09-.3-3.13-.45a48.91,48.91,0,0,1-6.19-1.38c-1-.32-2-.71-3-1.06l-1.49-.54c-.49-.21-1-.45-1.44-.68l-2.86-1.37-2.72-1.64a22,22,0,0,1-2.61-1.8c-.83-.65-1.71-1.24-2.51-1.94a48.57,48.57,0,0,1-4.54-4.42,45.6,45.6,0,0,1-7.18-10.4l-1.35-2.87c-.41-1-.73-2-1.1-3l-.53-1.49c-.16-.5-.26-1-.4-1.53l-.76-3.07a50.09,50.09,0,0,1-.75-12.58,45.89,45.89,0,0,1,27.41-38.82A47,47,0,0,0,161.94,84a45.89,45.89,0,0,0-7.29,22.69,51.76,51.76,0,0,0,1,11.92l.77,2.89c.14.48.24,1,.41,1.44l.52,1.4c.37.92.68,1.87,1.08,2.78l1.32,2.68a23.62,23.62,0,0,0,1.47,2.59c.54.83,1,1.73,1.6,2.52a45,45,0,0,0,3.76,4.63,46.38,46.38,0,0,0,4.28,4.13c.76.65,1.59,1.2,2.38,1.81l1.19.89c.4.29.85.52,1.27.79,13.36,8.77,31.45,9.24,45.57,1.69a48.89,48.89,0,0,0,9.74-7,45.39,45.39,0,0,0,7.63-9.33l.82-1.27c.26-.44.47-.9.71-1.34l1.39-2.7,1.13-2.83.55-1.42.42-1.47c.28-1,.57-2,.83-2.94l.54-3c.09-.5.21-1,.28-1.51l.13-1.53Z" transform="translate(-63.11 -34.93)" style="fill:#a6a6a6"></path><polygon points="120.58 38.23 115.15 40.81 111.32 29.36 114.12 28.04 120.58 38.23" style="fill:#a6a6a6"></polygon><rect x="134.39" y="120.67" width="5.83" height="14.27" style="fill:#a6a6a6"></rect><rect x="115.95" y="129.63" width="42.71" height="5.3" style="fill:#a6a6a6"></rect><path d="M552.26,284.62q-4.12,35.28-8,69.82c29.85,9.59,63,8.25,91.83,21.31q4.13-35.29,8-69.83C614.25,296.33,581,297.67,552.26,284.62Z" transform="translate(-63.11 -34.93)" style="fill:#dbdbdb"></path><path d="M623.74,364.42q2.16-19.17,4.26-38.17l-2.35-.57q-2.08,19-4.22,38.06C622.2,364,623,364.18,623.74,364.42Z" transform="translate(-63.11 -34.93)" style="fill:#c7c7c7"></path><path d="M617.87,362.77q2.11-19,4.18-37.91l-2.37-.5q-2.05,18.86-4.15,37.83Z" transform="translate(-63.11 -34.93)" style="fill:#c7c7c7"></path><path d="M611.93,361.35q2.09-18.9,4.12-37.7l-2.39-.45q-2,18.78-4.1,37.64C610.36,361,611.15,361.18,611.93,361.35Z" transform="translate(-63.11 -34.93)" style="fill:#c7c7c7"></path><path d="M605.94,360.1q3-27.56,5.94-55l-2.4-.39q-3,27.4-5.93,54.91Z" transform="translate(-63.11 -34.93)" style="fill:#c7c7c7"></path><path d="M599.91,359q3-27.47,5.9-54.83l-2.41-.38q-2.94,27.38-5.89,54.8Z" transform="translate(-63.11 -34.93)" style="fill:#c7c7c7"></path><path d="M593.84,358q3-27.41,5.88-54.77l-2.41-.38q-2.94,27.39-5.88,54.76Z" transform="translate(-63.11 -34.93)" style="fill:#c7c7c7"></path><path d="M587.76,357q2.94-27.37,5.88-54.78l-2.4-.39q-3,27.43-5.89,54.79Z" transform="translate(-63.11 -34.93)" style="fill:#c7c7c7"></path><path d="M581.68,356.07q2.94-27.39,5.9-54.85l-2.39-.43q-3,27.51-5.92,54.9Z" transform="translate(-63.11 -34.93)" style="fill:#c7c7c7"></path><path d="M575.6,355.09q3-27.43,5.95-55l-2.37-.48q-3,27.63-6,55.07Z" transform="translate(-63.11 -34.93)" style="fill:#c7c7c7"></path><path d="M569.55,354q3-27.51,6-55.22c-.79-.17-1.57-.36-2.36-.55q-3.06,27.8-6.05,55.32C568,353.75,568.75,353.89,569.55,354Z" transform="translate(-63.11 -34.93)" style="fill:#c7c7c7"></path><path d="M563.53,352.88q3-27.63,6.11-55.51c-.78-.2-1.56-.41-2.33-.63q-3.13,28-6.15,55.64Z" transform="translate(-63.11 -34.93)" style="fill:#c7c7c7"></path><path d="M557.56,351.56q3.06-27.76,6.22-55.86l-2.3-.74q-3.19,28.2-6.27,56C556,351.18,556.77,351.38,557.56,351.56Z" transform="translate(-63.11 -34.93)" style="fill:#c7c7c7"></path><path d="M205.43,338.26q24.18,20.7,47.93,40.86c22-17.4,37.64-42.77,61.73-57.64q-24.18-20.7-47.92-40.86C245.12,298,229.53,323.38,205.43,338.26Z" transform="translate(-63.11 -34.93)" style="fill:#dbdbdb"></path><path d="M300.5,325q-13.17-11.18-26.25-22.23c-.54.48-1.07,1-1.6,1.46q13.05,11,26.19,22.16Z" transform="translate(-63.11 -34.93)" style="fill:#c7c7c7"></path><path d="M296.35,328.53q-13.1-11.08-26.11-22c-.52.5-1,1-1.55,1.51q13,11,26.05,22C295.27,329.49,295.81,329,296.35,328.53Z" transform="translate(-63.11 -34.93)" style="fill:#c7c7c7"></path><path d="M292.32,332.23q-13-11-26-21.9l-1.53,1.55,25.95,21.86Z" transform="translate(-63.11 -34.93)" style="fill:#c7c7c7"></path><path d="M288.4,336.07q-19-16-37.91-31.9c-.5.53-1,1.06-1.49,1.6q18.9,15.89,37.87,31.85Z" transform="translate(-63.11 -34.93)" style="fill:#c7c7c7"></path><path d="M284.56,340l-37.83-31.79-1.48,1.6q18.88,15.87,37.8,31.77Z" transform="translate(-63.11 -34.93)" style="fill:#c7c7c7"></path><path d="M280.77,344,243,312.26l-1.48,1.6,37.78,31.74Z" transform="translate(-63.11 -34.93)" style="fill:#c7c7c7"></path><path d="M277,348q-18.88-15.87-37.79-31.75l-1.5,1.59,37.81,31.77Z" transform="translate(-63.11 -34.93)" style="fill:#c7c7c7"></path><path d="M273.27,352.09l-37.84-31.8-1.51,1.56q19,16,37.86,31.84C272.28,353.16,272.78,352.63,273.27,352.09Z" transform="translate(-63.11 -34.93)" style="fill:#c7c7c7"></path><path d="M269.51,356.12q-18.93-15.9-37.93-31.91L230,325.74q19,16,38,32Z" transform="translate(-63.11 -34.93)" style="fill:#c7c7c7"></path><path d="M265.7,360.1q-19-16-38-32.07l-1.59,1.47q19.14,16.17,38.12,32.15C264.69,361.14,265.2,360.62,265.7,360.1Z" transform="translate(-63.11 -34.93)" style="fill:#c7c7c7"></path><path d="M261.83,364q-19-16-38.22-32.28L222,333.13q19.25,16.31,38.3,32.38Z" transform="translate(-63.11 -34.93)" style="fill:#c7c7c7"></path><path d="M257.87,367.78q-19.12-16.15-38.44-32.55l-1.7,1.34q19.38,16.49,38.54,32.67Z" transform="translate(-63.11 -34.93)" style="fill:#c7c7c7"></path><path d="M110.73,182.14q-2.42,29.64-4.82,59.26c29.55,32.93,64.69-16.49,94.3,15.43q1.78-22,3.58-44c-5.22-11.36-10.63-19.8-16.17-26.4C162.31,180.19,134.72,207.69,110.73,182.14Z" transform="translate(-63.11 -34.93)" style="fill:#ebebeb"></path><path d="M203.79,212.83c-5.22-11.36-10.63-19.8-16.17-26.4q-.63,7.71-1.25,15.41C192.32,203.27,198.16,206.56,203.79,212.83Z" transform="translate(-63.11 -34.93)" style="fill:#dbdbdb"></path><path d="M185.36,241l2.7-33.26c-.8-.25-1.6-.47-2.4-.65l-2.7,33.3C183.76,240.58,184.56,240.78,185.36,241Z" transform="translate(-63.11 -34.93)" style="fill:#dbdbdb"></path><path d="M179.26,239.85q1.37-16.68,2.71-33.36c-.81-.08-1.62-.14-2.44-.17l-2.7,33.38Q178,239.73,179.26,239.85Z" transform="translate(-63.11 -34.93)" style="fill:#dbdbdb"></path><path d="M173.09,239.76q1.35-16.71,2.71-33.42c-.82,0-1.64.11-2.46.19Q172,223.26,170.63,240,171.86,239.83,173.09,239.76Z" transform="translate(-63.11 -34.93)" style="fill:#dbdbdb"></path><path d="M166.86,240.51q2-24.52,4-49c-.83.13-1.66.28-2.48.44q-2,24.53-4,49.06C165.21,240.8,166,240.65,166.86,240.51Z" transform="translate(-63.11 -34.93)" style="fill:#dbdbdb"></path><path d="M160.59,241.81q2-24.54,4-49.08-1.24.28-2.49.6-2,24.54-4,49.09Z" transform="translate(-63.11 -34.93)" style="fill:#dbdbdb"></path><path d="M154.3,243.41q2-24.56,4-49.11l-2.49.66q-2,24.54-4,49.1Z" transform="translate(-63.11 -34.93)" style="fill:#dbdbdb"></path><path d="M148,245q2-24.54,4-49.09l-2.49.6q-2,24.54-4,49.08C146.35,245.43,147.18,245.23,148,245Z" transform="translate(-63.11 -34.93)" style="fill:#dbdbdb"></path><path d="M141.74,246.4q2-24.53,4-49.05c-.83.16-1.66.3-2.48.44q-2,24.51-4,49C140.09,246.7,140.91,246.56,141.74,246.4Z" transform="translate(-63.11 -34.93)" style="fill:#dbdbdb"></path><path d="M135.5,247.27q2-24.5,4-49c-.82.08-1.64.14-2.46.17q-2,24.48-4,49C133.86,247.38,134.68,247.34,135.5,247.27Z" transform="translate(-63.11 -34.93)" style="fill:#dbdbdb"></path><path d="M129.32,247.35l4-48.89c-.81,0-1.62-.1-2.43-.2q-2,24.44-4,48.85C127.69,247.22,128.5,247.3,129.32,247.35Z" transform="translate(-63.11 -34.93)" style="fill:#dbdbdb"></path><path d="M123.2,246.4l4-48.78c-.81-.19-1.61-.41-2.4-.67l-4,48.72C121.6,246,122.4,246.19,123.2,246.4Z" transform="translate(-63.11 -34.93)" style="fill:#dbdbdb"></path><path d="M117.18,244.13q2-24.31,3.94-48.63c-.79-.38-1.58-.79-2.36-1.25q-2,24.28-3.94,48.55C115.6,243.29,116.39,243.73,117.18,244.13Z" transform="translate(-63.11 -34.93)" style="fill:#dbdbdb"></path><path d="M619.44,308.53l-38.5,45.31c-44.18,2.39-34.08-57.4-77.59-55.77l28.58-33.64A115.38,115.38,0,0,1,562,257.19C584.34,270.67,584.4,309.63,619.44,308.53Z" transform="translate(-63.11 -34.93)" style="fill:#ebebeb"></path><path d="M531.93,264.43A115.38,115.38,0,0,1,562,257.19L552,269C546.8,265.77,540.35,264,531.93,264.43Z" transform="translate(-63.11 -34.93)" style="fill:#dbdbdb"></path><path d="M525,297.39q10.8-12.72,21.61-25.43c.74.39,1.46.8,2.16,1.24l-21.64,25.46C526.47,298.21,525.76,297.78,525,297.39Z" transform="translate(-63.11 -34.93)" style="fill:#dbdbdb"></path><path d="M530.17,300.87l21.67-25.5c.64.52,1.25,1.05,1.85,1.6L532,302.49Q531.12,301.65,530.17,300.87Z" transform="translate(-63.11 -34.93)" style="fill:#dbdbdb"></path><path d="M534.59,305.18l21.72-25.55c.55.61,1.09,1.23,1.61,1.87Q547,294.28,536.19,307.07C535.67,306.42,535.14,305.79,534.59,305.18Z" transform="translate(-63.11 -34.93)" style="fill:#dbdbdb"></path><path d="M538.47,310.11l31.87-37.49q.74,1,1.44,2.07l-31.88,37.5C539.43,311.49,539,310.79,538.47,310.11Z" transform="translate(-63.11 -34.93)" style="fill:#dbdbdb"></path><path d="M542,315.46q16-18.75,31.9-37.52c.45.72.89,1.45,1.34,2.19l-31.91,37.53C542.87,316.92,542.43,316.19,542,315.46Z" transform="translate(-63.11 -34.93)" style="fill:#dbdbdb"></path><path d="M545.3,321l31.91-37.54,1.3,2.23L546.6,323.26C546.17,322.52,545.74,321.78,545.3,321Z" transform="translate(-63.11 -34.93)" style="fill:#dbdbdb"></path><path d="M548.61,326.63l31.9-37.53c.44.74.88,1.46,1.33,2.19L550,328.81C549.5,328.09,549.05,327.36,548.61,326.63Z" transform="translate(-63.11 -34.93)" style="fill:#dbdbdb"></path><path d="M552.07,332l31.87-37.5c.48.7,1,1.39,1.45,2.06l-31.87,37.49C553,333.42,552.54,332.73,552.07,332Z" transform="translate(-63.11 -34.93)" style="fill:#dbdbdb"></path><path d="M555.87,337.06l31.83-37.45c.53.64,1.06,1.26,1.62,1.87q-15.92,18.7-31.81,37.42C556.94,338.31,556.4,337.69,555.87,337.06Z" transform="translate(-63.11 -34.93)" style="fill:#dbdbdb"></path><path d="M560.18,341.5,592,304.12c.6.55,1.22,1.08,1.86,1.58l-31.74,37.35C561.42,342.55,560.79,342,560.18,341.5Z" transform="translate(-63.11 -34.93)" style="fill:#dbdbdb"></path><path d="M565.18,345.14l31.69-37.28c.7.43,1.43.84,2.18,1.22l-31.66,37.25C566.63,346,565.9,345.57,565.18,345.14Z" transform="translate(-63.11 -34.93)" style="fill:#dbdbdb"></path><path d="M571.05,347.8l31.59-37.17c.82.29,1.68.55,2.56.78l-31.55,37.12C572.75,348.32,571.89,348.08,571.05,347.8Z" transform="translate(-63.11 -34.93)" style="fill:#dbdbdb"></path><path d="M424.58,105.49q-13.49,30.41-27.3,61.7c34.66-20.14,37.34,42.88,69.19,30q8.77-19.36,17.56-38.77l6.56-13.69C456.8,162.32,455.46,95.49,424.58,105.49Z" transform="translate(-63.11 -34.93)" style="fill:#ebebeb"></path><path d="M454.87,193.07q9.42-20.73,18.82-41.37a14.78,14.78,0,0,1-1.84-.63l-18.77,41.28A18.57,18.57,0,0,0,454.87,193.07Z" transform="translate(-63.11 -34.93)" style="fill:#dbdbdb"></path><path d="M450.47,190.92l18.74-41.2c-.56-.34-1.1-.71-1.64-1.11l-18.74,41.17C449.37,190.19,449.91,190.57,450.47,190.92Z" transform="translate(-63.11 -34.93)" style="fill:#dbdbdb"></path><path d="M446.44,187.78q9.4-20.67,18.74-41.17-.76-.72-1.5-1.5-9.35,20.52-18.75,41.21C445.43,186.82,445.93,187.31,446.44,187.78Z" transform="translate(-63.11 -34.93)" style="fill:#dbdbdb"></path><path d="M442.7,183.9l18.82-41.37c-.47-.57-.94-1.16-1.39-1.77q-9.39,20.63-18.86,41.46C441.74,182.79,442.22,183.35,442.7,183.9Z" transform="translate(-63.11 -34.93)" style="fill:#dbdbdb"></path><path d="M439.14,179.55q9.51-20.94,18.92-41.64L456.74,136q-9.45,20.76-19,41.78Z" transform="translate(-63.11 -34.93)" style="fill:#dbdbdb"></path><path d="M435.67,175q9.58-21.15,19.07-42l-1.29-2q-9.52,21-19.16,42.25Z" transform="translate(-63.11 -34.93)" style="fill:#dbdbdb"></path><path d="M432.18,170.44q9.7-21.45,19.29-42.6c-.44-.66-.87-1.33-1.31-2q-9.63,21.26-19.39,42.85Z" transform="translate(-63.11 -34.93)" style="fill:#dbdbdb"></path><path d="M428.57,166.21q9.85-21.83,19.56-43.3c-.45-.62-.9-1.24-1.36-1.85q-9.78,21.63-19.68,43.61C427.59,165.17,428.08,165.68,428.57,166.21Z" transform="translate(-63.11 -34.93)" style="fill:#dbdbdb"></path><path d="M424.75,162.54q10-22.26,19.88-44.14c-.48-.55-1-1.09-1.45-1.61q-9.94,22-20,44.51C423.69,161.69,424.22,162.11,424.75,162.54Z" transform="translate(-63.11 -34.93)" style="fill:#dbdbdb"></path><path d="M420.61,159.69q10.22-22.77,20.26-45.12c-.52-.45-1-.88-1.58-1.27q-10.12,22.55-20.43,45.55C419.45,159.1,420,159.38,420.61,159.69Z" transform="translate(-63.11 -34.93)" style="fill:#dbdbdb"></path><path d="M416.06,157.93q10.44-23.37,20.69-46.26a18.66,18.66,0,0,0-1.75-.83Q424.65,134,414.11,157.58A17.65,17.65,0,0,1,416.06,157.93Z" transform="translate(-63.11 -34.93)" style="fill:#dbdbdb"></path><path d="M411,157.5q10.68-24,21.18-47.53a15.68,15.68,0,0,0-2-.28q-10.6,23.78-21.4,48.07A21.18,21.18,0,0,1,411,157.5Z" transform="translate(-63.11 -34.93)" style="fill:#dbdbdb"></path><path d="M467,196" transform="translate(-63.11 -34.93)" style="fill:#ebebeb"></path></g><g id="freepik--Table--inject-114"><path d="M65.05,457.74c198.57-.61,421.33-.61,619.9,0-198.57.62-421.33.62-619.9,0Z" transform="translate(-63.11 -34.93)" style="fill:#263238"></path></g><g id="freepik--Clock--inject-114"><circle cx="345.79" cy="95.76" r="52.88" transform="translate(-29.54 237.63) rotate(-45)" style="fill:#FFC727"></circle><circle cx="348.22" cy="96.94" r="50.46" transform="translate(-75.99 45.86) rotate(-13)" style="opacity:0.1"></circle><circle cx="348.21" cy="96.94" r="47.27" transform="translate(132.93 389.87) rotate(-80.66)" style="fill:#fff"></circle><path d="M394.41,86.91c-21.52,13-56.9,34.43-76.67,46.16a47.24,47.24,0,0,1-12.92-17.37l65.4-60.61A47.31,47.31,0,0,1,394.41,86.91Z" transform="translate(-63.11 -34.93)" style="fill:#ebebeb;opacity:0.5"></path><path d="M395.45,98.59A46.9,46.9,0,0,1,392.33,114l-59,27.88a46,46,0,0,1-7.44-3.2C343.73,128.34,376.28,109.62,395.45,98.59Z" transform="translate(-63.11 -34.93)" style="fill:#ebebeb;opacity:0.5"></path><rect x="284.65" y="18.17" width="0.91" height="7.16" style="fill:#263238"></rect><rect x="327.63" y="58.49" width="0.91" height="7.17" transform="translate(-50.2 137.41) rotate(-30)" style="fill:#263238"></rect><rect x="312.9" y="73.23" width="0.91" height="7.16" transform="translate(27.04 274.83) rotate(-60)" style="fill:#263238"></rect><rect x="241.27" y="61.55" width="7.16" height="0.91" style="fill:#263238"></rect><rect x="309.77" y="116.61" width="7.16" height="0.91" transform="translate(-79.67 137.4) rotate(-30)" style="fill:#263238"></rect><rect x="324.51" y="131.35" width="7.16" height="0.91" transform="translate(-13.05 315.3) rotate(-60.04)" style="fill:#263238"></rect><rect x="284.65" y="98.68" width="0.91" height="7.17" style="fill:#263238"></rect><rect x="367.89" y="128.22" width="0.91" height="7.16" transform="translate(-79.66 166.9) rotate(-30)" style="fill:#263238"></rect><rect x="382.62" y="113.48" width="0.91" height="7.17" transform="translate(27.03 355.34) rotate(-60)" style="fill:#263238"></rect><rect x="321.78" y="61.55" width="7.16" height="0.91" style="fill:#263238"></rect><rect x="379.5" y="76.35" width="7.16" height="0.91" transform="translate(-50.18 166.94) rotate(-30.01)" style="fill:#263238"></rect><rect x="364.76" y="61.62" width="7.17" height="0.91" transform="translate(67.43 315.2) rotate(-60.03)" style="fill:#263238"></rect><polygon points="285.79 21.41 287.35 65.19 282.87 65.14 284.58 21.4 285.79 21.41" style="fill:#455a64"></polygon><polygon points="313.07 46.74 283.61 65.54 281.47 61.6 312.49 45.67 313.07 46.74" style="fill:#263238"></polygon><path d="M349.75,96.94a1.54,1.54,0,1,1-1.53-1.53A1.54,1.54,0,0,1,349.75,96.94Z" transform="translate(-63.11 -34.93)" style="fill:#455a64"></path></g><g id="freepik--character-2--inject-114"><rect x="522.97" y="360.71" width="115.41" height="60.59" transform="translate(1098.23 747.07) rotate(180)" style="fill:#FFC727"></rect><rect x="522.97" y="360.71" width="115.41" height="60.59" transform="translate(1098.23 747.07) rotate(180)" style="opacity:0.5"></rect><rect x="575.27" y="325.77" width="7.36" height="60.59" style="fill:#FFC727"></rect><rect x="575.27" y="325.77" width="7.36" height="60.59" style="opacity:0.7000000000000001"></rect><rect x="616.24" y="421.3" width="11.42" height="36.45" transform="translate(1180.78 844.11) rotate(180)" style="fill:#c7c7c7"></rect><rect x="533.69" y="421.3" width="11.42" height="36.45" transform="translate(1015.7 844.11) rotate(180)" style="fill:#c7c7c7"></rect><path d="M618.85,401.81a3.1,3.1,0,1,0,3.09-3.1A3.09,3.09,0,0,0,618.85,401.81Z" transform="translate(-63.11 -34.93)" style="fill:#fff"></path><path d="M536.3,401.81a3.1,3.1,0,1,0,3.1-3.1A3.09,3.09,0,0,0,536.3,401.81Z" transform="translate(-63.11 -34.93)" style="fill:#fff"></path><path d="M593.36,239.11l-9.19,1.1,9,.84c-.15,1.18-.33,2.45-.54,3.8l-12.55.66,11.84,3.54a120.39,120.39,0,0,1-4.66,17.69l-11.54-1.18,10.46,4.09a84.51,84.51,0,0,1-8.63,16.82l-9.2-4.69,7.29,7.4c-.46.62-.94,1.24-1.43,1.84l-13.33-10.14,11,12.74c-.08.14-.16.29-.25.42a56.65,56.65,0,0,1-27.27,16.87l-4.65-10.5,2.83,11a72.78,72.78,0,0,1-22.47,2.11l-2.55-22.54L516,313.11a74.35,74.35,0,0,1-18.25-4.63l1.49-11.58-3.84,10.62c-1.32-.55-2.61-1.15-3.85-1.75l5-17c-1.41,3.69-5.44,11.06-8,15.54a88.63,88.63,0,0,1-12.14-7.89l8.32-13-10.84,11a55.56,55.56,0,0,1-5.05-4.63s10.37-11.53,15.41-22.47-6.7-44.46-.19-60.05c11.42-27.33,34.42-18.36,34.42-18.36,26-4.73,37.3,31.75,46.7,38.27s28.7,5.53,28.7,5.53C593.83,234,593.68,236.2,593.36,239.11Z" transform="translate(-63.11 -34.93)" style="fill:#263238"></path><path d="M503.77,402.52c1,1.22,81.76,4.85,85.61,3.74a2.14,2.14,0,0,0,.53-.22c4.76-2.23,26.78-22.46,28.44-24.16,4.08-4.18-12.8-33.61-18.17-38.48-3.58-3.23-10.21-4.5-10.21-4.5s-18.71-54-30.25-65.3c-2.89-2.84-53-4-62,.13-3.83,1.75-13.16,11.27-13.41,13v0C484.12,289.22,502.81,401.29,503.77,402.52Z" transform="translate(-63.11 -34.93)" style="fill:#37474f"></path><path d="M503.77,402.52c1,1.22,81.76,4.85,85.61,3.74a2.14,2.14,0,0,0,.53-.22c-7.74-20.93-44.13-119.16-45.17-119.79s-48.91-.35-60.38.48C484.12,289.22,502.81,401.29,503.77,402.52Z" transform="translate(-63.11 -34.93)" style="fill:#263238"></path><path d="M533.44,277.58c.81-.76,1.35-11.74-.14-13.93-1.66-2.45-20.88-1.24-22,.85s-1.67,13.06-1.1,13.46,3.79.77,4.22.07.4-9.78.74-10.25,13.8-1.36,14.26-.67-.66,9.87-.13,10.27S532.66,278.32,533.44,277.58Z" transform="translate(-63.11 -34.93)" style="fill:#37474f"></path><path d="M454.05,457.75h81.86c5-19,9.57-35.84,12.49-46.45,1.83-6.67,3-10.9,3.23-11.7l0-.14H466.54s-1,4.45-2.59,11.94c-1,4.82-2.34,10.92-3.84,17.88-.13.61-.27,1.23-.4,1.86C458,439.12,456.07,448.17,454.05,457.75Z" transform="translate(-63.11 -34.93)" style="fill:#455a64"></path><path d="M523.51,457.75H525q6.29-23.14,12.26-46.38l.34-1.3a.29.29,0,0,0-.56-.17c-.15.49-.3,1-.43,1.47C532.13,426.78,527.79,442.26,523.51,457.75Z" transform="translate(-63.11 -34.93)" style="fill:#263238"></path><path d="M473.19,399.6a79.72,79.72,0,0,0,2.91,11.94c.95,3.09,2.1,6.44,3.4,9.89.27.79.59,1.55.89,2.34,4.13,10.51,9.55,21.22,15.09,26.31h0a14.17,14.17,0,0,0,2.14,1.67l4.74,2.93a.17.17,0,0,0,0,.07h0c.05.28.21,1.31.49,3h79.83c2-18.5-2.21-35.82-5.93-46.66a96.89,96.89,0,0,0-4.63-11.49Z" transform="translate(-63.11 -34.93)" style="fill:#455a64"></path><path d="M482.67,445.57a152.88,152.88,0,0,0,15.5,7.41c1.41.6,2.82,1.2,4.25,1.78h0l.26.11c1.24.51,2.47,1,3.72,1.48s2.41.95,3.63,1.4h2.71c-1.87-.94-3.82-1.74-5.71-2.58l-7.91-3.5c-1.21-.52-2.41-1-3.61-1.58h0c-4.12-1.84-8.24-3.67-12.48-5.22A.4.4,0,0,0,482.67,445.57Z" transform="translate(-63.11 -34.93)" style="fill:#263238"></path><path d="M502.4,454.82c0,.63.05,1.66.17,2.93h.89c-.28-1.2-.53-2.18-.77-2.88a.26.26,0,0,0,0-.08.12.12,0,0,0-.23,0h0A.06.06,0,0,0,502.4,454.82Z" transform="translate(-63.11 -34.93)" style="fill:#263238"></path><path d="M564.45,404.58c1.07,2.16,2,4.35,3,6.59a88.83,88.83,0,0,1,6,42.81c-.15,1.26-.32,2.51-.52,3.77h1.41a86.86,86.86,0,0,0,.95-11,84.16,84.16,0,0,0-7-35.57c-1-2.33-2.16-4.61-3.39-6.84C564.75,404,564.29,404.28,564.45,404.58Z" transform="translate(-63.11 -34.93)" style="fill:#263238"></path><path d="M504.4,432.54c-.07-3.07-.29-6.15-.44-9.22-.36-7.25-.64-14.54-1.32-21.78a.23.23,0,0,0-.45,0c-.09,5.61.13,11.23.24,16.84.06,2.81.14,5.62.22,8.42a80.08,80.08,0,0,1,.05,8.05c-.15,2-.59,5.95-3.23,6.2s-4.46-2.46-5.08-4.43c-1.58-5-2.14-10.39-2.65-15.58-.3-3.07-.66-15.6-.49-18.71,0-.2-.3-.19-.31,0-.17,3.17-.61,6.32-.71,9.5a94.08,94.08,0,0,0,.09,9.5c.19,3,.45,6.07.9,9.07a33.06,33.06,0,0,0,1.95,8c.92,2.12,2.49,4.08,4.88,4.55a6.88,6.88,0,0,0,.89.09c0,.65.11,1.3.16,1.94.07,1,.2,2,.33,3a24.37,24.37,0,0,0,.62,2.94,10.8,10.8,0,0,0,1,2.81c.08.14.27.06.28-.09a13.38,13.38,0,0,0-.24-2.89c-.13-1-.27-2-.48-3s-.37-1.93-.57-2.89c-.13-.64-.22-1.31-.34-2a4.72,4.72,0,0,0,3.52-2.77A17.09,17.09,0,0,0,504.4,432.54Z" transform="translate(-63.11 -34.93)" style="fill:#263238"></path><path d="M491.3,298.41c-15.13-9.05-86.79-92.42-86.95-107.26-.07-6.08,41.37-37.34,44.3-31.54,3.19,6.3,42.83,96.93,55.84,123.67C511.87,298.45,503.16,305.5,491.3,298.41Z" transform="translate(-63.11 -34.93)" style="fill: rgb(255, 196, 192);"></path><path d="M412.89,204.57c-10.65-4.62-42.53-29-47.73-35.21s-18.89-25.13-14.55-29.6,8.8.75,8.8.75-5.08-9.68.27-13c4.27-2.66,10.92,4.36,10.92,4.36s-5-10.9.72-13.52c5.22-2.39,10.48,7,10.48,7s-3.27-9.55,2.2-10.88c6.58-1.61,12.24,14.91,18.5,21.33,1.42,1.46,41.92,28.15,41.92,28.15Z" transform="translate(-63.11 -34.93)" style="fill: rgb(255, 196, 192);"></path><path d="M382.05,124.86c5.51,12,8.13,16.73,18,24.63.19.16,0,.48-.21.33C389.47,143,386,137.52,381.46,125,381.24,124.43,381.8,124.31,382.05,124.86Z" transform="translate(-63.11 -34.93)" style="fill:#263238"></path><path d="M370.72,131.87c5.46,12.23,9.82,16.95,19.55,26,.14.13-.07.38-.22.26C379.77,150,374.13,144.88,370.29,132,370.11,131.36,370.47,131.31,370.72,131.87Z" transform="translate(-63.11 -34.93)" style="fill:#263238"></path><path d="M359.89,141c6.14,11.46,10.53,17.16,21.1,24.72a.24.24,0,0,1-.25.4c-11.53-6.66-17.07-13.72-21.18-24.89C359.28,140.43,359.51,140.24,359.89,141Z" transform="translate(-63.11 -34.93)" style="fill:#263238"></path><path d="M452.19,168.46s-3.77-17.77-20.2-24.91c-6.64-2.89-15.28-23.27-21.49-23.11-7,.17-2.71,18.47,5.36,28.56,0,0-12,17.48-4.71,27.53,1.58,2.18,13.44,9.34,16.48,8.85Z" transform="translate(-63.11 -34.93)" style="fill: rgb(255, 196, 192);"></path><path d="M416.32,150.31c-4.91,6.64-8.57,16.9-5.56,24.57a.19.19,0,0,1-.34.17c-4.34-7.79-.23-19.7,4.52-25.37C415.86,148.59,417.59,148.59,416.32,150.31Z" transform="translate(-63.11 -34.93)" style="fill:#263238"></path><path d="M491.3,298.41c-3.72-2.23-11.38-9.24-20.81-18.76l.48-70.16c11.59,26,24.77,55.46,32,70.73,1.37,3.48,2.65,6.69,3.81,9.58C509.06,300.32,501.3,304.39,491.3,298.41Z" transform="translate(-63.11 -34.93)" style="opacity:0.1"></path><path d="M483,227.3,454.25,268s22,22.93,38.66,32.94c12.74,7.63,18,1.06,15.71-8.53C501.1,260.45,483,227.3,483,227.3Z" transform="translate(-63.11 -34.93)" style="fill:#FFC727"></path><path d="M489.3,254.82a2.94,2.94,0,1,1-2.94-2.94A2.94,2.94,0,0,1,489.3,254.82Zm-2.94,39.6a2.93,2.93,0,0,0-1.95.74q2.35,1.77,4.66,3.33a2.86,2.86,0,0,0,.22-1.14A2.93,2.93,0,0,0,486.36,294.42Zm-14-21.08a2.94,2.94,0,1,0,2.94,2.94A2.94,2.94,0,0,0,472.4,273.34Zm27.92,0a2.94,2.94,0,1,0,2.93,2.94A2.94,2.94,0,0,0,500.32,273.34Z" transform="translate(-63.11 -34.93)" style="fill:#fff"></path><path d="M461.87,271.28c4.87-6,17.64-22.5,24.53-34.33,0-.07-.21-.25-.27-.19-7.21,9-20.3,27.88-24.64,34.24C461.41,271.11,461.77,271.39,461.87,271.28Z" transform="translate(-63.11 -34.93)" style="fill:#263238"></path><path d="M492.91,301c-2-1.23-4.15-2.64-6.3-4.18l17.83-19.26c1.58,4.9,3,9.92,4.18,14.9C510.88,302,505.65,308.59,492.91,301Z" transform="translate(-63.11 -34.93)" style="opacity:0.1"></path><path d="M581,416.78c-.09.11-118.19-5.41-119-6.14-1.42-1.35,16.83-93.51,35.95-125.78,3.58-6,19.73-15,31.45-3.52C564.76,315.88,582.44,414.72,581,416.78Z" transform="translate(-63.11 -34.93)" style="fill:#FFC727"></path><path d="M517.21,297.36a2.94,2.94,0,1,1-2.94-2.94A2.94,2.94,0,0,1,517.21,297.36Zm23.27-2.4a2.94,2.94,0,0,0,3.16,5Q542.1,297.36,540.48,295Zm-54.12,42a2.94,2.94,0,1,0,2.94,2.93A2.94,2.94,0,0,0,486.36,337Zm27.91,0a2.94,2.94,0,1,0,2.94,2.93A2.94,2.94,0,0,0,514.27,337Zm27.92,0a2.94,2.94,0,1,0,2.93,2.93A2.93,2.93,0,0,0,542.19,337Zm-41.87-21.08a2.94,2.94,0,1,0,2.93,2.94A2.94,2.94,0,0,0,500.32,315.88Zm27.91,0a2.94,2.94,0,1,0,2.94,2.94A2.94,2.94,0,0,0,528.23,315.88Zm25,2.38a2.53,2.53,0,0,0-.06.56,2.91,2.91,0,0,0,1.45,2.52C554.19,320.31,553.73,319.27,553.26,318.26Zm-66.9,61.23a2.94,2.94,0,1,0,2.94,2.94A2.94,2.94,0,0,0,486.36,379.49Zm27.91,0a2.94,2.94,0,1,0,2.94,2.94A2.94,2.94,0,0,0,514.27,379.49Zm27.92,0a2.94,2.94,0,1,0,2.93,2.94A2.94,2.94,0,0,0,542.19,379.49Zm27.91,0a2.94,2.94,0,1,0,2.94,2.94A2.94,2.94,0,0,0,570.1,379.49Zm-97.61-21.06c-.47,1.88-.92,3.73-1.37,5.56a2.76,2.76,0,0,0,1.29.3,2.93,2.93,0,0,0,.08-5.86Zm27.83,0a2.94,2.94,0,1,0,2.93,2.93A2.93,2.93,0,0,0,500.32,358.42Zm27.91,0a2.94,2.94,0,1,0,2.94,2.93A2.94,2.94,0,0,0,528.23,358.42Zm27.91,0a2.94,2.94,0,1,0,2.94,2.93A2.94,2.94,0,0,0,556.14,358.42ZM472.4,401a2.94,2.94,0,1,0,2.94,2.94A2.94,2.94,0,0,0,472.4,401Zm27.92,0a2.94,2.94,0,1,0,2.93,2.94A2.94,2.94,0,0,0,500.32,401Zm27.91,0a2.94,2.94,0,1,0,2.94,2.94A2.94,2.94,0,0,0,528.23,401Zm27.91,0a2.94,2.94,0,1,0,2.94,2.94A2.94,2.94,0,0,0,556.14,401Z" transform="translate(-63.11 -34.93)" style="fill:#fff"></path><path d="M524.28,279.58c-1.33,1.83-12,15.77-22.06,14.66-3.26-.36-2.06-18.25-2.06-18.25l-.21-1.35-3-18.77,25.89-14.23S526.56,276.46,524.28,279.58Z" transform="translate(-63.11 -34.93)" style="fill: rgb(255, 196, 192);"></path><path d="M523.75,251.08a64.86,64.86,0,0,1-2.46,6.4C515,271.66,506,275,500.08,275.54l-.13-.9-3-18.78,25.89-14.22S523.29,245.65,523.75,251.08Z" transform="translate(-63.11 -34.93)" style="fill:#263238"></path><path d="M478.62,217c-15.41,30.73,1.26,43.43,7.89,46.75,6,3,26.89,12.49,45.39-16.49s9.09-45.85-4.31-53.46S494,186.3,478.62,217Z" transform="translate(-63.11 -34.93)" style="fill: rgb(255, 196, 192);"></path><path d="M489.31,215.11a21.78,21.78,0,0,0,2.4.51,4,4,0,0,0,2.54.06,1.26,1.26,0,0,0,.62-1.41,3.12,3.12,0,0,0-2.52-1.92,4.62,4.62,0,0,0-3.29.31A1.35,1.35,0,0,0,489.31,215.11Z" transform="translate(-63.11 -34.93)" style="fill:#263238"></path><path d="M511.1,224.83a23.24,23.24,0,0,1-2-1.44c-.76-.56-1.42-.92-1.75-1.85a1.27,1.27,0,0,1,.63-1.4,3.14,3.14,0,0,1,3.12.58,4.6,4.6,0,0,1,2,2.66A1.35,1.35,0,0,1,511.1,224.83Z" transform="translate(-63.11 -34.93)" style="fill:#263238"></path><path d="M506.44,228.31c3.64,1.4.58,8.57-2.79,7.27S503.39,227.14,506.44,228.31Z" transform="translate(-63.11 -34.93)" style="fill:#263238"></path><path d="M507.69,229.29c.45.67.76,1.65,1.48,2.05s1.82,0,2.7-.49c.09,0,.12,0,.08.13-.56,1.38-1.69,2.57-3.25,2.15s-1.87-2-1.62-3.55C507.12,229.3,507.5,229,507.69,229.29Z" transform="translate(-63.11 -34.93)" style="fill:#263238"></path><path d="M489.94,220.6c-3.47-1.76-6.75,5.31-3.53,7S492.85,222.09,489.94,220.6Z" transform="translate(-63.11 -34.93)" style="fill:#263238"></path><path d="M488.25,220.39c-.73.11-1.6.54-2.29.27s-1-1.34-1.17-2.3c0-.1-.1-.07-.14,0-.67,1.33-.87,3,.31,3.81s2.48,0,3.42-1.17C488.56,220.81,488.55,220.34,488.25,220.39Z" transform="translate(-63.11 -34.93)" style="fill:#263238"></path><path d="M494.77,246.4a3.71,3.71,0,0,1-2.4.61,6.12,6.12,0,0,1-2.22-1.47.08.08,0,0,0-.14.08,3.25,3.25,0,0,0,2.41,2.3,2.59,2.59,0,0,0,2.53-1.34C495,246.46,494.87,246.35,494.77,246.4Z" transform="translate(-63.11 -34.93)" style="fill:#263238"></path><path d="M489,234.34s-1.91,3.1-2.59,4.66c-.07.14.28.38.8.64,0,0,0,0,.06,0a8.07,8.07,0,0,0,8.4.4c.18-.1.05-.35-.14-.32a12.1,12.1,0,0,1-7.61-1c.08-.47,3.47-5.26,3.21-5.32-1.11-.28-3.14-.63-3.89-.76,1.2-2,4.87-7.67,7-11.39.14-.24-.2-.48-.36-.28a113.52,113.52,0,0,0-8.86,12.3C484.89,233.6,488.3,234.33,489,234.34Z" transform="translate(-63.11 -34.93)" style="fill:#263238"></path><path d="M487.9,238.5a9.85,9.85,0,0,0,1.87,4.65,4.41,4.41,0,0,0,2.25,1.51c2,.55,2.89-1,3.36-2.49a10.37,10.37,0,0,0,.43-2.47A12.78,12.78,0,0,1,487.9,238.5Z" transform="translate(-63.11 -34.93)" style="fill:#263238"></path><path d="M489.77,243.15a4.41,4.41,0,0,0,2.25,1.51c2,.55,2.89-1,3.36-2.49C493.46,241.3,491,241.48,489.77,243.15Z" transform="translate(-63.11 -34.93)" style="fill:#ff9bbc"></path><g style="opacity:0.1"><path d="M516.29,244.47a.53.53,0,1,0,.67-.34A.53.53,0,0,0,516.29,244.47Z" transform="translate(-63.11 -34.93)"></path><path d="M508.24,240.28a.53.53,0,1,0,1,.33.53.53,0,0,0-1-.33Z" transform="translate(-63.11 -34.93)"></path><path d="M502.47,238.2a.53.53,0,1,0,.66-.34A.53.53,0,0,0,502.47,238.2Z" transform="translate(-63.11 -34.93)"></path><path d="M498.65,241.48a.53.53,0,0,0,1,.33.53.53,0,0,0-1-.33Z" transform="translate(-63.11 -34.93)"></path><path d="M510.73,246.62a.54.54,0,0,0,.34.67.53.53,0,0,0,.33-1A.54.54,0,0,0,510.73,246.62Z" transform="translate(-63.11 -34.93)"></path><path d="M504,245a.53.53,0,0,0,.33.67.53.53,0,0,0,.33-1A.52.52,0,0,0,504,245Z" transform="translate(-63.11 -34.93)"></path><path d="M513.71,239.27a.53.53,0,0,0,.33.67.53.53,0,0,0,.67-.34.52.52,0,0,0-.34-.66A.52.52,0,0,0,513.71,239.27Z" transform="translate(-63.11 -34.93)"></path><path d="M484,231.54a.54.54,0,0,0,.33.67.53.53,0,0,0,.33-1A.52.52,0,0,0,484,231.54Z" transform="translate(-63.11 -34.93)"></path><path d="M477.59,226.63a.53.53,0,0,0,.33.66.53.53,0,1,0,.33-1A.52.52,0,0,0,477.59,226.63Z" transform="translate(-63.11 -34.93)"></path><path d="M476.53,223.36a.53.53,0,1,0,1,.33.53.53,0,0,0-.33-.66A.53.53,0,0,0,476.53,223.36Z" transform="translate(-63.11 -34.93)"></path><path d="M478.2,231.37a.54.54,0,0,0,.33.67.53.53,0,1,0,.33-1A.52.52,0,0,0,478.2,231.37Z" transform="translate(-63.11 -34.93)"></path><path d="M475,229.16a.53.53,0,0,0,.33.67.53.53,0,0,0,.67-.34.52.52,0,0,0-.34-.66A.52.52,0,0,0,475,229.16Z" transform="translate(-63.11 -34.93)"></path><path d="M483,227.29a.53.53,0,0,0,.34.67.53.53,0,0,0,.33-1A.53.53,0,0,0,483,227.29Z" transform="translate(-63.11 -34.93)"></path></g><path d="M529.4,248.59c-5.33-2-1.56-13.28-1.56-13.28s-10.46-4.76-7-21.36a25.5,25.5,0,0,0-1.08,14.54s-17.51-10.41-18.19-29.37c0,0-.51,9.26,1.11,13.39,0,0-6.74-5.7-7.63-13.7,0,0-7.3,7.41-10.91,8.73,0,0,15.55-31.87,43.82-14.74,0,0,18.12,9.82,18,27.69S529.4,248.59,529.4,248.59Z" transform="translate(-63.11 -34.93)" style="fill:#263238"></path><polygon points="460.5 199.56 471.56 197.11 471.98 200.09 460.78 201.23 460.5 199.56" style="fill:#FFC727"></polygon><polygon points="460.67 202.45 471.99 202.01 471.87 205.02 460.64 204.15 460.67 202.45" style="fill:#FFC727"></polygon><path d="M525.56,244.71s11.28-7.43,14.93-3-7.69,17.18-14,17a6,6,0,0,1-6.28-6Z" transform="translate(-63.11 -34.93)" style="fill: rgb(255, 196, 192);"></path><path d="M537.15,245.28c.09,0,.06.15,0,.15-4.46,0-7.9,2.79-10.79,5.92,1.71-1,3.58-1.12,4.94,1,.07.11-.09.23-.18.17a3.69,3.69,0,0,0-4.25-.31,17.94,17.94,0,0,0-3,2.34c-.32.27-.87-.16-.58-.5l.07-.08C525.16,249,531.69,243.68,537.15,245.28Z" transform="translate(-63.11 -34.93)" style="fill:#263238"></path><path d="M533.29,281.92c1.44-1.58-7.12-6.88-9.51-5.16s-15.38,29.75-13.16,61,65.76,65.59,68.26,61.07c1-1.91.1-7.41-1.32-9.22-2-2.56-48.68-29.58-52.13-49C522.37,323.24,529.6,286,533.29,281.92Z" transform="translate(-63.11 -34.93)" style="fill:#455a64"></path><path d="M545.48,306.94c13-11.85,71.74-116.93,69-131.51-1.13-6-52.86-21.45-54.59-15.19-1.88,6.81-23,107.51-29,132.24C527,308.89,535.25,316.24,545.48,306.94Z" transform="translate(-63.11 -34.93)" style="fill: rgb(255, 196, 192);"></path><path d="M602.87,198.32c9.73-6.25,37.13-35.34,41.24-42.27s14.53-27.73,9.54-31.43-8.52,2.16-8.52,2.16,3.43-10.33-2.36-12.74c-4.62-1.92-10,6-10,6s3.17-11.52-2.88-13.17c-5.52-1.51-9.18,8.55-9.18,8.55s1.68-9.9-3.91-10.33c-6.73-.52-9.63,16.63-14.75,23.94-1.16,1.66-36.67,34.4-36.67,34.4Z" transform="translate(-63.11 -34.93)" style="fill: rgb(255, 196, 192);"></path><path d="M620.36,115c-3.49,12.62-5.3,17.74-13.73,27.1-.16.18.07.46.26.29C616,134,618.56,128.1,621,115.11,621.09,114.49,620.52,114.45,620.36,115Z" transform="translate(-63.11 -34.93)" style="fill:#263238"></path><path d="M632.62,120.1c-3.4,12.89-6.92,18.23-15,28.68-.12.15.12.36.25.22,8.81-9.58,13.52-15.56,15.22-28.89C633.13,119.51,632.77,119.51,632.62,120.1Z" transform="translate(-63.11 -34.93)" style="fill:#263238"></path><path d="M644.72,127.3c-4.18,12.24-7.59,18.55-16.76,27.68a.24.24,0,0,0,.32.35c10.26-8.4,14.56-16.23,16.8-27.86C645.24,126.67,645,126.53,644.72,127.3Z" transform="translate(-63.11 -34.93)" style="fill:#263238"></path><path d="M558.45,169.16s.84-18.07,15.84-27.73c6.06-3.9,11.27-25.32,17.4-26.16,6.89-1,5.64,17.72-.67,28.92,0,0,14.6,15.25,9.05,26.3-1.2,2.39-11.7,11.34-14.77,11.35Z" transform="translate(-63.11 -34.93)" style="fill: rgb(255, 196, 192);"></path><path d="M590.78,145.56c5.9,5.73,11.14,15.23,9.42,23.25a.19.19,0,0,0,.36.11c3-8.35-2.95-19.4-8.53-24.2C591,143.79,589.26,144.07,590.78,145.56Z" transform="translate(-63.11 -34.93)" style="fill:#263238"></path><path d="M587.61,259,538,253.57s-9.37,30.34-10,49.79c-.49,14.84,7.8,16.22,15.09,9.59C567.4,290.84,587.61,259,587.61,259Z" transform="translate(-63.11 -34.93)" style="fill:#FFC727"></path><path d="M545.12,254.82a2.94,2.94,0,1,1-5.87,0,2.88,2.88,0,0,1,.22-1.1l5.61.6A4,4,0,0,1,545.12,254.82Zm22.82,2a3,3,0,0,0,2.16.95,2.85,2.85,0,0,0,1.68-.53Zm-25.75,37.61a2.94,2.94,0,1,0,2.93,2.94A2.94,2.94,0,0,0,542.19,294.42Zm13.95-21.08a2.94,2.94,0,1,0,2.94,2.94A2.94,2.94,0,0,0,556.14,273.34Z" transform="translate(-63.11 -34.93)" style="fill:#fff"></path><path d="M538.89,261.81c7.57,1.37,28.22,4.49,41.91,4.77.08,0,.13-.31.05-.32-11.36-1.95-34.24-4.21-41.9-4.92C538.81,261.33,538.74,261.78,538.89,261.81Z" transform="translate(-63.11 -34.93)" style="fill:#263238"></path><path d="M549.61,306.72a35.49,35.49,0,0,1-7.37,9.46,35.09,35.09,0,0,1,7.37-9.46Z" transform="translate(-63.11 -34.93)" style="fill:#263238"></path><path d="M545.58,314.87a8.2,8.2,0,0,1,1.38-4.76,8.08,8.08,0,0,1-1.38,4.76Z" transform="translate(-63.11 -34.93)" style="fill:#263238"></path></g><g id="freepik--character-1--inject-114"><rect x="68.06" y="325.77" width="115.41" height="60.59" style="fill:#FFC727"></rect><rect x="68.06" y="325.77" width="115.41" height="60.59" style="opacity:0.5"></rect><rect x="123.81" y="360.71" width="7.36" height="60.59" transform="translate(191.86 747.07) rotate(180)" style="fill:#FFC727"></rect><rect x="123.81" y="360.71" width="7.36" height="60.59" transform="translate(191.86 747.07) rotate(180)" style="opacity:0.7000000000000001"></rect><rect x="78.78" y="386.36" width="11.42" height="36.45" style="fill:#c7c7c7"></rect><rect x="161.32" y="386.36" width="11.42" height="36.45" style="fill:#c7c7c7"></rect><path d="M150.69,401.81a3.1,3.1,0,1,1-3.09-3.1A3.09,3.09,0,0,1,150.69,401.81Z" transform="translate(-63.11 -34.93)" style="fill:#fff"></path><path d="M233.24,401.81a3.1,3.1,0,1,1-3.1-3.1A3.09,3.09,0,0,1,233.24,401.81Z" transform="translate(-63.11 -34.93)" style="fill:#fff"></path><path d="M236,360.4c14.28-10.34,76.37-100.59,75.24-115.39-.46-6.06-42.47-32.63-44.88-26.6-2.62,6.56-34.2,100.3-44.82,128.07C215.51,362.25,224.81,368.51,236,360.4Z" transform="translate(-63.11 -34.93)" style="fill: rgb(119, 68, 66);"></path><path d="M305.92,260.08c10.21-5.53,39.83-32.61,44.48-39.24s16.62-26.69,11.9-30.76-8.7,1.51-8.7,1.51,4.22-10.08-1.4-12.93c-4.48-2.27-10.5,5.3-10.5,5.3s4-11.3-1.89-13.41c-5.41-1.92-9.83,7.88-9.83,7.88s2.42-9.8-3.15-10.65c-6.7-1-10.89,15.93-16.57,22.87C309,192.23,271,222.36,271,222.36Z" transform="translate(-63.11 -34.93)" style="fill: rgb(119, 68, 66);"></path><path d="M329.68,178c-4.44,12.38-6.64,17.37-15.78,26.11-.18.17,0,.47.24.31,9.73-7.74,12.76-13.48,16.15-26.3C330.45,177.48,329.88,177.41,329.68,178Z" transform="translate(-63.11 -34.93)" style="fill:#263238"></path><path d="M341.58,184c-4.37,12.66-8.3,17.74-17.2,27.59-.13.14.09.37.23.24,9.54-8.94,14.71-14.57,17.41-27.79C342.14,183.41,341.78,183.39,341.58,184Z" transform="translate(-63.11 -34.93)" style="fill:#263238"></path><path d="M353.16,192.09c-5.11,11.94-9,18-18.86,26.46a.24.24,0,0,0,.29.38c10.9-7.65,15.8-15.17,18.92-26.65C353.72,191.5,353.48,191.33,353.16,192.09Z" transform="translate(-63.11 -34.93)" style="fill:#263238"></path><path d="M263.62,227.54s2.2-18,17.95-26.59c6.36-3.45,13.18-24.51,19.39-24.89,7-.44,4.31,18.17-2.85,28.91,0,0,13.48,16.37,7.09,27-1.38,2.31-12.56,10.48-15.64,10.26Z" transform="translate(-63.11 -34.93)" style="fill: rgb(119, 68, 66);"></path><path d="M297.77,206.33c5.47,6.18,10,16.08,7.68,24a.19.19,0,0,0,.36.14c3.64-8.14-1.5-19.64-6.73-24.87C298.08,204.57,296.35,204.72,297.77,206.33Z" transform="translate(-63.11 -34.93)" style="fill:#263238"></path><path d="M236,360.41c3.52-2.55,10.54-10.2,19.1-20.51l-6.61-69.85c-9.27,26.93-19.83,57.41-25.74,73.25q-1.59,5.4-3,9.89C218.48,363.86,226.57,367.23,236,360.41Z" transform="translate(-63.11 -34.93)" style="opacity:0.1"></path><path d="M238,288.85l32.23,38s-19.89,24.77-35.64,36.19c-12,8.72-17.8,2.63-16.39-7.12C222.93,323.45,238,288.85,238,288.85Z" transform="translate(-63.11 -34.93)" style="fill:#455a64"></path><path d="M255.83,343.43c-3.09,3.31-6.45,6.76-9.88,10L224.06,329c1.54-5.57,3.19-10.88,4.79-15.7Z" transform="translate(-63.11 -34.93)" style="fill:#37474f"></path><path d="M265.22,332.92c-1.28,1.51-2.78,3.22-4.43,5.07L231.6,305.36c.94-2.62,1.83-5,2.63-7.09Z" transform="translate(-63.11 -34.93)" style="fill:#37474f"></path><path d="M263,330.8c-5.38-5.5-19.54-20.86-27.43-32-.05-.07.18-.28.24-.22,8,8.31,22.66,26,27.54,31.95C263.4,330.6,263.06,330.91,263,330.8Z" transform="translate(-63.11 -34.93)" style="fill:#263238"></path><path d="M234.62,363.09c1.93-1.4,3.91-3,5.91-4.72l-19.44-17.63c-1.14,5-2.12,10.14-2.86,15.21C216.82,365.71,222.6,371.8,234.62,363.09Z" transform="translate(-63.11 -34.93)" style="opacity:0.1"></path><path d="M154.72,457.6H263.33c1.5-1.12-11.9-81.75-38.54-112.24-6.35-7.26-29.18-10-35.42,3.27C169.35,391.24,160,444.7,154.72,457.6Z" transform="translate(-63.11 -34.93)" style="fill:#455a64"></path><path d="M260.11,435.64H160.94c1.1-4.3,2.3-9,3.61-14.06h92.39C258.17,426.6,259.22,431.34,260.11,435.64Z" transform="translate(-63.11 -34.93)" style="fill:#37474f"></path><path d="M262.65,449.64H157.27c.56-2,1.16-4.23,1.8-6.68H261.53C262,445.45,262.35,447.71,262.65,449.64Z" transform="translate(-63.11 -34.93)" style="fill:#37474f"></path><path d="M200,344c.86,1.75,12.46,11.73,20.82,9.38,2.73-.77-.81-15.82-.81-15.82v-1.17L219.92,320l-24-8.47S199.66,343.23,200,344Z" transform="translate(-63.11 -34.93)" style="fill: rgb(119, 68, 66);"></path><path d="M219.92,320l.1,16.38v1.18s.64,2.73,1.17,5.92c-11.92.94-19.2-6.5-22.88-11.95-1.14-9.15-2.42-20-2.42-20Z" transform="translate(-63.11 -34.93)" style="fill:#263238"></path><path d="M232.08,284c18.35,29.94,2.49,44.31-4,48.26-5.86,3.59-26.29,15-47.63-12.83s-13.23-45.88-.25-54.79S213.74,254.09,232.08,284Z" transform="translate(-63.11 -34.93)" style="fill: rgb(119, 68, 66);"></path><path d="M226.51,309.15a8.87,8.87,0,0,1-1.84,4.11,4,4,0,0,1-2.07,1.27c-1.76.42-2.56-1-2.92-2.35a9.77,9.77,0,0,1-.3-2.23A11.48,11.48,0,0,0,226.51,309.15Z" transform="translate(-63.11 -34.93)" style="fill:#fff"></path><path d="M225.87,311.34c-.06.13-.12.28-.19.42a7.45,7.45,0,0,1-1.69.34C224.63,311.86,225.26,311.6,225.87,311.34Z" transform="translate(-63.11 -34.93)" style="fill:#dbdbdb"></path><path d="M222.19,312.36a5.85,5.85,0,0,1-1.32.13,6.36,6.36,0,0,1-1.14-.15.66.66,0,0,0,0-.15,2.1,2.1,0,0,0-.06-.24A21.19,21.19,0,0,0,222.19,312.36Z" transform="translate(-63.11 -34.93)" style="fill:#dbdbdb"></path><path d="M224.72,284.05a23.68,23.68,0,0,1-2.33.65,4,4,0,0,1-2.51.21,1.26,1.26,0,0,1-.71-1.35,3.12,3.12,0,0,1,2.38-2.06,4.58,4.58,0,0,1,3.28.11A1.34,1.34,0,0,1,224.72,284.05Z" transform="translate(-63.11 -34.93)" style="fill:#263238"></path><path d="M203.55,296.67c.68-.47,1.24-1,1.87-1.54a3.92,3.92,0,0,0,1.61-1.94,1.24,1.24,0,0,0-.7-1.35,3.11,3.11,0,0,0-3.05.77,4.55,4.55,0,0,0-1.79,2.75A1.34,1.34,0,0,0,203.55,296.67Z" transform="translate(-63.11 -34.93)" style="fill:#263238"></path><path d="M220.16,317.23a3.61,3.61,0,0,0,2.41.46,6.26,6.26,0,0,0,2.1-1.59.09.09,0,0,1,.15.07,3.25,3.25,0,0,1-2.25,2.42,2.55,2.55,0,0,1-2.58-1.17C219.9,317.31,220.05,317.19,220.16,317.23Z" transform="translate(-63.11 -34.93)" style="fill:#263238"></path><path d="M225.28,303.7s2.07,2.95,2.85,4.45c.07.14-.26.39-.75.68,0,0,0,0-.06,0a8,8,0,0,1-8.28.91.17.17,0,0,1,.11-.32,12.07,12.07,0,0,0,7.46-1.49c-.11-.47-3.75-5-3.49-5.07,1.08-.35,3.06-.81,3.79-1-1.3-2-5.28-7.29-7.65-10.84-.14-.22.18-.48.35-.3a114.85,114.85,0,0,1,9.5,11.62C229.34,302.72,226,303.65,225.28,303.7Z" transform="translate(-63.11 -34.93)" style="fill:#263238"></path><path d="M207.31,302.63a3.56,3.56,0,0,1-.07-1.9,2.57,2.57,0,0,1,1.31-1.58,2.31,2.31,0,0,1,2.08,0,4.15,4.15,0,0,1,1.39,1.26,6.76,6.76,0,0,1,.56,1,4.9,4.9,0,0,1,.55,2.26,7.58,7.58,0,0,0-.82-1.48,10.26,10.26,0,0,0-1-1.19c-.72-.75-1.61-1.24-2.3-.84a2,2,0,0,0-.87,2.28,16.7,16.7,0,0,0,.85,3.14A7.37,7.37,0,0,1,207.31,302.63Z" transform="translate(-63.11 -34.93)" style="fill:#263238"></path><path d="M228.21,290.51a3.64,3.64,0,0,0-1.53-1.12,2.62,2.62,0,0,0-2.05.2,2.32,2.32,0,0,0-1.13,1.75,4,4,0,0,0,.27,1.85,7.36,7.36,0,0,0,.49,1,5.06,5.06,0,0,0,1.56,1.72,7.92,7.92,0,0,1-.76-1.51,9.43,9.43,0,0,1-.44-1.47c-.22-1-.13-2,.59-2.38a2,2,0,0,1,2.37.56,17.2,17.2,0,0,1,2.13,2.46A7.26,7.26,0,0,0,228.21,290.51Z" transform="translate(-63.11 -34.93)" style="fill:#263238"></path><path d="M179.79,321.88c9.47-3.31,9.56-16.33,3.61-24.23,0,0,25.84-7.26,18.58-27.39a21,21,0,0,0,19.68,2l6.27,5.58c2.19-1.8,1.37-9.6-7.16-12.55,0,0-4.63-9.6-14.37-12.38a14.55,14.55,0,0,0-15.24,4.17,22,22,0,0,0-16.3,2.7c-8.51,5-8.69,14.83-8.69,14.83s-11.12,7.52-9.48,17A19.41,19.41,0,0,0,165.25,305s-1.59,4.68,3.11,11.36C171.38,320.6,176.94,322.87,179.79,321.88Z" transform="translate(-63.11 -34.93)" style="fill:#263238"></path><path d="M200.69,268.75a25.7,25.7,0,0,1,2.12,4.77,21.3,21.3,0,0,1,1.1,5,13.45,13.45,0,0,1-2.63,9.48c-1.91,2.83-5.06,4.49-8,6.14-1.61.63-3.18,1.38-4.83,1.93s-3.34,1-5,1.57c1.73-.29,3.45-.66,5.18-1s3.36-1.1,5-1.65c3.18-1.52,6.47-3.25,8.64-6.26a14.08,14.08,0,0,0,2.59-10.32A21.19,21.19,0,0,0,200.69,268.75Z" transform="translate(-63.11 -34.93)" style="fill:#263238"></path><path d="M166.17,274.59a24.74,24.74,0,0,0-8.17,5.83,14.74,14.74,0,0,0-4.1,9.29,16.45,16.45,0,0,0,.81,5.1,15.11,15.11,0,0,0,2.26,4.61,13.76,13.76,0,0,0,8.28,5.53,15.16,15.16,0,0,1-7.5-6.07,16.84,16.84,0,0,1-2.62-9.13,12.55,12.55,0,0,1,1-4.62,19.6,19.6,0,0,1,2.56-4.09A31.25,31.25,0,0,1,166.17,274.59Z" transform="translate(-63.11 -34.93)" style="fill:#263238"></path><path d="M191.16,257.06a25.53,25.53,0,0,1,6.59-4.48,15.28,15.28,0,0,1,7.55-1.43,15.44,15.44,0,0,1,7.2,2.71,27.11,27.11,0,0,1,5.81,5.47,20.14,20.14,0,0,0-5.25-6.24,13.69,13.69,0,0,0-15.73-1.35A19,19,0,0,0,191.16,257.06Z" transform="translate(-63.11 -34.93)" style="fill:#263238"></path><path d="M218.17,274.68a28,28,0,0,1-9.13-.81,16.51,16.51,0,0,1-4.15-1.76,20.58,20.58,0,0,1-3.65-2.83,11.5,11.5,0,0,0,3.12,3.62,12.43,12.43,0,0,0,4.34,2.15,15.32,15.32,0,0,0,4.8.55A14.52,14.52,0,0,0,218.17,274.68Z" transform="translate(-63.11 -34.93)" style="fill:#263238"></path><path d="M187.86,318.73s-11.75-6.38-15-1.71,9,16.31,15.22,15.64a5.94,5.94,0,0,0,5.69-6.41Z" transform="translate(-63.11 -34.93)" style="fill: rgb(119, 68, 66);"></path><path d="M176.47,320.27c-.08,0,0,.16.05.15,4.4-.34,8,2.09,11.13,4.94-1.76-.81-3.62-.82-4.79,1.39-.06.11.11.22.2.14a3.65,3.65,0,0,1,4.17-.65,17.17,17.17,0,0,1,3.17,2.05c.34.24.84-.23.53-.55l-.07-.07C188.62,323,181.72,318.24,176.47,320.27Z" transform="translate(-63.11 -34.93)" style="fill:#263238"></path><path d="M189.93,365.65c-7.27-3.75-39.3-35.26-46.74-44-4.87-5.7-26.78-61.93-27.37-69.87-.44-6.06,47.06-19.57,50.34-14,2,3.4,4.49,49.57,7.45,55.22,12.16,23.22,22.08,45.26,28.54,56.67C210.47,364.42,202.21,372,189.93,365.65Z" transform="translate(-63.11 -34.93)" style="fill: rgb(119, 68, 66);"></path><path d="M119.93,265.87C110.56,259,84.83,228.21,81.12,221s-12.89-28.67-7.67-32.08,8.41,2.68,8.41,2.68S79,181,85,179c4.75-1.65,9.69,6.66,9.69,6.66s-2.48-11.74,3.68-13c5.62-1.18,8.68,9.13,8.68,9.13s-1.08-10,4.55-10.13c6.77-.11,8.66,17.25,13.35,24.89,1.07,1.73,34.69,36.69,34.69,36.69Z" transform="translate(-63.11 -34.93)" style="fill: rgb(119, 68, 66);"></path><path d="M107.4,181.33c2.74,12.86,4.24,18.1,12.13,28,.16.19-.1.47-.28.28-8.6-9-10.84-15.07-12.47-28.23C106.7,180.73,107.27,180.73,107.4,181.33Z" transform="translate(-63.11 -34.93)" style="fill:#263238"></path><path d="M94.81,185.66c2.63,13.13,5.84,18.7,13.34,29.65.11.16-.15.35-.27.21-8.25-10.14-12.61-16.41-13.52-29.88C94.32,185,94.69,185.06,94.81,185.66Z" transform="translate(-63.11 -34.93)" style="fill:#263238"></path><path d="M82.24,192.15c3.46,12.53,6.49,19,15.14,28.75a.24.24,0,0,1-.34.34c-9.78-9-13.62-17.14-15.17-28.94C81.76,191.49,82,191.36,82.24,192.15Z" transform="translate(-63.11 -34.93)" style="fill:#263238"></path><path d="M166.22,239.3s.23-18.18-14.22-28.76c-5.85-4.27-9.78-26-15.88-27.27-6.85-1.36-6.71,17.43-1.06,29,0,0-15.55,14.41-10.65,25.82,1.06,2.47,11.05,12.07,14.12,12.26Z" transform="translate(-63.11 -34.93)" style="fill: rgb(119, 68, 66);"></path><path d="M135.22,213.69c-6.25,5.4-12.08,14.6-10.83,22.74a.19.19,0,0,1-.37.09c-2.52-8.55,4.12-19.26,10-23.74C135.15,211.91,136.84,212.3,135.22,213.69Z" transform="translate(-63.11 -34.93)" style="fill:#263238"></path><path d="M177.25,295.21l-26.19,42.42s23.36,21.52,40.64,30.47c13.18,6.83,18-.06,15.15-9.49C197.35,327.16,177.25,295.21,177.25,295.21Z" transform="translate(-63.11 -34.93)" style="fill:#455a64"></path><path d="M196.22,331l-17.37,29.17c-3.9-2.73-7.76-5.66-11.3-8.48l21.32-35.8C191.22,320.39,193.75,325.5,196.22,331Z" transform="translate(-63.11 -34.93)" style="fill:#37474f"></path><path d="M184.83,308.29,161.8,347c-1.93-1.61-3.68-3.1-5.17-4.39l24.42-41C182.14,303.46,183.42,305.72,184.83,308.29Z" transform="translate(-63.11 -34.93)" style="fill:#37474f"></path><path d="M158.57,340c4.41-6.31,15.87-23.77,21.84-36.09,0-.08-.23-.25-.27-.18-6.52,9.5-18.12,29.35-22,36C158.1,339.89,158.48,340.13,158.57,340Z" transform="translate(-63.11 -34.93)" style="fill:#263238"></path><path d="M183.15,363a73.78,73.78,0,0,1,12,6.91,34.26,34.26,0,0,1-12-6.91Z" transform="translate(-63.11 -34.93)" style="fill:#263238"></path><path d="M188.76,366.49a10.26,10.26,0,0,1,3.5,3.46,4.54,4.54,0,0,1-3.5-3.46Z" transform="translate(-63.11 -34.93)" style="fill:#263238"></path><path d="M200.32,340.44a45.7,45.7,0,0,1,4.82,12.84,46.24,46.24,0,0,1-4.82-12.84Z" transform="translate(-63.11 -34.93)" style="fill:#263238"></path><path d="M203.06,347.74a5.14,5.14,0,0,1,2.45,4,6.39,6.39,0,0,1-2.45-4Z" transform="translate(-63.11 -34.93)" style="fill:#263238"></path></g><g id="freepik--Backpack--inject-114"><path d="M391.84,443.09c-1.15,7.62-2.56,13.92-3.93,15H286c-2.7-2-5.56-24.58-6.32-37.21a55.15,55.15,0,0,1-.1-7.46,10.6,10.6,0,0,1,.9-3.32h0a13,13,0,0,1,5.8-5.93s-3-60.16,10.42-72.42,36.79-11.57,40.25-11.57,26.85-.7,40.26,11.57,10.41,72.42,10.41,72.42,6,2.77,6.72,9.25C394.76,417.25,393.59,431.66,391.84,443.09Z" transform="translate(-63.11 -34.93)" style="fill:#FFC727"></path><path d="M286.29,404.11s3.31-58.47,12-66.4c16.73-15.22,62-11.8,73.11-4.16s11.34,36.1,16.19,70.56Z" transform="translate(-63.11 -34.93)" style="fill:#263238"></path><polygon points="223.63 281.96 276.51 268.37 293.03 333.02 240.14 346.55 223.63 281.96" style="fill:#263238"></polygon><path d="M290.06,318.85c.19.53-.65.74-.84.22-.28-.8-1.25-.86-2.07-.63a2.83,2.83,0,0,0-1,.51c-.51.44-.72,1.11-.07,1.53a2.27,2.27,0,0,0,1.66.14l.21.84a2.83,2.83,0,0,1-2.79-.64,1.65,1.65,0,0,1,.05-2.14,3.31,3.31,0,0,1,1.75-1.09C288.19,317.26,289.61,317.56,290.06,318.85Z" transform="translate(-63.11 -34.93)" style="fill:#a6a6a6"></path><path d="M291,322.38c.18.53-.66.74-.85.22-.28-.8-1.24-.86-2.07-.63a2.83,2.83,0,0,0-1,.51c-.51.45-.72,1.11-.07,1.53a2.27,2.27,0,0,0,1.66.14l.21.84a2.86,2.86,0,0,1-2.79-.63,1.67,1.67,0,0,1,.05-2.15,3.31,3.31,0,0,1,1.75-1.09C289.09,320.8,290.51,321.09,291,322.38Z" transform="translate(-63.11 -34.93)" style="fill:#a6a6a6"></path><path d="M291.87,325.91c.18.53-.66.74-.84.22-.29-.8-1.25-.85-2.08-.63a2.91,2.91,0,0,0-1,.51c-.51.45-.71,1.11-.06,1.53a2.24,2.24,0,0,0,1.65.14l.21.84a2.84,2.84,0,0,1-2.79-.63,1.67,1.67,0,0,1,.05-2.15,3.3,3.3,0,0,1,1.76-1.09A2.47,2.47,0,0,1,291.87,325.91Z" transform="translate(-63.11 -34.93)" style="fill:#a6a6a6"></path><path d="M292.77,329.44c.18.53-.66.74-.84.22-.29-.8-1.25-.85-2.07-.63a2.81,2.81,0,0,0-1,.52c-.5.44-.71,1.1-.06,1.52a2.25,2.25,0,0,0,1.65.14l.22.84a2.83,2.83,0,0,1-2.79-.63,1.66,1.66,0,0,1,0-2.15,3.3,3.3,0,0,1,1.76-1.09A2.47,2.47,0,0,1,292.77,329.44Z" transform="translate(-63.11 -34.93)" style="fill:#a6a6a6"></path><path d="M293.67,333c.19.53-.66.74-.84.22-.28-.8-1.25-.85-2.07-.63a2.81,2.81,0,0,0-1,.52c-.5.44-.71,1.1-.06,1.52a2.25,2.25,0,0,0,1.65.14l.22.84a2.83,2.83,0,0,1-2.79-.63,1.68,1.68,0,0,1,0-2.15,3.38,3.38,0,0,1,1.76-1.09A2.47,2.47,0,0,1,293.67,333Z" transform="translate(-63.11 -34.93)" style="fill:#a6a6a6"></path><path d="M294.57,336.5c.19.53-.65.74-.84.22-.28-.79-1.25-.85-2.07-.62a2.55,2.55,0,0,0-1,.51c-.51.44-.72,1.1-.07,1.52a2.27,2.27,0,0,0,1.66.14l.21.84a2.83,2.83,0,0,1-2.79-.63,1.67,1.67,0,0,1,.05-2.15,3.31,3.31,0,0,1,1.75-1.09C292.7,334.92,294.12,335.22,294.57,336.5Z" transform="translate(-63.11 -34.93)" style="fill:#a6a6a6"></path><path d="M295.48,340c.18.52-.66.73-.85.21-.28-.79-1.24-.85-2.07-.62a2.55,2.55,0,0,0-1,.51c-.51.44-.72,1.1-.07,1.52a2.27,2.27,0,0,0,1.66.14l.21.84a2.83,2.83,0,0,1-2.79-.63,1.67,1.67,0,0,1,0-2.15,3.23,3.23,0,0,1,1.76-1.08A2.45,2.45,0,0,1,295.48,340Z" transform="translate(-63.11 -34.93)" style="fill:#a6a6a6"></path><path d="M296.38,343.57c.18.52-.66.73-.84.21-.29-.79-1.25-.85-2.08-.62a2.62,2.62,0,0,0-1,.51c-.51.44-.71,1.1-.06,1.52a2.24,2.24,0,0,0,1.65.14l.22.84a2.85,2.85,0,0,1-2.8-.63,1.68,1.68,0,0,1,.05-2.15,3.23,3.23,0,0,1,1.76-1.08A2.45,2.45,0,0,1,296.38,343.57Z" transform="translate(-63.11 -34.93)" style="fill:#a6a6a6"></path><path d="M297.28,347.1c.18.52-.66.73-.84.21-.29-.79-1.25-.85-2.07-.62a2.66,2.66,0,0,0-1,.51c-.5.44-.71,1.1-.06,1.52a2.25,2.25,0,0,0,1.65.14l.22.84a2.83,2.83,0,0,1-2.79-.63,1.67,1.67,0,0,1,0-2.15,3.29,3.29,0,0,1,1.76-1.08A2.45,2.45,0,0,1,297.28,347.1Z" transform="translate(-63.11 -34.93)" style="fill:#a6a6a6"></path><path d="M298.18,350.63c.19.52-.66.73-.84.21-.28-.79-1.25-.85-2.07-.62a2.68,2.68,0,0,0-1,.51c-.51.44-.72,1.1-.07,1.52a2.25,2.25,0,0,0,1.65.14l.22.84a2.83,2.83,0,0,1-2.79-.63,1.68,1.68,0,0,1,0-2.15,3.36,3.36,0,0,1,1.76-1.08A2.45,2.45,0,0,1,298.18,350.63Z" transform="translate(-63.11 -34.93)" style="fill:#a6a6a6"></path><path d="M299.08,354.16c.19.52-.65.74-.84.21-.28-.79-1.25-.85-2.07-.62a2.68,2.68,0,0,0-1,.51c-.51.44-.72,1.1-.07,1.52a2.27,2.27,0,0,0,1.66.14l.21.84a2.83,2.83,0,0,1-2.79-.63,1.67,1.67,0,0,1,.05-2.15A3.3,3.3,0,0,1,296,352.9C297.21,352.57,298.63,352.87,299.08,354.16Z" transform="translate(-63.11 -34.93)" style="fill:#a6a6a6"></path><path d="M300,357.69c.18.52-.66.74-.84.21-.29-.79-1.25-.85-2.08-.62a2.68,2.68,0,0,0-1,.51c-.51.44-.71,1.1-.07,1.53a2.32,2.32,0,0,0,1.66.13l.21.85a2.86,2.86,0,0,1-2.79-.64,1.65,1.65,0,0,1,.05-2.14,3.24,3.24,0,0,1,1.76-1.09A2.45,2.45,0,0,1,300,357.69Z" transform="translate(-63.11 -34.93)" style="fill:#a6a6a6"></path><path d="M300.89,361.22c.18.53-.66.74-.84.21-.29-.79-1.25-.85-2.08-.62a2.84,2.84,0,0,0-1,.51c-.51.44-.71,1.1-.06,1.53a2.34,2.34,0,0,0,1.65.14l.22.84a2.86,2.86,0,0,1-2.8-.64,1.66,1.66,0,0,1,.05-2.14,3.24,3.24,0,0,1,1.76-1.09A2.45,2.45,0,0,1,300.89,361.22Z" transform="translate(-63.11 -34.93)" style="fill:#a6a6a6"></path><path d="M301.79,364.75c.18.53-.66.74-.84.21-.29-.79-1.25-.85-2.07-.62a3,3,0,0,0-1,.51c-.5.44-.71,1.1-.06,1.53a2.3,2.3,0,0,0,1.65.14l.22.84a2.83,2.83,0,0,1-2.79-.64,1.66,1.66,0,0,1,0-2.14,3.24,3.24,0,0,1,1.76-1.09A2.45,2.45,0,0,1,301.79,364.75Z" transform="translate(-63.11 -34.93)" style="fill:#a6a6a6"></path><path d="M302.69,368.28c.19.53-.66.74-.84.22-.28-.8-1.25-.86-2.07-.63a2.83,2.83,0,0,0-1,.51c-.51.44-.72,1.11-.07,1.53a2.3,2.3,0,0,0,1.65.14l.22.84a2.83,2.83,0,0,1-2.79-.64,1.66,1.66,0,0,1,0-2.14,3.31,3.31,0,0,1,1.76-1.09A2.45,2.45,0,0,1,302.69,368.28Z" transform="translate(-63.11 -34.93)" style="fill:#a6a6a6"></path><path d="M303.59,371.81c.19.53-.65.74-.84.22-.28-.8-1.25-.86-2.07-.63a2.83,2.83,0,0,0-1,.51c-.51.44-.72,1.11-.07,1.53a2.32,2.32,0,0,0,1.66.14l.21.84a2.83,2.83,0,0,1-2.79-.64,1.65,1.65,0,0,1,0-2.14,3.25,3.25,0,0,1,1.75-1.09C301.72,370.22,303.14,370.52,303.59,371.81Z" transform="translate(-63.11 -34.93)" style="fill:#a6a6a6"></path><path d="M304.5,375.34c.18.53-.66.74-.84.22-.29-.8-1.25-.86-2.08-.63a2.91,2.91,0,0,0-1,.51c-.51.44-.71,1.11-.07,1.53a2.27,2.27,0,0,0,1.66.14l.21.84a2.84,2.84,0,0,1-2.79-.64,1.65,1.65,0,0,1,.05-2.14,3.3,3.3,0,0,1,1.76-1.09A2.45,2.45,0,0,1,304.5,375.34Z" transform="translate(-63.11 -34.93)" style="fill:#a6a6a6"></path><path d="M305.4,378.87c.18.53-.66.74-.84.22-.29-.8-1.25-.86-2.07-.63a3,3,0,0,0-1,.51c-.51.45-.71,1.11-.06,1.53a2.24,2.24,0,0,0,1.65.14l.22.84a2.85,2.85,0,0,1-2.8-.63,1.68,1.68,0,0,1,.05-2.15,3.3,3.3,0,0,1,1.76-1.09A2.47,2.47,0,0,1,305.4,378.87Z" transform="translate(-63.11 -34.93)" style="fill:#a6a6a6"></path><rect x="298.5" y="323.02" width="41.65" height="22.61" transform="translate(-135.93 54.52) rotate(-14.33)" style="fill:#fff"></rect><polygon points="273.23 282.23 325.6 297.65 306.66 361.64 254.32 346.15 273.23 282.23" style="fill:#455a64"></polygon><path d="M338.19,320.55c-.11.54-.94.29-.83-.25.16-.83-.64-1.37-1.46-1.6a2.78,2.78,0,0,0-1.15-.09c-.66.12-1.18.58-.84,1.28a2.29,2.29,0,0,0,1.35,1l-.25.84a2.86,2.86,0,0,1-2.07-2,1.68,1.68,0,0,1,1.14-1.82,3.32,3.32,0,0,1,2.07,0A2.46,2.46,0,0,1,338.19,320.55Z" transform="translate(-63.11 -34.93)" style="fill:#a6a6a6"></path><path d="M337.15,324c-.11.55-.94.3-.83-.25.16-.82-.63-1.37-1.46-1.59a2.79,2.79,0,0,0-1.15-.1c-.66.12-1.18.59-.83,1.28a2.23,2.23,0,0,0,1.35,1l-.25.83a2.82,2.82,0,0,1-2.07-2,1.65,1.65,0,0,1,1.14-1.82,3.28,3.28,0,0,1,2.06,0A2.45,2.45,0,0,1,337.15,324Z" transform="translate(-63.11 -34.93)" style="fill:#a6a6a6"></path><path d="M336.12,327.53c-.11.55-.94.3-.83-.24.16-.83-.64-1.37-1.46-1.6a2.77,2.77,0,0,0-1.15-.09c-.66.12-1.18.58-.84,1.28a2.29,2.29,0,0,0,1.35,1l-.25.83a2.83,2.83,0,0,1-2.07-2,1.68,1.68,0,0,1,1.14-1.82,3.25,3.25,0,0,1,2.07,0C335.32,325.21,336.39,326.19,336.12,327.53Z" transform="translate(-63.11 -34.93)" style="fill:#a6a6a6"></path><path d="M335.09,331c-.12.54-.95.29-.84-.25.17-.83-.63-1.37-1.46-1.6a2.94,2.94,0,0,0-1.15-.09c-.66.12-1.17.58-.83,1.28a2.27,2.27,0,0,0,1.35,1l-.25.83a2.84,2.84,0,0,1-2.07-2,1.66,1.66,0,0,1,1.14-1.82,3.36,3.36,0,0,1,2.06,0A2.46,2.46,0,0,1,335.09,331Z" transform="translate(-63.11 -34.93)" style="fill:#a6a6a6"></path><path d="M334.05,334.52c-.11.55-.94.3-.83-.24.16-.83-.64-1.38-1.46-1.6a2.77,2.77,0,0,0-1.15-.09c-.66.12-1.18.58-.84,1.27a2.26,2.26,0,0,0,1.35,1l-.24.83a2.83,2.83,0,0,1-2.08-2,1.67,1.67,0,0,1,1.14-1.82,3.25,3.25,0,0,1,2.07,0C333.25,332.2,334.32,333.18,334.05,334.52Z" transform="translate(-63.11 -34.93)" style="fill:#a6a6a6"></path><path d="M333,338c-.11.54-.94.29-.83-.25.16-.83-.64-1.37-1.46-1.6a2.78,2.78,0,0,0-1.15-.09c-.67.12-1.18.58-.84,1.28a2.3,2.3,0,0,0,1.35,1l-.25.83a2.86,2.86,0,0,1-2.07-2,1.67,1.67,0,0,1,1.14-1.82,3.29,3.29,0,0,1,2.06,0A2.46,2.46,0,0,1,333,338Z" transform="translate(-63.11 -34.93)" style="fill:#a6a6a6"></path><path d="M332,341.51c-.11.55-.94.3-.83-.25.16-.82-.64-1.37-1.46-1.59a2.61,2.61,0,0,0-1.15-.09c-.66.12-1.18.58-.84,1.27a2.26,2.26,0,0,0,1.35,1l-.24.83a2.82,2.82,0,0,1-2.07-2,1.65,1.65,0,0,1,1.13-1.82,3.32,3.32,0,0,1,2.07,0C331.18,339.19,332.25,340.17,332,341.51Z" transform="translate(-63.11 -34.93)" style="fill:#a6a6a6"></path><path d="M331,345c-.11.55-.94.3-.83-.24.16-.83-.64-1.37-1.46-1.6a2.78,2.78,0,0,0-1.15-.09c-.66.12-1.18.58-.84,1.28a2.29,2.29,0,0,0,1.35,1l-.25.84a2.86,2.86,0,0,1-2.07-2,1.68,1.68,0,0,1,1.14-1.82,3.32,3.32,0,0,1,2.07,0C330.15,342.68,331.22,343.66,331,345Z" transform="translate(-63.11 -34.93)" style="fill:#a6a6a6"></path><path d="M329.91,348.5c-.11.54-.94.3-.83-.25.16-.83-.63-1.37-1.46-1.6a3,3,0,0,0-1.15-.09c-.66.12-1.18.59-.83,1.28a2.23,2.23,0,0,0,1.35,1l-.25.83a2.82,2.82,0,0,1-2.07-2,1.65,1.65,0,0,1,1.14-1.82,3.28,3.28,0,0,1,2.06,0A2.44,2.44,0,0,1,329.91,348.5Z" transform="translate(-63.11 -34.93)" style="fill:#a6a6a6"></path><path d="M328.88,352c-.11.55-.94.3-.83-.24.16-.83-.64-1.38-1.46-1.6a2.77,2.77,0,0,0-1.15-.09c-.66.12-1.18.58-.84,1.27a2.26,2.26,0,0,0,1.35,1l-.25.83a2.83,2.83,0,0,1-2.07-2,1.67,1.67,0,0,1,1.14-1.82,3.25,3.25,0,0,1,2.07,0C328.08,349.67,329.15,350.65,328.88,352Z" transform="translate(-63.11 -34.93)" style="fill:#a6a6a6"></path><path d="M327.85,355.49c-.12.54-1,.29-.84-.25.17-.83-.63-1.37-1.46-1.6a2.94,2.94,0,0,0-1.15-.09c-.66.12-1.17.58-.83,1.28a2.3,2.3,0,0,0,1.35,1l-.25.83a2.84,2.84,0,0,1-2.07-2,1.66,1.66,0,0,1,1.14-1.82,3.29,3.29,0,0,1,2.06,0A2.46,2.46,0,0,1,327.85,355.49Z" transform="translate(-63.11 -34.93)" style="fill:#a6a6a6"></path><path d="M326.81,359c-.11.55-.94.3-.83-.24.16-.83-.64-1.38-1.46-1.6a2.61,2.61,0,0,0-1.15-.09c-.66.12-1.18.58-.84,1.27a2.26,2.26,0,0,0,1.35,1l-.24.83a2.83,2.83,0,0,1-2.08-2,1.67,1.67,0,0,1,1.14-1.82,3.25,3.25,0,0,1,2.07,0C326,356.66,327.08,357.64,326.81,359Z" transform="translate(-63.11 -34.93)" style="fill:#a6a6a6"></path><path d="M325.78,362.48c-.11.54-.94.29-.83-.25.16-.83-.64-1.37-1.46-1.6a2.78,2.78,0,0,0-1.15-.09c-.67.12-1.18.58-.84,1.28a2.29,2.29,0,0,0,1.35,1l-.25.84a2.86,2.86,0,0,1-2.07-2,1.68,1.68,0,0,1,1.14-1.82,3.29,3.29,0,0,1,2.06,0A2.46,2.46,0,0,1,325.78,362.48Z" transform="translate(-63.11 -34.93)" style="fill:#a6a6a6"></path><path d="M324.74,366c-.11.55-.94.3-.83-.25.16-.82-.63-1.37-1.46-1.59a2.61,2.61,0,0,0-1.15-.09c-.66.11-1.18.58-.84,1.27a2.29,2.29,0,0,0,1.35,1l-.24.83a2.82,2.82,0,0,1-2.07-2,1.65,1.65,0,0,1,1.14-1.82,3.28,3.28,0,0,1,2.06,0A2.45,2.45,0,0,1,324.74,366Z" transform="translate(-63.11 -34.93)" style="fill:#a6a6a6"></path><path d="M323.71,369.46c-.11.55-.94.3-.83-.24.16-.83-.64-1.37-1.46-1.6a2.78,2.78,0,0,0-1.15-.09c-.66.12-1.18.58-.84,1.28a2.29,2.29,0,0,0,1.35,1l-.25.84a2.86,2.86,0,0,1-2.07-2,1.68,1.68,0,0,1,1.14-1.82,3.25,3.25,0,0,1,2.07,0C322.91,367.14,324,368.12,323.71,369.46Z" transform="translate(-63.11 -34.93)" style="fill:#a6a6a6"></path><path d="M322.67,373c-.11.54-.94.29-.83-.25.16-.83-.63-1.37-1.46-1.6a3,3,0,0,0-1.15-.09c-.66.12-1.17.59-.83,1.28a2.27,2.27,0,0,0,1.35,1l-.25.83a2.84,2.84,0,0,1-2.07-2,1.64,1.64,0,0,1,1.14-1.81,3.28,3.28,0,0,1,2.06,0A2.44,2.44,0,0,1,322.67,373Z" transform="translate(-63.11 -34.93)" style="fill:#a6a6a6"></path><path d="M321.64,376.45c-.11.55-.94.3-.83-.24.16-.83-.64-1.38-1.46-1.6a2.77,2.77,0,0,0-1.15-.09c-.66.12-1.18.58-.84,1.27a2.26,2.26,0,0,0,1.35,1l-.24.83a2.83,2.83,0,0,1-2.08-2,1.67,1.67,0,0,1,1.14-1.82,3.25,3.25,0,0,1,2.07,0C320.84,374.13,321.91,375.11,321.64,376.45Z" transform="translate(-63.11 -34.93)" style="fill:#a6a6a6"></path><path d="M320.61,380c-.11.54-.95.29-.84-.25.17-.83-.63-1.37-1.46-1.6a2.76,2.76,0,0,0-1.15-.09c-.66.12-1.17.58-.83,1.28a2.3,2.3,0,0,0,1.35,1l-.25.83a2.84,2.84,0,0,1-2.07-2,1.67,1.67,0,0,1,1.14-1.82,3.29,3.29,0,0,1,2.06,0A2.46,2.46,0,0,1,320.61,380Z" transform="translate(-63.11 -34.93)" style="fill:#a6a6a6"></path><rect x="334.56" y="337.52" width="41.65" height="22.61" transform="matrix(0.96, 0.28, -0.28, 0.96, 50.51, -121.45)" style="fill:#fff"></rect><path d="M387.62,409.2H286.29s1.85-32.65,6.42-52.47c1.55-6.7,3.4-11.93,5.6-13.93,16.74-15.22,62-11.8,73.12-4.17,10.75,7.4,11.31,34.31,15.74,67.28Z" transform="translate(-63.11 -34.93)" style="fill:#FFC727"></path><path d="M393.61,419.44a25.82,25.82,0,0,0-.9-3.89,18.47,18.47,0,0,0-1.53-3.59,10.29,10.29,0,0,0-2.36-2.88l-.36-.27-.19-.13-.1,0a4.47,4.47,0,0,0-.65-.18l-.14,0c-.6-.12-1.25-.19-1.89-.26-2.6-.28-5.26-.4-7.92-.49s-5.32-.19-8-.23c-10.65-.23-21.33-.29-32-.38-5.33-.07-10.66-.06-16-.05s-10.66.05-16,.11c-2.67,0-5.32.14-8,.24s-5.3.27-7.87.64a17.31,17.31,0,0,0-1.85.36,6.1,6.1,0,0,0-.79.26l-.35.21c-.13.09-.27.17-.38.26l-.11.08a8.71,8.71,0,0,0-2.34,2.67,11.83,11.83,0,0,0-1.3,3.63,15.4,15.4,0,0,0-.31,4,13.89,13.89,0,0,1,.59-8.09,9.2,9.2,0,0,1,2.46-3.49,7.3,7.3,0,0,1,.9-.71l.13-.08a7.49,7.49,0,0,1,.92-.43,18.73,18.73,0,0,1,2-.62,112.24,112.24,0,0,1,16.09-2.12c5.35-.44,10.71-.62,16.07-.82s10.73-.17,16.08-.17c2.59,0,5.18,0,7.76.1q9.27.19,18.52.78c1.95.12,3.91.26,5.86.41a152,152,0,0,1,16.06,1.95c.47.1.95.21,1.44.34l.59.17a6.2,6.2,0,0,1,1.11.44l.33.21.21.19a4.83,4.83,0,0,1,.4.38,10.51,10.51,0,0,1,2.32,3.57A20.31,20.31,0,0,1,393.61,419.44Z" transform="translate(-63.11 -34.93)" style="fill:#263238"></path><polygon points="284.02 328.43 273.53 338.92 273.53 338.92 263.04 328.43 263.04 328.43 273.53 317.94 284.02 328.43 284.02 328.43" style="mix-blend-mode:darken;opacity:0.2"></polygon><path d="M334.2,367.58h0a1,1,0,0,1-1-1v-5.7a1,1,0,0,1,1-1h0a1,1,0,0,1,1,1v5.7A1,1,0,0,1,334.2,367.58Z" transform="translate(-63.11 -34.93)" style="fill:#263238"></path><path d="M339.07,367.58h0a1,1,0,0,1-1-1v-5.7a1,1,0,0,1,1-1h0a1,1,0,0,1,1,1v5.7A1,1,0,0,1,339.07,367.58Z" transform="translate(-63.11 -34.93)" style="fill:#263238"></path><path d="M287.37,420.83s78.74,2.95,101.64,0l-6.76,31.81-89.51,1.51Z" transform="translate(-63.11 -34.93)" style="fill:#FFC727"></path><path d="M287.37,420.83c8.49-.27,17-.32,25.44-.32,4.24,0,8.47,0,12.71,0l12.7.12,25.39.32c4.23,0,8.47.09,12.7.07s8.45-.07,12.7-.23c-4.17.77-8.41,1.23-12.65,1.59-2.11.15-4.23.32-6.35.44l-6.37.29c-4.24.17-8.48.24-12.73.3s-8.48,0-12.72,0-8.48-.14-12.72-.27-8.48-.28-12.71-.5C304.29,422.26,295.82,421.71,287.37,420.83Z" transform="translate(-63.11 -34.93)" style="fill:#263238"></path><path d="M345.37,403c-2.58-.05-5.17-.09-7.76-.1-5.35,0-10.71,0-16.08.17s-10.72.38-16.07.82A112.24,112.24,0,0,0,289.37,406a18.73,18.73,0,0,0-2,.62,7.49,7.49,0,0,0-.92.43c.5-7.56,2.42-33.56,6.29-50.34l.59-2.4S299,397.11,345.37,403Z" transform="translate(-63.11 -34.93)" style="mix-blend-mode:darken;opacity:0.1"></path><path d="M381.28,458H286c-2.7-2-5.56-24.58-6.32-37.21,0,0,6.71,27.55,47.18,32.74C354,457.06,372.25,457.88,381.28,458Z" transform="translate(-63.11 -34.93)" style="mix-blend-mode:darken;opacity:0.1"></path></g></svg>