<svg width="17" height="20" viewBox="0 0 17 20" fill="none" xmlns="http://www.w3.org/2000/svg">
<path fill-rule="evenodd" clip-rule="evenodd" d="M13.6049 10.629C13.6169 9.07 14.4329 7.633 15.7649 6.82C14.9249 5.613 13.5699 4.871 12.1049 4.82C10.5419 4.66 9.10486 5.73 8.27286 5.73C7.44486 5.73 6.27286 4.84 4.97186 4.859C3.24586 4.918 1.67486 5.879 0.834862 7.391C-0.926138 10.449 0.381862 15 2.14386 17.469C2.94486 18.68 3.94486 20.051 5.26486 20C6.58486 19.949 7.01486 19.18 8.54286 19.18C10.0739 19.18 10.5419 20 11.8429 19.969C13.1439 19.942 14.0659 18.731 14.9059 17.52C15.4999 16.641 15.9639 15.68 16.2849 14.672C14.6639 13.981 13.6089 12.391 13.6049 10.629M11.0849 3.191C11.8469 2.309 12.2299 1.16 12.1439 0C10.9839 0.094 9.90586 0.641 9.14386 1.52C8.40586 2.371 8.04586 3.488 8.14386 4.609C9.29286 4.621 10.3779 4.094 11.0849 3.191" fill="#1D1D1B"/>
</svg>
