<svg width="377" height="241" viewBox="0 0 377 241" fill="none" xmlns="http://www.w3.org/2000/svg">
<path d="M360.691 124.147C354.429 117.66 347.022 111.333 345.091 102.525C341.749 87.2834 356.04 74.2876 360.718 59.4017C363.953 49.1088 362.284 37.3895 356.304 28.4087C350.325 19.4278 340.156 13.3678 329.412 12.3821C310.926 10.6859 292.834 23.1429 274.623 19.5353C260.042 16.6468 248.52 3.90386 233.718 2.53877C216.301 0.932479 201.849 15.3105 185.217 20.7239C165.322 27.199 143.753 20.432 124.193 13.0062C104.634 5.58037 84.0545 -2.70459 63.4369 0.849269C40.4872 4.80531 21.245 24.803 18.1755 47.8882C15.1335 70.7665 40.6462 89.1316 18.9288 116.602C12.1421 125.187 7.62785 137.139 10.628 147.663C13.543 157.888 25.9482 164.356 26.0382 174.988C26.1093 183.382 18.1953 190.06 17.5579 198.43C17.0107 205.614 22.1775 212.255 28.527 215.66C34.8765 219.065 42.2437 219.897 49.4071 220.669C49.4071 220.669 119.682 225.457 155.901 224.733C213.019 223.592 270.136 222.45 327.254 221.309C333.124 221.192 339.137 221.047 344.606 218.913C350.076 216.778 354.981 212.209 355.814 206.397C357.232 196.506 346.894 187.922 347.849 177.976C349.069 165.275 366.953 160.375 370.357 148.078C372.762 139.388 366.954 130.634 360.691 124.147Z" fill="url(#paint0_linear_54_1684)"/>
<path d="M0.00052189 114.689C0.366546 129.637 5.26793 216.157 69.6962 216.698C69.6962 216.698 77.9561 157.203 1.45777 113.346C0.788394 112.962 -0.0235286 113.712 0.00052189 114.689Z" fill="#BDD0FB"/>
<path d="M7.70669 125.373C9.12163 129.59 10.7025 133.763 12.3498 137.901C14.0016 142.039 15.7438 146.141 17.5774 150.201C19.4112 154.26 21.3361 158.278 23.3544 162.248C25.3808 166.213 27.5185 170.12 29.7582 173.966C31.9898 177.817 34.3912 181.565 36.8968 185.236C39.3937 188.915 42.1008 192.446 44.9525 195.845L46.033 197.11C46.3938 197.531 46.7475 197.959 47.1311 198.359L49.3894 200.8C50.9549 202.367 52.5054 203.952 54.1824 205.395C57.4911 208.326 61.0419 210.988 64.8798 213.147L64.8861 213.151C65.2132 213.335 65.3291 213.749 65.1451 214.076C64.9611 214.403 64.5468 214.519 64.2199 214.335L64.2157 214.333C60.2871 212.085 56.684 209.339 53.3421 206.335C51.6475 204.854 50.0872 203.236 48.5125 201.637L46.2449 199.15C45.8597 198.741 45.5053 198.307 45.1438 197.879L44.0614 196.592C41.2059 193.138 38.5034 189.558 36.0171 185.837C33.522 182.123 31.1354 178.336 28.9217 174.451C26.6999 170.571 24.5828 166.634 22.5787 162.64C20.5828 158.642 18.6818 154.599 16.8731 150.515C15.0644 146.431 13.3484 142.307 11.7233 138.148C10.1017 133.986 8.5511 129.801 7.1588 125.549C7.10929 125.398 7.19163 125.236 7.34277 125.186C7.49305 125.137 7.65491 125.218 7.70511 125.368L7.70669 125.373Z" fill="#DCE5FE"/>
<path d="M1.50885 200.554C8.25388 198.135 35.5589 191.46 50.7587 234.675C50.7587 234.675 10.7054 219.105 0.763109 202.619C0.301059 201.852 0.666205 200.856 1.50885 200.554Z" fill="#BDD0FB"/>
<path d="M74.5696 193.041C74.5696 193.041 6.24682 151.045 21.2947 37.7062C21.5456 35.8166 23.8971 35.0896 25.1733 36.5056C37.0541 49.6857 77.4879 101.47 74.5696 193.041Z" fill="#91B3FA"/>
<path d="M32.6564 62.5483C35.6811 72.1215 38.7033 81.6948 41.679 91.2834C43.167 96.0776 44.6483 100.874 46.0864 105.683L48.2481 112.896L50.3655 120.122L54.5566 134.587L56.6244 141.827L58.6409 149.083C61.3202 158.759 63.941 168.454 66.3231 178.211C66.3562 178.347 66.273 178.484 66.1372 178.517C66.0043 178.549 65.8698 178.469 65.8331 178.338L63.8083 171.089L61.7457 163.85C60.3564 159.028 58.9919 154.2 57.5745 149.386L53.3519 134.936L49.0927 120.496L46.9496 113.28L44.8288 106.058C43.3957 101.248 42.0075 96.4252 40.6022 91.6072C37.7957 81.9701 35.0002 72.3285 32.138 62.7077C32.0952 62.5643 32.1766 62.4133 32.32 62.3705C32.4622 62.328 32.6116 62.4079 32.6564 62.5483Z" fill="#DCE5FE"/>
<path d="M276.998 187.525C286.566 162.528 327.687 55.522 344.535 18.5959C346.3 14.7271 351.851 14.9085 353.37 18.8805C364.377 47.6696 386.109 134.017 280.023 190.195C278.265 191.126 276.286 189.383 276.998 187.525Z" fill="#91B3FA"/>
<path d="M280.798 187.86C280.621 187.86 280.445 187.791 280.312 187.655C280.05 187.386 280.055 186.956 280.324 186.694C294.863 172.521 307.472 155.388 317.8 135.769C326.068 120.064 332.902 102.741 338.111 84.2794C346.985 52.8298 348.073 28.6689 348.083 28.4285C348.099 28.0536 348.416 27.7593 348.79 27.7779C349.165 27.7934 349.456 28.1099 349.441 28.4847C349.431 28.7264 348.34 53.0173 339.429 84.6128C334.195 103.171 327.326 120.588 319.013 136.382C308.616 156.135 295.919 173.39 281.272 187.667C281.14 187.796 280.969 187.86 280.798 187.86Z" fill="#DCE5FE"/>
<path d="M312.658 194.994C311.078 195.602 309.392 194.399 309.43 192.708C309.638 183.374 312.615 157.037 338.075 137.274C359.574 120.585 369.647 109.492 373.87 104.14C374.763 103.008 376.582 103.674 376.536 105.115C376.024 121.013 369.88 172.976 312.658 194.994Z" fill="#BDD0FB"/>
<path d="M311.321 193.316C311.219 193.316 311.116 193.293 311.019 193.244C310.683 193.076 310.546 192.668 310.714 192.333C310.899 191.963 329.519 155.043 358.368 130.486C358.654 130.243 359.082 130.277 359.325 130.563C359.569 130.848 359.534 131.277 359.249 131.52C330.616 155.894 312.113 192.572 311.93 192.939C311.811 193.178 311.571 193.316 311.321 193.316Z" fill="#DCE5FE"/>
<path d="M319.413 217.155C319.413 219.874 317.186 222.098 314.465 222.098H46.8902C44.1688 222.098 41.9421 219.874 41.9421 217.155L39.7156 63.3871C39.7156 60.6684 42.9189 55.3604 48.7895 55.7593L310.293 48.9928C313.708 48.9045 317.009 50.2187 319.427 52.629C321.845 55.0392 323.168 58.3344 323.088 61.7459L319.413 217.155Z" fill="url(#paint1_linear_54_1684)"/>
<path d="M314.528 212.412C314.528 214.987 312.421 217.093 309.847 217.093H53.3428C50.7682 217.093 48.6615 214.987 48.6615 212.412L46.5605 72.8205C46.8081 64.4202 54.1728 61.4011 58.6371 61.5794L309.264 54.8555C311.663 54.791 313.983 55.7153 315.682 57.4101C317.381 59.1048 318.315 61.4242 318.255 63.8231L314.528 212.412Z" fill="url(#paint2_linear_54_1684)"/>
<path d="M51.4337 145.75C51.2484 145.75 51.097 145.601 51.0941 145.415L50.9279 134.094C50.9253 133.907 51.075 133.753 51.2627 133.75C51.4384 133.756 51.6045 133.897 51.6073 134.085L51.7735 145.405C51.7762 145.593 51.6264 145.747 51.4387 145.75C51.437 145.75 51.4354 145.75 51.4337 145.75Z" fill="#91B3FA"/>
<path d="M51.0263 118.008C50.8411 118.008 50.6896 117.859 50.6868 117.673L50.05 74.3151C50.0632 71.431 50.9513 69.1272 52.6898 67.4612C55.8555 64.4279 60.811 64.5812 61.0206 64.5889L141.06 62.4412C141.248 62.43 141.403 62.5839 141.408 62.7716C141.413 62.9592 141.266 63.1153 141.078 63.1202L61.0195 65.2679C60.7971 65.2607 56.1187 65.1161 53.1598 67.9519C51.5593 69.4855 50.7415 71.6251 50.7294 74.3116L51.3662 117.663C51.3688 117.851 51.219 118.005 51.0314 118.008C51.0298 118.008 51.028 118.008 51.0263 118.008Z" fill="#91B3FA"/>
<g opacity="0.32">
<path d="M59.9622 204.668C60.2308 193.131 60.1307 90.964 59.4687 82.1405C58.8067 73.3169 72.5488 71.6618 93.6473 70.6689C114.746 69.6758 292.761 65.7445 297.344 65.3729C307.647 64.5374 309.779 79.9368 308.749 113.368C307.974 138.484 306.691 179.859 306.1 198.886C305.925 204.552 301.294 209.047 295.626 209.062C252.788 209.18 88.6035 209.65 77.6737 209.976C65.0958 210.351 59.8558 209.243 59.9622 204.668Z" fill="#7D97F4"/>
</g>
<path d="M339.802 234.863H26.9774C26.2527 234.863 25.6599 234.27 25.6599 233.545V222.67C25.6599 221.945 26.2527 221.352 26.9774 221.352H339.802C340.527 221.352 341.12 221.945 341.12 222.67V233.545C341.12 234.27 340.527 234.863 339.802 234.863Z" fill="url(#paint3_linear_54_1684)"/>
<path d="M185.418 194.876C217.422 194.876 243.368 168.931 243.368 136.926C243.368 104.921 217.422 78.9763 185.418 78.9763C153.413 78.9763 127.468 104.921 127.468 136.926C127.468 168.931 153.413 194.876 185.418 194.876Z" fill="#91B3FA"/>
<path d="M180.976 156.33C180.412 156.544 179.801 156.523 179.249 156.27L139.381 138.007L142.212 161.242C142.608 164.493 144.617 167.17 147.332 168.053C172.181 176.138 195.441 177.95 215.735 168.055C217.585 167.153 219.011 165.362 219.67 163.156L226.921 138.913L180.976 156.33Z" fill="url(#paint4_linear_54_1684)"/>
<path d="M123.48 120.641L186.245 94.7574C186.794 94.5312 187.393 94.5299 187.943 94.7541L250.016 120.07C252.324 121.012 252.288 124.83 249.962 125.711L180.976 151.863C180.412 152.077 179.802 152.056 179.249 151.803L123.398 126.218C121.197 125.21 121.251 121.56 123.48 120.641Z" fill="url(#paint5_linear_54_1684)"/>
<path d="M246.93 140.684C246.93 140.684 233.305 159.598 246.038 171.68C246.496 172.115 247.177 171.977 247.471 171.38L252.306 161.558C255.896 154.266 246.93 140.684 246.93 140.684Z" fill="url(#paint6_linear_54_1684)"/>
<path d="M246.878 143.725H245.506V131.008L248.099 130.127L246.878 143.725Z" fill="url(#paint7_linear_54_1684)"/>
<path d="M304.497 19.8781C304.494 19.7684 304.492 19.6676 304.49 19.5803C304.484 19.3341 304.586 19.0992 304.771 18.9363C305.855 17.982 309.91 14.7116 315.605 13.735C315.912 13.6825 316.177 13.8233 316.324 14.0435C315.849 14.0963 315.213 14.2113 314.355 14.4279C311.538 15.1394 307.432 17.0651 304.497 19.8781Z" fill="url(#paint8_linear_54_1684)"/>
<path d="M314.355 14.4279C315.213 14.2112 315.849 14.0962 316.324 14.0434C316.472 14.2649 316.501 14.5665 316.335 14.832C316.241 14.9814 316.126 15.1429 315.985 15.3161C315.084 16.4219 307.822 23.7321 307.822 23.7321C307.822 23.7321 305.536 23.9889 304.842 23.5777C304.617 23.4445 304.528 21.0735 304.497 19.8778C307.432 17.065 311.538 15.1394 314.355 14.4279Z" fill="url(#paint9_linear_54_1684)"/>
<path d="M304.697 27.5447L304.739 23.1498C304.743 22.7776 304.982 22.4455 305.338 22.3351C305.885 22.1653 306.725 22.0094 307.485 22.3024C307.931 22.4743 308.228 22.9016 308.261 23.3782L308.55 27.4859L304.697 27.5447Z" fill="url(#paint10_linear_54_1684)"/>
<path d="M322.164 23.8194C322.219 23.6468 322.322 23.5031 322.453 23.396C323.373 23.587 325.29 24.1134 329.213 25.5408C333.761 27.1956 335.083 28.6153 335.461 29.3714C333.5 29.9252 329.048 30.758 322.685 29.4514L321.432 28.8489C321.432 28.8489 321.549 25.7787 322.164 23.8194Z" fill="url(#paint11_linear_54_1684)"/>
<path d="M329.213 25.5408C325.29 24.1134 323.373 23.5869 322.453 23.3959C322.657 23.2292 322.932 23.154 323.207 23.2141C325.469 23.7072 332.301 25.3846 335.852 28.3198C336.207 28.6128 336.097 29.1835 335.656 29.3147C335.594 29.3331 335.529 29.352 335.46 29.3712C335.083 28.6153 333.76 27.1956 329.213 25.5408Z" fill="url(#paint12_linear_54_1684)"/>
<path d="M319.048 31.481L321.76 28.2924C322.025 27.9821 322.45 27.8621 322.837 27.9931C323.264 28.1381 323.832 28.4344 324.378 29.0399C324.633 29.3222 324.68 29.7374 324.502 30.0737L322.515 33.8361L319.048 31.481Z" fill="url(#paint13_linear_54_1684)"/>
<path d="M309.151 26.057C309.151 26.057 305.884 25.3974 304.061 26.0083C304.061 26.0083 301.531 40.3509 301.898 44.9736L308.955 46.4785C308.955 46.4785 309.311 30.2951 309.151 26.057Z" fill="url(#paint14_linear_54_1684)"/>
<path d="M279.889 50.9496C279.889 50.9496 303 52.4684 312.392 51.9103C313.312 51.8556 314.132 51.3194 314.552 50.4991C316.602 46.4914 322.75 34.465 323.29 33.3169C323.29 33.3169 320.859 31.2464 319.053 30.9466C319.053 30.9466 310.397 40.3926 309.993 45.2503C309.993 45.2503 290.214 39.3569 288.254 39.3922C286.295 39.4276 280.262 42.0505 280.262 42.0505L279.889 50.9496Z" fill="url(#paint15_linear_54_1684)"/>
<path d="M241.63 48.6481C241.954 45.9311 246.968 43.3363 246.968 43.3363L248.569 39.9149C249.682 36.1178 252.004 32.7876 255.182 30.4303L257.395 28.7883C259.57 27.1748 263.017 27.7724 265.206 29.368C270.064 32.9108 277.269 38.8413 279.728 40.881C280.257 41.3195 280.986 41.4235 281.617 41.1512L282.032 40.9719C282.425 40.8025 282.853 41.1229 282.802 41.5474L281.658 51.1602L264.856 50.806C262.841 50.7868 257.007 50.5233 256.095 48.7264L254.578 44.8976C250.907 47.9596 246.216 50.0425 243.708 50.6387C242.552 50.9136 241.48 49.8963 241.63 48.6481Z" fill="url(#paint16_linear_54_1684)"/>
<path d="M253.671 23.5905L258.789 28.6578C259.13 28.9955 259.157 29.5418 258.845 29.9068C257.234 31.7901 255.857 32.7725 254.719 32.8366C254.237 32.8638 253.783 32.6049 253.527 32.1942L250.823 27.8386L253.671 23.5905Z" fill="url(#paint17_linear_54_1684)"/>
<path d="M243.009 48.2173L238.582 46.4457L233.377 50.5058L242.627 50.6285L243.009 48.2173Z" fill="url(#paint18_linear_54_1684)"/>
<path d="M244.805 22.2586C244.805 22.2586 245.469 27.9706 247.391 29.7436C249.313 31.5165 253.104 30.2315 254.421 25.9428L251.948 18.5647L244.805 22.2586Z" fill="url(#paint19_linear_54_1684)"/>
<path d="M252.19 23.3261C252.042 23.3784 251.888 23.2701 251.867 23.0968C251.802 22.5694 251.637 21.5254 251.29 20.8122C251.29 20.8122 251.482 20.0654 249.613 21.1784C247.743 22.2914 244.936 23.9257 243.301 22.9209C241.708 21.9413 240.131 17.0726 244.357 18.0121C244.518 18.0479 244.668 17.9042 244.658 17.7193C244.613 16.9211 244.701 15.0867 246.351 14.5134C247.894 13.9769 248.729 14.7699 249.072 15.247C249.173 15.3875 249.362 15.3864 249.461 15.2437C249.928 14.568 251.194 13.1323 253.028 14.0678C254.538 14.8383 254.764 15.8971 254.733 16.5552C254.723 16.7685 254.913 16.9148 255.085 16.8272C255.552 16.5896 256.301 16.4711 257.008 17.4921C257.984 18.9038 256.558 20.1061 256.13 20.4209C256.06 20.4725 256.016 20.5587 256.015 20.6531C256.004 21.3822 255.873 24.5621 254.446 26.3427C254.322 26.497 254.097 26.4493 254.028 26.2569L252.969 23.322C252.92 23.1858 252.787 23.1149 252.662 23.1588L252.19 23.3261Z" fill="url(#paint20_linear_54_1684)"/>
<path d="M252.161 23.9197C252.161 23.9197 252.853 20.8732 253.851 21.8738C254.849 22.8746 253.558 25.0441 252.4 25.4489L252.161 23.9197Z" fill="url(#paint21_linear_54_1684)"/>
<path d="M259.578 35.058C259.578 35.058 259.437 28.9197 261.959 28.8205C265.091 28.6973 270.101 31.0138 267.02 39.9787C265.317 44.9317 262.789 48.5946 255.927 50.0911C255.618 47.5701 254.493 45.8045 253.659 44.8071C256.468 42.8684 258.86 39.8282 259.578 35.058Z" fill="url(#paint22_linear_54_1684)"/>
<path d="M253.973 44.8279C254.022 44.8284 254.072 44.8142 254.115 44.7844C257.348 42.5517 259.161 39.4726 259.82 35.0947C259.822 35.0808 259.823 35.0668 259.823 35.0525C259.786 33.4122 260.099 29.1393 261.969 29.0657C262.873 29.031 263.819 29.2095 264.633 29.5715C264.757 29.6262 264.902 29.5706 264.957 29.4468C265.012 29.3231 264.956 29.1781 264.832 29.1229C263.951 28.7313 262.927 28.5387 261.949 28.5754C259.27 28.6809 259.323 34.5694 259.332 35.0422C258.692 39.2659 256.945 42.2338 253.836 44.3808C253.724 44.4579 253.696 44.6106 253.773 44.7221C253.821 44.7902 253.896 44.827 253.973 44.8279Z" fill="url(#paint23_linear_54_1684)"/>
<path d="M258.11 49.7409C258.136 49.7411 258.163 49.737 258.19 49.7283C263.889 47.8223 265.913 43.9544 267.252 40.0587C267.555 39.1762 267.791 38.3257 267.953 37.5303C267.98 37.3976 267.894 37.2682 267.761 37.2411C267.628 37.2139 267.499 37.3 267.472 37.4327C267.314 38.207 267.084 39.0369 266.788 39.899C265.49 43.676 263.531 47.4245 258.035 49.2629C257.906 49.3059 257.837 49.4448 257.88 49.5733C257.914 49.6753 258.008 49.7399 258.11 49.7409Z" fill="url(#paint24_linear_54_1684)"/>
<path d="M241.729 50.5855L241.762 48.2054C241.762 48.2054 248.432 48.4167 253.659 44.8072C254.494 45.8047 255.618 47.5702 255.927 50.0913C252.455 50.8486 247.875 51.0519 241.729 50.5855Z" fill="url(#paint25_linear_54_1684)"/>
<path d="M229.365 33.3583L241.946 33.8266C242.874 33.8612 243.698 34.4283 244.063 35.2823L248.102 44.7435C248.715 46.1791 247.625 47.7644 246.065 47.7062L233.786 47.2491C233.188 47.2268 232.664 46.8415 232.465 46.2769L228.38 34.6974C228.144 34.0284 228.656 33.3318 229.365 33.3583Z" fill="url(#paint26_linear_54_1684)"/>
<path d="M237.993 40.0113C238.234 40.8685 238.002 41.6836 237.475 41.8319C236.947 41.9803 236.324 41.4057 236.083 40.5485C235.842 39.6912 236.074 38.8763 236.602 38.728C237.129 38.5795 237.752 39.1542 237.993 40.0113Z" fill="url(#paint27_linear_54_1684)"/>
<path d="M229.905 41.4565C229.905 41.4565 231.346 39.5972 232.545 39.5339C233.745 39.4705 233.42 42.0558 232.503 43.9742C231.586 45.8927 230.337 43.3337 229.905 41.4565Z" fill="url(#paint28_linear_54_1684)"/>
<path d="M57.9629 212.184H55.8679V234.841H57.9629V212.184Z" fill="#91B3FA"/>
<path d="M47.7406 235.278H66.0903V234.498C66.0903 234.175 65.829 233.914 65.5069 233.914H48.324C48.0018 233.914 47.7406 234.175 47.7406 234.498V235.278Z" fill="#91B3FA"/>
<path d="M45.0173 211.398C45.0173 212.637 46.0311 213.651 47.2704 213.651H65.8354C67.0746 213.651 68.0884 212.637 68.0884 211.398V209.361C68.0884 208.122 67.0746 207.108 65.8354 207.108H47.2704C46.0311 207.108 45.0173 208.122 45.0173 209.361V211.398Z" fill="#91B3FA"/>
<path d="M72.3822 197.077C72.3822 197.077 75.4955 197.56 78.9956 199.9C79.5465 200.268 79.8486 200.91 79.7656 201.567C79.3465 204.887 77.6231 215.633 71.9407 226.128C71.6411 226.681 71.555 227.326 71.6872 227.941L72.6745 232.535L74.5054 234.252H69.7895L66.6496 225.755L67.9922 225.331C69.0332 225.001 69.7474 224.044 69.7664 222.952L69.924 213.837C69.7895 209.776 72.414 206.974 72.414 206.974L64.8827 206.608L72.3822 197.077Z" fill="url(#paint29_linear_54_1684)"/>
<path d="M76.3466 235.081C76.776 235.643 71.7241 236.385 69.172 235.155C69.172 235.155 65.6339 228.999 65.6339 225.83C65.6339 225.83 65.9148 225.183 67.9923 225.33C67.9923 225.33 69.1802 232.619 70.4345 233.435C71.689 234.252 73.944 233.518 73.944 233.518C73.944 233.518 75.713 234.251 76.3466 235.081Z" fill="url(#paint30_linear_54_1684)"/>
<path d="M65.8353 207.107C65.8754 207.038 73.9439 206.137 73.9439 206.137C73.9439 206.137 73.6798 208.591 74.5051 211.968C75.3304 215.345 87.1767 229.976 87.1767 229.976L85.9347 233.914C89.7752 235.252 93.5529 235.466 97.2704 234.596L89.5725 229.976C89.5725 229.976 82.3682 205.425 77.9552 201.045L69.8676 198.247L65.8353 207.107Z" fill="url(#paint31_linear_54_1684)"/>
<path d="M47.7407 192.822C47.7407 192.822 43.0921 199.737 42.7106 202.89C42.3291 206.044 43.9841 207.326 48.8616 207.537C53.7393 207.749 66.7604 207.745 66.7604 207.745L77.8739 198.247C77.8739 198.247 69.7748 195.357 67.6691 194.54C65.5635 193.723 47.7407 192.822 47.7407 192.822Z" fill="url(#paint32_linear_54_1684)"/>
<path d="M86.404 232.588C86.404 232.588 85.0668 233.883 85.9702 235.324C85.9702 235.324 96.5637 237.202 99.4399 236.35C99.4399 236.35 98.8427 234.987 95.6039 233.435L95.8429 233.619C96.1453 233.851 95.9679 234.334 95.5873 234.313C93.4531 234.191 89.0364 233.8 86.404 232.588Z" fill="url(#paint33_linear_54_1684)"/>
<path d="M60.3124 191.907C60.3124 191.907 65.7258 186.752 68.3903 183.338C69.8307 181.493 70.283 179.063 69.6169 176.819C68.4003 172.72 66.2384 168.475 66.0411 167.814C65.7388 166.801 59.669 166.843 59.669 166.843C59.669 166.843 47.7248 174.595 43.032 187.726L48.3024 189.367C48.3024 189.367 51.421 184.135 54.5023 180.809C54.5023 180.809 49.1705 187.852 48.9826 190.736L60.3124 191.907Z" fill="url(#paint34_linear_54_1684)"/>
<path d="M66.7752 162.154C66.7119 162.365 65.1275 167.617 65.0036 167.726C64.8796 167.835 61.5292 168.015 59.9523 166.937L62.6277 161.336L66.7752 162.154Z" fill="url(#paint35_linear_54_1684)"/>
<path d="M70.8811 154.819C70.8811 154.819 72.4477 157.499 71.529 161.973C70.6104 166.447 68.3043 167.105 66.687 166.222C65.0694 165.339 62.9089 163.673 62.1978 159.807C61.4866 155.941 68.7616 151.445 70.8811 154.819Z" fill="url(#paint36_linear_54_1684)"/>
<path d="M65.0727 159.202C65.0727 159.202 66.967 153.068 71.3023 156.222L71.7841 157.684C71.7841 157.684 75.3673 156.178 73.7408 152.962C72.1145 149.747 67.4038 148.002 63.6983 150.662C59.9927 153.322 58.9542 156.052 59.5377 159.088C60.1212 162.123 62.2889 160.798 62.2889 160.798C62.2889 160.798 62.4583 158.494 63.4878 157.964C64.5172 157.433 64.7001 159.14 64.7001 159.14L65.0727 159.202Z" fill="url(#paint37_linear_54_1684)"/>
<path d="M64.1878 159.381C64.1878 159.381 65.18 156.234 63.2716 156.355C61.3632 156.476 62.4951 159.367 63.0046 160.411L64.1878 159.381Z" fill="url(#paint38_linear_54_1684)"/>
<path d="M71.3405 192.29L67.3632 188.456L61.8611 190.78C61.8611 190.78 56.3844 191.629 53.2499 190.78C50.1155 189.932 50.1155 189.932 50.1155 189.932L43.0322 187.727L41.9197 190.871C41.6372 191.669 41.9211 192.555 42.6114 193.046C43.2242 193.481 43.9426 193.96 44.4004 194.16C45.3333 194.568 67.3953 193.878 67.3953 193.878L71.3405 192.29Z" fill="url(#paint39_linear_54_1684)"/>
<path d="M63.6122 151.723C64.5556 151.439 64.7368 150.181 63.9572 149.578C61.4403 147.633 57.0017 145.761 51.9944 150.684C46.354 156.229 43.2341 158.837 41.5865 158.689C40.5046 158.592 39.7829 159.77 40.4365 160.638C40.9196 161.28 41.7823 161.888 43.2567 162.322C54.6303 165.675 58.0787 153.392 63.6122 151.723Z" fill="url(#paint40_linear_54_1684)"/>
<path d="M56.2893 194.097C56.3068 194.098 56.3246 194.098 56.3423 194.098L79.4139 194.073C79.9843 194.073 80.4462 193.61 80.4455 193.04C80.4449 192.469 79.9804 191.998 79.4116 192.008L56.34 192.033C55.7696 192.034 55.3079 192.497 55.3085 193.067C55.309 193.619 55.7437 194.07 56.2893 194.097Z" fill="url(#paint41_linear_54_1684)"/>
<path d="M100.154 173.149H80.94C79.5226 173.149 78.2324 173.968 77.6278 175.249L68.7451 194.085H92.6232C93.5366 194.085 94.3573 193.527 94.693 192.677L101.581 175.248C101.979 174.241 101.237 173.149 100.154 173.149Z" fill="url(#paint42_linear_54_1684)"/>
<path d="M86.6176 182.807C86.2011 184.101 86.5087 185.357 87.3047 185.613C88.1004 185.869 89.0832 185.028 89.4996 183.735C89.916 182.441 89.6084 181.185 88.8126 180.929C88.0165 180.672 87.034 181.513 86.6176 182.807Z" fill="url(#paint43_linear_54_1684)"/>
<path d="M115.858 239.552C115.97 239.552 116.083 239.529 116.192 239.481C116.62 239.292 116.818 238.784 116.634 238.345L98.9143 196.199C98.73 195.761 98.2333 195.558 97.8043 195.747C97.3756 195.935 97.1777 196.444 97.3621 196.882L115.082 239.028C115.219 239.355 115.531 239.552 115.858 239.552Z" fill="#91B3FA"/>
<path d="M95.8961 239.551C96.2235 239.551 96.5351 239.356 96.6726 239.028L114.392 196.882C114.576 196.444 114.378 195.935 113.95 195.747C113.522 195.558 113.024 195.76 112.84 196.199L95.1202 238.345C94.9357 238.784 95.1339 239.292 95.5624 239.481C95.6714 239.529 95.7848 239.551 95.8961 239.551Z" fill="#91B3FA"/>
<path d="M46.0801 239.552C46.1914 239.552 46.3046 239.529 46.4135 239.481C46.8422 239.292 47.0402 238.784 46.8557 238.345L29.1359 196.199C28.9516 195.761 28.4551 195.558 28.0259 195.747C27.5974 195.935 27.3992 196.444 27.5837 196.882L45.3033 239.028C45.4409 239.355 45.7525 239.552 46.0801 239.552Z" fill="#91B3FA"/>
<path d="M26.1183 239.552C26.4457 239.552 26.7573 239.356 26.8949 239.028L44.6145 196.882C44.7988 196.444 44.6008 195.935 44.1723 195.747C43.7439 195.558 43.2468 195.761 43.0623 196.199L25.3425 238.345C25.1582 238.784 25.3562 239.292 25.7847 239.481C25.8936 239.529 26.0068 239.552 26.1183 239.552Z" fill="#91B3FA"/>
<path d="M24.0427 194.94C23.9888 194.678 24.0622 194.408 24.243 194.202C24.4238 193.997 24.6933 193.878 24.9775 193.878H121.254C121.628 193.878 121.976 194.056 122.178 194.351C122.379 194.646 122.406 195.018 122.249 195.336L121.206 197.452C120.967 197.937 120.449 198.247 119.88 198.247H25.6381C25.1083 198.247 24.6527 197.895 24.5522 197.408L24.0427 194.94Z" fill="url(#paint44_linear_54_1684)"/>
<path d="M356.92 166.098C356.92 166.098 366.251 171.267 367.023 180.016C367.795 188.764 367.087 225.074 348.376 234.011C329.665 242.948 304.898 240.889 295.417 239.912C285.937 238.935 280.68 232.492 279.506 228.055C278.332 223.619 276.435 207.094 286.409 201.763C296.382 196.433 306.857 188.266 317.323 180.314C327.79 172.363 345.728 159.382 356.92 166.098Z" fill="url(#paint45_linear_54_1684)"/>
<path d="M289.35 204.779C289.35 204.779 291.868 204.913 292.177 210.094C292.177 210.094 286.337 215.329 278.449 216.575C277.857 216.668 279.277 212.532 279.49 211.972C280.506 209.306 283.705 207.589 289.35 204.779Z" fill="url(#paint46_linear_54_1684)"/>
<path d="M317.712 198.687H315.184C313.434 198.687 311.761 197.981 310.543 196.724C306.357 192.405 295.894 182.236 287.624 179.434C286.278 178.978 284.809 179.625 284.206 180.911C282.48 184.595 280.058 193.168 285.793 206.143C286.429 207.58 288.232 208.191 289.539 207.318C289.911 207.07 290.179 206.742 290.345 206.335L289.714 191.169C289.714 191.169 303.628 203.338 306.046 205.687C308.465 208.035 320.758 206.604 317.712 198.687Z" fill="#91B3FA"/>
<path d="M266.333 236.51C268.56 234.558 272.108 232.368 277.231 231.741L278.963 232.8C278.963 232.8 277.858 234.43 275.84 236.151C273.985 237.228 271.121 238.687 268.747 239.004C266.439 239.311 266.098 237.916 266.333 236.51Z" fill="url(#paint47_linear_54_1684)"/>
<path d="M279.49 211.972C280.862 212.416 281.466 214.36 284.947 213.075C288.315 211.831 290.819 210.227 292.107 209.302C292.136 209.553 292.16 209.815 292.177 210.094C292.177 210.094 286.019 215.951 278.131 217.196C277.539 217.29 277.069 216.699 277.283 216.139C277.666 215.133 278.357 213.609 279.49 211.972Z" fill="url(#paint48_linear_54_1684)"/>
<path d="M264.655 238.176C265.094 237.677 265.654 237.104 266.333 236.51C266.098 237.916 266.438 239.311 268.747 239.003C271.121 238.687 273.985 237.228 275.84 236.151C273.516 238.133 269.978 240.238 265.514 240.114C264.523 240.087 264 238.921 264.655 238.176Z" fill="url(#paint49_linear_54_1684)"/>
<path d="M315.789 182.411C315.789 182.411 311.702 194.184 303.736 185.224L302.978 184.887L297.268 180.984L297.904 183.244C298.256 184.494 299.162 185.512 300.363 186.006L301.115 186.316C302.547 189.291 305.614 193.799 310.337 194.655C317.426 195.938 321.062 186.36 321.062 186.36L315.789 182.411Z" fill="url(#paint50_linear_54_1684)"/>
<path d="M317.518 202.533L292.631 202.802C292.631 202.802 278.418 214.561 275.84 232.491C275.84 232.491 275.412 233.81 277.981 234.035C277.981 234.035 286.574 228.423 292.177 218.501C299.047 206.335 312.657 211.811 312.657 211.811C317.129 208.587 323.448 207.931 328.208 206.857L317.518 202.533Z" fill="#91B3FA"/>
<path d="M315.494 202.313C315.494 202.313 318.541 194.032 319.196 185.984C319.196 185.984 316.967 184.069 315.574 183.243C315.123 182.975 314.953 182.409 315.181 181.936C316.205 179.815 322.399 171.483 322.863 171.367C325.385 170.738 335.728 165.82 343.012 175.784C346.139 180.06 342.392 193.224 328.209 206.857L325.283 207.416L315.494 202.313Z" fill="url(#paint51_linear_54_1684)"/>
<path d="M329.56 160.091L334.024 170.515C334.109 170.798 334.004 171.104 333.76 171.271C332.869 171.882 330.538 173.096 327.341 171.916C326.975 171.781 326.725 171.44 326.693 171.051L325.917 163.697L329.56 160.091Z" fill="url(#paint52_linear_54_1684)"/>
<path d="M319.196 186.154C319.102 186.154 319.026 186.079 319.026 185.985C319.013 182.247 320.451 177.303 320.466 177.253C320.492 177.163 320.587 177.111 320.676 177.138C320.767 177.164 320.818 177.259 320.792 177.349C320.777 177.398 319.353 182.296 319.366 185.984C319.366 186.078 319.29 186.154 319.196 186.154L319.196 186.154Z" fill="url(#paint53_linear_54_1684)"/>
<path d="M328.639 189.195C328.616 189.195 328.593 189.191 328.57 189.181C328.485 189.143 328.446 189.042 328.484 188.956C328.509 188.899 331.016 183.221 331.463 179.674C331.474 179.581 331.556 179.515 331.652 179.527C331.745 179.539 331.811 179.624 331.8 179.717C331.347 183.313 328.82 189.037 328.795 189.094C328.766 189.158 328.704 189.195 328.639 189.195Z" fill="url(#paint54_linear_54_1684)"/>
<path d="M335.807 195.128L334.856 194.319C334.784 194.258 334.775 194.151 334.836 194.08C334.897 194.009 335.004 194 335.075 194.06L335.817 194.69C340.47 191.025 342.109 183.918 342.125 183.847C342.145 183.755 342.237 183.697 342.328 183.718C342.419 183.739 342.477 183.829 342.456 183.921C342.44 183.995 340.748 191.33 335.916 195.044L335.807 195.128Z" fill="url(#paint55_linear_54_1684)"/>
<path d="M294.42 177.978L294.02 178.527C293.825 178.793 293.889 179.168 294.162 179.354L303.157 185.499C303.395 185.662 303.716 185.626 303.913 185.416C304.148 185.165 304.117 184.766 303.846 184.555L295.251 177.862C294.991 177.659 294.614 177.712 294.42 177.978Z" fill="url(#paint56_linear_54_1684)"/>
<path d="M300.981 196.195C300.537 196.231 300.19 196.67 300.193 197.201C300.204 198.952 300.511 202.592 302.832 203.297C305.73 204.177 309.021 202.779 308.244 196.805C308.158 196.142 307.671 195.659 307.11 195.704L300.981 196.195Z" fill="white"/>
<path d="M306.853 201.28C306.853 201.28 321.91 201.28 329.56 189.397L334.053 193.505C334.053 193.505 325.059 208.915 308.125 203.14C308.125 203.14 304.215 203.947 302.011 203.335C300.774 202.992 300.102 201.886 299.751 200.981C299.549 200.461 300.056 199.946 300.583 200.128C302.143 200.665 304.913 201.481 306.853 201.28Z" fill="url(#paint57_linear_54_1684)"/>
<path d="M307.636 197.593C307.636 197.593 308.549 195.129 310.116 196.916C311.682 198.703 309.137 200.073 307.636 200.269V199.619C307.636 199.619 309.389 198.833 309.165 197.789C308.941 196.745 307.636 198.05 307.636 198.05V197.593Z" fill="white"/>
<path d="M302.019 185.431C302.591 185.627 303.14 185.92 303.589 186.342C304.039 186.758 304.368 187.324 304.464 187.936C304.514 188.241 304.508 188.558 304.432 188.86C304.358 189.163 304.207 189.446 304.015 189.682C303.628 190.162 303.118 190.484 302.658 190.837C302.198 191.18 301.78 191.609 301.58 192.143C301.484 192.408 301.46 192.698 301.542 192.967C301.623 193.237 301.802 193.47 302.025 193.649C302.473 194.019 303.044 194.198 303.561 194.485C303.816 194.632 304.062 194.805 304.258 195.029C304.457 195.247 304.588 195.535 304.592 195.833C304.592 195.838 304.588 195.841 304.583 195.842C304.578 195.842 304.574 195.838 304.574 195.833C304.564 195.54 304.43 195.263 304.23 195.054C304.033 194.839 303.788 194.675 303.533 194.535C303.02 194.264 302.439 194.099 301.964 193.726C301.727 193.544 301.525 193.297 301.43 193.003C301.332 192.709 301.352 192.386 301.449 192.098C301.651 191.518 302.083 191.061 302.548 190.696C303.008 190.328 303.498 189.997 303.842 189.548C304.195 189.107 304.317 188.528 304.208 187.98C304.108 187.43 303.805 186.933 303.386 186.562C302.968 186.187 302.453 185.925 301.912 185.753C301.823 185.725 301.773 185.63 301.801 185.54C301.83 185.451 301.925 185.401 302.015 185.429C302.016 185.43 302.018 185.431 302.019 185.431Z" fill="white"/>
<path d="M305.321 190.168C305.033 190.765 304.475 191.044 304.208 191.494C304.068 191.713 303.997 191.964 304.07 192.195C304.136 192.427 304.327 192.624 304.546 192.781C304.973 193.096 305.606 193.26 305.943 193.819C306.263 194.384 306.006 195.15 305.429 195.414C305.387 195.433 305.337 195.415 305.318 195.373C305.299 195.331 305.318 195.281 305.359 195.262C305.835 195.038 306.034 194.36 305.762 193.926C305.627 193.704 305.402 193.544 305.161 193.409C304.92 193.272 304.65 193.16 304.401 192.989C304.157 192.821 303.912 192.597 303.807 192.276C303.696 191.953 303.795 191.599 303.955 191.34C304.278 190.801 304.818 190.498 305.011 190.03C305.047 189.943 305.146 189.901 305.233 189.937C305.32 189.973 305.361 190.072 305.326 190.159C305.324 190.162 305.323 190.165 305.321 190.168Z" fill="white"/>
<path d="M317.93 157.419C317.924 157.59 321.326 168.383 321.326 168.383L327.447 166.31L325.742 155.601C325.742 155.601 318.043 154.556 317.93 157.419Z" fill="url(#paint58_linear_54_1684)"/>
<path d="M324.076 157.58C324.339 157.699 324.53 157.931 324.598 158.211L325.917 163.697C325.937 163.78 325.946 163.865 325.943 163.95C325.921 164.422 325.733 165.918 324.189 165.649C322.872 165.421 321.659 165.229 320.815 165.487C320.322 165.638 320.054 166.168 320.211 166.659C320.534 167.67 321.227 169.698 322.095 171.413C322.313 171.843 322.828 172.028 323.273 171.845C324.448 171.36 326.715 170.343 328.39 169.099C328.665 168.894 328.804 168.557 328.755 168.218C328.535 166.725 327.938 162.54 327.951 161.333C327.964 160.211 329.219 159.396 329.824 159.069C330.053 158.944 330.22 158.732 330.285 158.48C330.48 157.722 330.61 156.184 328.653 155.719C328.167 155.604 327.869 155.106 327.974 154.617C328.163 153.741 328.095 152.513 326.494 151.987C324.873 151.455 323.779 152.338 323.181 153.089C322.916 153.421 322.456 153.563 322.065 153.396C321.892 153.322 321.686 153.316 321.459 153.463C321.032 153.74 320.478 153.644 320.197 153.219C319.716 152.489 318.845 151.783 317.341 152.205C314.582 152.98 314.589 156.126 315.521 157.873C316.452 159.62 319.396 158.61 320.813 157.532C321.854 156.741 323.353 157.253 324.076 157.58Z" fill="url(#paint59_linear_54_1684)"/>
<path d="M328.419 163.365C328.419 163.365 326.926 160.251 328.03 159.335C329.134 158.419 330.934 158.647 330.792 161.03C330.615 163.995 328.419 163.365 328.419 163.365Z" fill="url(#paint60_linear_54_1684)"/>
<path d="M150.269 200.16C150.269 200.16 149.185 193.412 152.497 191.23C152.645 191.133 152.842 191.243 152.842 191.419V192.702C152.842 193.009 153.207 193.167 153.43 192.956C154.143 192.284 155.419 191.263 156.772 191.051C157.133 190.994 157.414 191.354 157.259 191.685C156.429 193.459 154.256 198.431 154.34 201.688L150.269 200.16Z" fill="url(#paint61_linear_54_1684)"/>
<path d="M146.752 200.158L144.535 235.607H157.822V201.148C157.822 200.157 157.19 199.279 156.252 198.958C154.493 198.357 151.504 197.607 148.568 198.129C147.567 198.306 146.816 199.143 146.752 200.158Z" fill="#91B3FA"/>
<path d="M146.788 222.483L146.337 232.367C146.3 233.187 146.954 233.871 147.774 233.871H154.486C155.281 233.871 155.925 233.227 155.925 232.433V222.548C155.925 221.754 155.281 221.11 154.486 221.11H148.224C147.455 221.11 146.823 221.715 146.788 222.483Z" fill="#7D97F4"/>
<path d="M170.616 235.607V198.963C170.616 198.049 170.022 197.235 169.148 196.967C165.236 195.772 161.833 196.442 160.047 196.997C159.255 197.243 158.715 197.972 158.715 198.801V235.607H170.616Z" fill="url(#paint62_linear_54_1684)"/>
<path d="M159.892 199.576L160.181 204.985C160.217 205.659 160.774 206.188 161.449 206.188H167.822C168.507 206.188 169.069 205.644 169.091 204.959L169.265 199.621C169.284 199.009 168.866 198.469 168.268 198.34C166.72 198.006 163.674 197.546 160.856 198.275C160.266 198.427 159.86 198.967 159.892 199.576Z" fill="url(#paint63_linear_54_1684)"/>
<path d="M160.388 208.519C160.434 209.184 160.987 209.701 161.655 209.701H167.756C168.467 209.701 169.04 209.117 169.025 208.405C169.012 207.714 168.447 207.161 167.756 207.161H161.655C160.919 207.161 160.337 207.785 160.388 208.519Z" fill="url(#paint64_linear_54_1684)"/>
<path d="M130.114 199.987L131.588 235.572H144.174L145.128 199.589C145.154 198.6 144.522 197.705 143.574 197.42C139.482 196.191 135.417 196.071 131.4 197.906C130.589 198.277 130.077 199.096 130.114 199.987Z" fill="url(#paint65_linear_54_1684)"/>
<path d="M131.26 201.322L131.41 203.257C131.455 203.843 131.961 204.285 132.548 204.251L142.831 203.653C143.371 203.621 143.804 203.195 143.845 202.656L143.945 201.319C143.992 200.693 143.496 200.16 142.869 200.16H132.336C131.707 200.16 131.211 200.695 131.26 201.322Z" fill="url(#paint66_linear_54_1684)"/>
<path d="M131.684 205.946V206.652C131.684 207.197 132.138 207.633 132.683 207.61L142.534 207.199C143.047 207.178 143.453 206.755 143.453 206.241V205.492C143.453 204.945 142.996 204.509 142.45 204.534L132.599 204.988C132.087 205.011 131.684 205.433 131.684 205.946Z" fill="url(#paint67_linear_54_1684)"/>
<path d="M203.05 71.6573C217.23 71.4484 287.373 70.2203 301.769 69.9678C303.19 69.9429 304.354 71.0877 304.354 72.5084V79.0756C304.354 80.479 303.217 81.6167 301.813 81.6167H203.089C201.686 81.6167 200.548 80.4791 200.548 79.0756V74.1981C200.548 72.8091 201.662 71.6777 203.05 71.6573Z" fill="#91B3FA"/>
<path d="M220.928 76.715C220.928 78.1447 222.1 79.2965 223.53 79.2717L280.732 78.2794C282.373 78.2509 283.562 76.7069 283.171 75.1135L282.911 74.0523C282.622 72.875 281.547 72.0622 280.335 72.1059L223.393 74.1595C222.018 74.2092 220.928 75.3387 220.928 76.715Z" fill="#BDD0FB"/>
<path d="M208.153 77.0705L199.359 86.0234C198.99 86.3989 199.019 87.0089 199.422 87.3476L199.488 87.4032C199.845 87.7027 200.377 87.6548 200.674 87.2963L208.727 77.5836L208.153 77.0705Z" fill="white"/>
<path opacity="0.34" d="M217.187 69.8983C218.547 72.7477 217.297 76.1801 214.395 77.565C211.493 78.9497 208.039 77.7625 206.679 74.9133C205.319 72.0639 206.569 68.6315 209.471 67.2466C212.372 65.8617 215.827 67.0489 217.187 69.8983Z" fill="url(#paint68_linear_54_1684)"/>
<path d="M209.193 66.665C205.965 68.2058 204.574 72.0253 206.087 75.1957C207.6 78.3664 211.444 79.6874 214.673 78.1466C217.902 76.6056 219.292 72.7863 217.779 69.6157C216.266 66.445 212.422 65.124 209.193 66.665ZM214.27 77.3032C211.516 78.6177 208.236 77.4909 206.946 74.786C205.655 72.0813 206.841 68.8229 209.596 67.5083C212.35 66.1938 215.63 67.3209 216.92 70.0256C218.211 72.7303 217.025 75.9887 214.27 77.3032Z" fill="white"/>
<path d="M206.126 74.2009C206.051 74.2009 205.983 74.1516 205.962 74.0761C205.85 73.6667 205.781 73.2442 205.758 72.8197C205.753 72.7259 205.825 72.6459 205.918 72.641C206.011 72.6282 206.092 72.7077 206.097 72.8013C206.119 73.2017 206.184 73.6004 206.29 73.9864C206.315 74.0768 206.261 74.1704 206.171 74.1951C206.156 74.199 206.141 74.2009 206.126 74.2009Z" fill="white"/>
<path d="M200.944 84.9476C200.902 84.9476 200.861 84.9324 200.828 84.9016C200.76 84.8372 200.756 84.7298 200.82 84.6615L200.955 84.5179C201.019 84.4494 201.127 84.4463 201.195 84.5102C201.264 84.5746 201.267 84.682 201.203 84.7503L201.068 84.8939C201.034 84.9297 200.989 84.9476 200.944 84.9476Z" fill="white"/>
<path d="M310.466 175.392C310.312 175.392 310.172 175.286 310.136 175.13C310.059 174.801 309.979 174.474 309.895 174.148C309.848 173.966 309.957 173.781 310.139 173.734C310.32 173.687 310.506 173.797 310.553 173.978C310.638 174.31 310.72 174.642 310.798 174.976C310.84 175.159 310.726 175.341 310.544 175.384C310.518 175.39 310.492 175.392 310.466 175.392ZM309.563 172.119C309.42 172.119 309.286 172.027 309.24 171.883C309.137 171.562 309.031 171.242 308.92 170.924C308.859 170.747 308.953 170.553 309.13 170.492C309.307 170.43 309.501 170.524 309.562 170.701C309.674 171.025 309.783 171.35 309.887 171.676C309.944 171.854 309.846 172.046 309.667 172.103C309.632 172.114 309.598 172.119 309.563 172.119ZM308.4 168.929C308.266 168.929 308.14 168.849 308.086 168.718C307.958 168.406 307.827 168.095 307.691 167.787C307.616 167.615 307.694 167.415 307.866 167.339C308.038 167.264 308.238 167.342 308.314 167.514C308.451 167.828 308.585 168.143 308.715 168.46C308.786 168.633 308.703 168.832 308.529 168.903C308.487 168.92 308.443 168.929 308.4 168.929ZM306.99 165.839C306.866 165.839 306.746 165.771 306.687 165.653C306.535 165.352 306.379 165.053 306.22 164.755C306.132 164.59 306.195 164.384 306.36 164.296C306.526 164.207 306.731 164.27 306.82 164.435C306.981 164.737 307.139 165.041 307.293 165.347C307.378 165.514 307.31 165.718 307.143 165.803C307.094 165.828 307.041 165.839 306.99 165.839ZM305.343 162.869C305.228 162.869 305.116 162.811 305.053 162.705C304.878 162.417 304.7 162.13 304.519 161.846C304.418 161.688 304.464 161.478 304.623 161.377C304.781 161.277 304.991 161.322 305.092 161.481C305.276 161.77 305.457 162.06 305.634 162.353C305.731 162.514 305.68 162.723 305.519 162.82C305.464 162.853 305.403 162.869 305.343 162.869ZM303.474 160.034C303.368 160.034 303.264 159.984 303.198 159.892C303.001 159.617 302.802 159.346 302.6 159.076C302.487 158.926 302.517 158.713 302.667 158.6C302.817 158.488 303.03 158.518 303.143 158.668C303.348 158.942 303.551 159.218 303.75 159.496C303.859 159.648 303.824 159.861 303.672 159.97C303.612 160.013 303.543 160.034 303.474 160.034ZM301.393 157.35C301.296 157.35 301.2 157.309 301.133 157.228C300.916 156.97 300.696 156.714 300.474 156.461C300.35 156.32 300.364 156.106 300.505 155.982C300.646 155.858 300.861 155.872 300.984 156.013C301.21 156.27 301.433 156.529 301.653 156.792C301.774 156.935 301.755 157.15 301.611 157.27C301.548 157.324 301.47 157.35 301.393 157.35ZM299.112 154.834C299.024 154.834 298.936 154.8 298.869 154.732C298.633 154.491 298.395 154.253 298.153 154.018C298.019 153.887 298.016 153.672 298.147 153.538C298.278 153.404 298.493 153.401 298.627 153.532C298.872 153.77 299.115 154.012 299.354 154.257C299.486 154.391 299.484 154.606 299.35 154.737C299.283 154.802 299.198 154.834 299.112 154.834ZM296.642 152.503C296.563 152.503 296.483 152.475 296.419 152.419C296.165 152.198 295.908 151.979 295.649 151.764C295.505 151.644 295.485 151.43 295.605 151.285C295.725 151.141 295.939 151.121 296.084 151.241C296.347 151.46 296.608 151.682 296.866 151.907C297.007 152.031 297.022 152.245 296.898 152.387C296.831 152.464 296.737 152.503 296.642 152.503ZM293.997 150.373C293.926 150.373 293.856 150.352 293.795 150.307C293.524 150.106 293.251 149.909 292.975 149.715C292.822 149.607 292.785 149.395 292.893 149.241C293.001 149.088 293.212 149.051 293.366 149.159C293.646 149.356 293.924 149.557 294.199 149.761C294.35 149.872 294.382 150.085 294.27 150.236C294.203 150.326 294.101 150.373 293.997 150.373ZM291.188 148.464C291.127 148.464 291.065 148.448 291.009 148.413L290.787 148.276C290.574 148.145 290.36 148.017 290.144 147.89C289.983 147.795 289.929 147.587 290.024 147.425C290.119 147.263 290.327 147.21 290.489 147.304C290.708 147.433 290.926 147.564 291.142 147.697L291.368 147.836C291.527 147.935 291.576 148.144 291.477 148.304C291.413 148.407 291.302 148.464 291.188 148.464ZM288.233 146.791C288.18 146.791 288.127 146.779 288.078 146.754C287.778 146.599 287.477 146.449 287.174 146.303C287.005 146.221 286.934 146.018 287.015 145.849C287.097 145.68 287.3 145.609 287.469 145.691C287.777 145.84 288.084 145.993 288.388 146.15C288.555 146.235 288.621 146.44 288.535 146.607C288.475 146.724 288.356 146.791 288.233 146.791ZM285.153 145.362C285.109 145.362 285.065 145.354 285.022 145.336C284.711 145.207 284.399 145.081 284.084 144.959C283.909 144.891 283.823 144.694 283.891 144.519C283.958 144.344 284.155 144.257 284.33 144.325C284.65 144.45 284.967 144.577 285.283 144.709C285.456 144.781 285.538 144.98 285.466 145.153C285.412 145.284 285.286 145.362 285.153 145.362ZM281.968 144.181C281.933 144.181 281.898 144.176 281.863 144.164C281.543 144.06 281.221 143.959 280.898 143.861C280.719 143.807 280.617 143.618 280.671 143.438C280.725 143.258 280.915 143.157 281.094 143.211C281.422 143.31 281.749 143.412 282.074 143.519C282.252 143.577 282.35 143.769 282.291 143.947C282.244 144.09 282.112 144.181 281.968 144.181ZM257.517 143.357C257.366 143.357 257.228 143.256 257.188 143.103C257.141 142.921 257.25 142.736 257.431 142.688C257.763 142.602 258.095 142.52 258.429 142.442C258.611 142.399 258.794 142.512 258.837 142.695C258.88 142.878 258.766 143.06 258.583 143.103C258.255 143.18 257.928 143.261 257.602 143.346C257.574 143.353 257.545 143.357 257.517 143.357ZM278.702 143.252C278.676 143.252 278.649 143.249 278.622 143.242C278.294 143.162 277.966 143.086 277.637 143.014C277.453 142.974 277.338 142.793 277.377 142.61C277.418 142.427 277.598 142.311 277.782 142.351C278.116 142.424 278.45 142.501 278.783 142.582C278.965 142.626 279.077 142.81 279.032 142.993C278.994 143.148 278.855 143.252 278.702 143.252ZM260.835 142.636C260.673 142.636 260.53 142.52 260.501 142.355C260.469 142.17 260.592 141.994 260.777 141.962C261.114 141.903 261.452 141.847 261.791 141.797C261.974 141.768 262.149 141.896 262.177 142.082C262.205 142.268 262.077 142.441 261.892 142.469C261.559 142.519 261.226 142.573 260.894 142.631C260.874 142.634 260.855 142.636 260.835 142.636ZM275.374 142.576C275.356 142.576 275.338 142.575 275.319 142.572C274.987 142.517 274.653 142.467 274.319 142.42C274.134 142.394 274.004 142.222 274.03 142.037C274.056 141.851 274.228 141.721 274.414 141.747C274.752 141.795 275.091 141.846 275.429 141.901C275.614 141.931 275.74 142.106 275.709 142.291C275.682 142.458 275.538 142.576 275.374 142.576ZM264.201 142.185C264.028 142.185 263.88 142.053 263.863 141.877C263.846 141.69 263.983 141.524 264.17 141.507C264.511 141.475 264.852 141.447 265.193 141.423C265.382 141.412 265.543 141.551 265.556 141.738C265.569 141.926 265.428 142.088 265.241 142.101C264.905 142.125 264.569 142.152 264.233 142.183C264.222 142.185 264.212 142.185 264.201 142.185ZM272.004 142.157C271.994 142.157 271.985 142.157 271.975 142.156C271.639 142.127 271.303 142.102 270.966 142.081C270.779 142.07 270.637 141.908 270.649 141.721C270.66 141.534 270.825 141.392 271.009 141.403C271.35 141.424 271.692 141.45 272.033 141.479C272.22 141.495 272.358 141.659 272.342 141.846C272.327 142.023 272.179 142.157 272.004 142.157ZM267.592 142.002C267.407 142.002 267.256 141.853 267.253 141.667C267.25 141.479 267.4 141.325 267.587 141.322C267.808 141.319 268.029 141.317 268.25 141.317L268.614 141.319C268.802 141.32 268.953 141.474 268.951 141.661C268.95 141.848 268.798 141.998 268.612 141.998C268.611 141.998 268.61 141.998 268.609 141.998L268.25 141.997C268.033 141.997 267.815 141.998 267.598 142.002C267.596 142.002 267.594 142.002 267.592 142.002Z" fill="white"/>
<path d="M85.6513 167.336C85.6044 167.336 85.5567 167.326 85.5112 167.305C85.3404 167.228 85.2647 167.027 85.3421 166.856C85.4836 166.544 85.629 166.234 85.778 165.925C85.8598 165.756 86.063 165.686 86.2318 165.767C86.4007 165.849 86.4713 166.052 86.3898 166.221C86.2431 166.525 86.1 166.83 85.961 167.137C85.9041 167.262 85.7805 167.336 85.6513 167.336ZM87.1803 164.304C87.1245 164.304 87.0676 164.29 87.0153 164.261C86.8515 164.169 86.7925 163.962 86.884 163.799C87.0508 163.5 87.2211 163.202 87.395 162.907C87.4904 162.746 87.6991 162.692 87.8601 162.787C88.0216 162.882 88.0755 163.091 87.9801 163.252C87.8092 163.543 87.6415 163.835 87.4774 164.129C87.415 164.241 87.2995 164.304 87.1803 164.304ZM88.9524 161.407C88.8876 161.407 88.8217 161.388 88.764 161.349C88.6079 161.245 88.5661 161.034 88.6704 160.878C88.8607 160.594 89.0543 160.311 89.2518 160.031C89.3598 159.878 89.5719 159.841 89.7251 159.949C89.8786 160.057 89.9154 160.269 89.8073 160.422C89.6133 160.698 89.4225 160.976 89.2353 161.256C89.1697 161.354 89.0619 161.407 88.9524 161.407ZM90.9521 158.662C90.8781 158.662 90.8037 158.638 90.7414 158.588C90.5943 158.472 90.5693 158.258 90.6857 158.111C90.8982 157.843 91.1141 157.577 91.333 157.313C91.4529 157.169 91.6674 157.149 91.8114 157.269C91.9557 157.389 91.9753 157.603 91.8554 157.747C91.6399 158.007 91.4276 158.269 91.2185 158.533C91.1515 158.618 91.0521 158.662 90.9521 158.662ZM93.164 156.085C93.0811 156.085 92.9981 156.055 92.9328 155.994C92.7953 155.866 92.7874 155.651 92.9152 155.514C93.1482 155.263 93.3843 155.015 93.6236 154.77C93.7547 154.636 93.9701 154.633 94.1039 154.764C94.2382 154.895 94.2408 155.11 94.1099 155.244C93.8744 155.485 93.6422 155.729 93.4127 155.976C93.3459 156.048 93.2549 156.085 93.164 156.085ZM95.5733 153.691C95.4814 153.691 95.3898 153.654 95.3227 153.581C95.1958 153.443 95.2051 153.228 95.3433 153.101C95.5956 152.87 95.8508 152.641 96.1087 152.416C96.2502 152.293 96.4647 152.307 96.5879 152.448C96.7114 152.589 96.6971 152.804 96.5558 152.927C96.302 153.149 96.0509 153.374 95.8027 153.602C95.7377 153.662 95.6552 153.691 95.5733 153.691ZM98.1654 151.497C98.0645 151.497 97.9644 151.452 97.8974 151.366C97.7819 151.218 97.8084 151.005 97.9564 150.89C98.2264 150.679 98.499 150.472 98.7739 150.268C98.9251 150.156 99.1375 150.188 99.2491 150.338C99.361 150.489 99.3292 150.702 99.1787 150.814C98.908 151.014 98.6398 151.218 98.3742 151.425C98.312 151.474 98.2385 151.497 98.1654 151.497ZM100.926 149.519C100.815 149.519 100.707 149.465 100.641 149.366C100.538 149.209 100.582 148.998 100.739 148.895C101.025 148.707 101.314 148.523 101.604 148.342C101.764 148.243 101.973 148.291 102.072 148.451C102.171 148.61 102.123 148.819 101.963 148.918C101.677 149.096 101.393 149.278 101.112 149.463C101.054 149.501 100.99 149.519 100.926 149.519ZM103.838 147.773C103.718 147.773 103.601 147.709 103.54 147.596C103.45 147.431 103.51 147.225 103.675 147.135L103.864 147.033C104.102 146.904 104.343 146.778 104.584 146.655C104.751 146.568 104.955 146.635 105.041 146.802C105.126 146.969 105.061 147.173 104.894 147.259C104.656 147.381 104.42 147.505 104.185 147.631L104.001 147.731C103.949 147.759 103.893 147.773 103.838 147.773ZM106.885 146.274C106.755 146.274 106.631 146.198 106.574 146.071C106.499 145.899 106.576 145.699 106.748 145.623C107.061 145.484 107.376 145.35 107.692 145.219C107.866 145.147 108.064 145.23 108.136 145.404C108.208 145.577 108.125 145.776 107.951 145.847C107.64 145.976 107.33 146.108 107.022 146.244C106.978 146.264 106.931 146.274 106.885 146.274ZM110.045 145.029C109.904 145.029 109.773 144.941 109.724 144.801C109.662 144.624 109.756 144.43 109.933 144.368C110.256 144.256 110.581 144.147 110.907 144.042C111.087 143.985 111.277 144.083 111.335 144.262C111.392 144.44 111.294 144.632 111.115 144.689C110.794 144.792 110.475 144.899 110.156 145.01C110.119 145.023 110.082 145.029 110.045 145.029ZM113.294 144.043C113.143 144.043 113.005 143.942 112.965 143.789C112.918 143.607 113.027 143.422 113.209 143.374C113.54 143.288 113.872 143.206 114.206 143.127C114.389 143.085 114.571 143.198 114.614 143.38C114.657 143.563 114.544 143.746 114.361 143.789C114.033 143.866 113.706 143.947 113.38 144.032C113.351 144.039 113.322 144.043 113.294 144.043ZM116.612 143.319C116.45 143.319 116.307 143.203 116.277 143.038C116.245 142.853 116.368 142.677 116.553 142.644C116.89 142.585 117.228 142.529 117.566 142.477C117.753 142.45 117.925 142.576 117.953 142.762C117.981 142.947 117.854 143.121 117.669 143.149C117.336 143.2 117.003 143.254 116.671 143.313C116.651 143.317 116.631 143.319 116.612 143.319ZM130.559 143.179C130.541 143.179 130.523 143.178 130.505 143.175C130.367 143.152 130.228 143.131 130.089 143.111C129.904 143.083 129.776 142.911 129.803 142.725C129.831 142.539 130.004 142.412 130.189 142.438C130.33 142.459 130.471 142.481 130.612 142.504C130.798 142.533 130.924 142.708 130.894 142.893C130.867 143.06 130.723 143.179 130.559 143.179ZM119.977 142.86C119.804 142.86 119.656 142.728 119.639 142.553C119.621 142.366 119.758 142.2 119.944 142.182C120.285 142.149 120.627 142.12 120.968 142.096C121.156 142.085 121.318 142.224 121.331 142.41C121.345 142.598 121.204 142.76 121.017 142.774C120.681 142.798 120.345 142.826 120.009 142.858C119.998 142.859 119.988 142.86 119.977 142.86ZM127.779 142.833C127.769 142.833 127.758 142.832 127.748 142.832C127.413 142.802 127.077 142.776 126.74 142.754C126.553 142.741 126.411 142.58 126.423 142.392C126.436 142.205 126.6 142.064 126.784 142.076C127.126 142.098 127.468 142.125 127.809 142.155C127.996 142.172 128.133 142.337 128.117 142.524C128.101 142.7 127.953 142.833 127.779 142.833ZM123.368 142.67C123.183 142.67 123.031 142.522 123.028 142.336C123.025 142.148 123.175 141.994 123.362 141.991C123.586 141.987 123.803 141.986 124.032 141.986L124.389 141.987C124.577 141.989 124.728 142.142 124.726 142.33C124.725 142.516 124.573 142.667 124.387 142.667C124.386 142.667 124.385 142.667 124.384 142.667L124.032 142.665C123.815 142.665 123.593 142.667 123.373 142.67C123.371 142.67 123.369 142.67 123.368 142.67Z" fill="white"/>
<path d="M185.235 83.364C185.056 83.364 184.906 83.2235 184.896 83.0422L184.888 82.8705C184.879 82.683 185.024 82.524 185.211 82.5152C185.398 82.5117 185.558 82.6512 185.566 82.8385L185.575 83.0062C185.585 83.1937 185.441 83.3534 185.253 83.3633C185.247 83.3638 185.241 83.364 185.235 83.364ZM185.191 80.8169C185.189 80.8169 185.187 80.8169 185.185 80.8169C184.997 80.8136 184.848 80.6591 184.851 80.4714C184.857 80.1289 184.868 79.7862 184.883 79.4439C184.891 79.2564 185.057 79.1135 185.237 79.1195C185.424 79.1277 185.57 79.2864 185.561 79.4738C185.547 79.8101 185.536 80.1465 185.531 80.483C185.527 80.6686 185.376 80.8169 185.191 80.8169ZM185.402 77.4281C185.39 77.4281 185.378 77.4274 185.365 77.4261C185.179 77.4061 185.044 77.2386 185.064 77.052C185.101 76.7111 185.141 76.3712 185.187 76.0316C185.212 75.8455 185.385 75.7152 185.569 75.74C185.755 75.7649 185.885 75.9359 185.86 76.1218C185.816 76.4555 185.775 76.7899 185.739 77.1247C185.721 77.2989 185.573 77.4281 185.402 77.4281ZM185.912 74.0706C185.891 74.0706 185.868 74.0687 185.846 74.0641C185.662 74.0278 185.542 73.8493 185.579 73.6651C185.645 73.3291 185.716 72.9938 185.791 72.6594C185.832 72.4763 186.014 72.3622 186.196 72.4024C186.379 72.4433 186.495 72.625 186.453 72.8081C186.38 73.1369 186.31 73.4664 186.245 73.7968C186.213 73.9588 186.071 74.0706 185.912 74.0706ZM186.713 70.7706C186.682 70.7706 186.65 70.7662 186.618 70.7571C186.438 70.705 186.334 70.5168 186.386 70.3365C186.481 70.0073 186.58 69.6794 186.684 69.3527C186.741 69.1738 186.932 69.0741 187.111 69.1317C187.289 69.1884 187.389 69.3794 187.332 69.5581C187.23 69.879 187.132 70.2013 187.039 70.5249C186.996 70.6739 186.86 70.7706 186.713 70.7706ZM187.794 67.5514C187.753 67.5514 187.712 67.544 187.672 67.5287C187.497 67.4613 187.41 67.2649 187.477 67.0897C187.6 66.7698 187.727 66.4515 187.858 66.135C187.93 65.9618 188.128 65.8796 188.302 65.9512C188.475 66.023 188.558 66.2218 188.486 66.395C188.357 66.7061 188.232 67.0188 188.111 67.3333C188.059 67.4685 187.93 67.5514 187.794 67.5514ZM189.147 64.4367C189.097 64.4367 189.046 64.4259 188.998 64.4025C188.829 64.3204 188.759 64.1171 188.841 63.9484C188.991 63.6403 189.145 63.3341 189.303 63.0299C189.389 62.8633 189.594 62.7985 189.761 62.8847C189.927 62.9711 189.992 63.1761 189.906 63.3427C189.751 63.6417 189.6 63.9426 189.452 64.2456C189.393 64.3664 189.273 64.4367 189.147 64.4367ZM190.762 61.4496C190.703 61.4496 190.643 61.4341 190.588 61.4015C190.427 61.3051 190.374 61.0965 190.471 60.9356C190.647 60.6415 190.826 60.3497 191.01 60.0604C191.111 59.9021 191.32 59.855 191.479 59.9556C191.637 60.0562 191.684 60.266 191.584 60.4244C191.403 60.7086 191.227 60.9954 191.054 61.2842C190.99 61.3908 190.877 61.4496 190.762 61.4496ZM192.631 58.6148C192.561 58.6148 192.492 58.5937 192.431 58.5502C192.28 58.4399 192.246 58.2275 192.356 58.0757C192.557 57.7983 192.762 57.5235 192.97 57.2514C193.085 57.1024 193.298 57.0741 193.446 57.1882C193.595 57.3023 193.624 57.5155 193.51 57.6645C193.305 57.9319 193.104 58.202 192.906 58.4747C192.84 58.5661 192.736 58.6148 192.631 58.6148ZM194.744 55.9564C194.665 55.9564 194.585 55.9288 194.521 55.8728C194.379 55.7496 194.365 55.5349 194.488 55.3936C194.713 55.1352 194.942 54.8799 195.174 54.6277C195.301 54.4897 195.516 54.4807 195.654 54.6078C195.792 54.7349 195.801 54.9498 195.674 55.0878C195.446 55.3355 195.221 55.5863 195 55.8402C194.933 55.9169 194.839 55.9564 194.744 55.9564ZM197.09 53.5011C197 53.5011 196.911 53.466 196.844 53.396C196.715 53.2603 196.72 53.0454 196.855 52.9159C197.103 52.6792 197.355 52.4459 197.609 52.2163C197.748 52.0906 197.963 52.1016 198.089 52.2409C198.214 52.3801 198.203 52.5948 198.064 52.7205C197.814 52.9459 197.568 53.1748 197.324 53.4072C197.259 53.4699 197.174 53.5011 197.09 53.5011ZM199.651 51.272C199.551 51.272 199.452 51.2281 199.385 51.1435C199.268 50.9966 199.293 50.7829 199.44 50.6663C199.708 50.4532 199.979 50.2438 200.253 50.0379C200.404 49.9253 200.616 49.9555 200.729 50.1055C200.842 50.2556 200.812 50.4685 200.662 50.5812C200.392 50.7834 200.126 50.9892 199.862 51.1984C199.8 51.2479 199.725 51.272 199.651 51.272ZM202.403 49.2816C202.292 49.2816 202.184 49.2279 202.118 49.1287C202.015 48.9721 202.059 48.7614 202.215 48.6582C202.502 48.4698 202.79 48.2852 203.081 48.1042C203.241 48.005 203.45 48.0541 203.549 48.2135C203.648 48.3729 203.599 48.5824 203.44 48.6814C203.154 48.859 202.87 49.0404 202.589 49.2254C202.531 49.2635 202.467 49.2816 202.403 49.2816ZM205.318 47.5405C205.197 47.5405 205.08 47.4761 205.019 47.3621C204.93 47.1971 204.991 46.9908 205.156 46.9018C205.458 46.7389 205.762 46.5802 206.067 46.4252C206.235 46.3406 206.439 46.4075 206.524 46.5746C206.609 46.7419 206.542 46.9462 206.374 47.0312C206.074 47.1834 205.775 47.3395 205.479 47.4994C205.428 47.5273 205.373 47.5405 205.318 47.5405ZM208.373 46.0578C208.242 46.0578 208.117 45.9812 208.061 45.8529C207.987 45.6809 208.066 45.4809 208.238 45.4063C208.552 45.2701 208.868 45.1379 209.186 45.0099C209.361 44.9393 209.558 45.024 209.628 45.1978C209.698 45.3717 209.614 45.5697 209.44 45.6398C209.128 45.7658 208.817 45.8957 208.508 46.0295C208.464 46.0486 208.418 46.0578 208.373 46.0578ZM211.544 44.8424C211.402 44.8424 211.269 44.7526 211.222 44.6105C211.162 44.4327 211.258 44.2401 211.436 44.1804C211.761 44.0716 212.087 43.9668 212.415 43.8664C212.593 43.8116 212.784 43.9122 212.839 44.0916C212.894 44.2708 212.793 44.461 212.614 44.5159C212.292 44.6146 211.971 44.7174 211.652 44.8245C211.616 44.8366 211.58 44.8424 211.544 44.8424ZM214.807 43.9025C214.653 43.9025 214.514 43.7983 214.477 43.6427C214.433 43.4603 214.545 43.2769 214.727 43.2326C215.06 43.1522 215.395 43.0759 215.729 43.0041C215.913 42.9649 216.094 43.0815 216.133 43.2651C216.172 43.4486 216.055 43.6292 215.872 43.6685C215.543 43.7391 215.214 43.8141 214.887 43.8931C214.86 43.8996 214.833 43.9025 214.807 43.9025ZM218.139 43.2486C217.974 43.2486 217.829 43.128 217.803 42.9598C217.775 42.7744 217.903 42.6012 218.088 42.5731C218.427 42.5216 218.766 42.475 219.106 42.4326C219.292 42.4088 219.462 42.5413 219.485 42.7277C219.509 42.9138 219.376 43.0838 219.19 43.1068C218.856 43.1484 218.523 43.1945 218.19 43.2449C218.173 43.2474 218.156 43.2486 218.139 43.2486ZM221.515 42.8889C221.337 42.8889 221.188 42.7502 221.177 42.5701C221.165 42.3828 221.307 42.2216 221.495 42.2102C221.837 42.1892 222.179 42.1727 222.522 42.1609C222.709 42.1525 222.866 42.3012 222.873 42.4886C222.88 42.6761 222.733 42.8334 222.545 42.8399C222.209 42.8515 221.873 42.8677 221.537 42.8884C221.529 42.8887 221.522 42.8889 221.515 42.8889ZM225.93 42.8777C225.923 42.8777 225.916 42.8775 225.91 42.8771C225.574 42.8578 225.238 42.8434 224.901 42.8334C224.714 42.828 224.566 42.6716 224.572 42.4839C224.577 42.2964 224.734 42.1451 224.921 42.1544C225.264 42.1644 225.607 42.1791 225.949 42.1986C226.136 42.2093 226.279 42.37 226.269 42.5573C226.258 42.7381 226.108 42.8777 225.93 42.8777Z" fill="white"/>
<defs>
<linearGradient id="paint0_linear_54_1684" x1="9.68295" y1="112.404" x2="370.913" y2="112.404" gradientUnits="userSpaceOnUse">
<stop stop-color="#DAE3FE"/>
<stop offset="1" stop-color="#E9EFFD"/>
</linearGradient>
<linearGradient id="paint1_linear_54_1684" x1="182.967" y1="0.0867419" x2="177.702" y2="217.024" gradientUnits="userSpaceOnUse">
<stop stop-color="#09005D"/>
<stop offset="1" stop-color="#1A0F91"/>
</linearGradient>
<linearGradient id="paint2_linear_54_1684" x1="182.242" y1="75.8077" x2="178.029" y2="265.365" gradientUnits="userSpaceOnUse">
<stop stop-color="#4042E2"/>
<stop offset="1" stop-color="#4F52FF"/>
</linearGradient>
<linearGradient id="paint3_linear_54_1684" x1="179.751" y1="105.591" x2="182.91" y2="211.955" gradientUnits="userSpaceOnUse">
<stop stop-color="#09005D"/>
<stop offset="1" stop-color="#1A0F91"/>
</linearGradient>
<linearGradient id="paint4_linear_54_1684" x1="181.727" y1="159.82" x2="174.705" y2="265.15" gradientUnits="userSpaceOnUse">
<stop stop-color="#FE7062"/>
<stop offset="1" stop-color="#FF928E"/>
</linearGradient>
<linearGradient id="paint5_linear_54_1684" x1="184.297" y1="159.991" x2="177.275" y2="265.322" gradientUnits="userSpaceOnUse">
<stop stop-color="#FE7062"/>
<stop offset="1" stop-color="#FF928E"/>
</linearGradient>
<linearGradient id="paint6_linear_54_1684" x1="246.848" y1="159.523" x2="245.444" y2="224.828" gradientUnits="userSpaceOnUse">
<stop stop-color="#FE7062"/>
<stop offset="1" stop-color="#FF928E"/>
</linearGradient>
<linearGradient id="paint7_linear_54_1684" x1="246.18" y1="159.509" x2="244.776" y2="224.814" gradientUnits="userSpaceOnUse">
<stop stop-color="#FE7062"/>
<stop offset="1" stop-color="#FF928E"/>
</linearGradient>
<linearGradient id="paint8_linear_54_1684" x1="316.297" y1="16.8597" x2="304.516" y2="16.7478" gradientUnits="userSpaceOnUse">
<stop stop-color="#4042E2"/>
<stop offset="1" stop-color="#4F52FF"/>
</linearGradient>
<linearGradient id="paint9_linear_54_1684" x1="316.405" y1="18.9757" x2="304.506" y2="18.8627" gradientUnits="userSpaceOnUse">
<stop stop-color="#09005D"/>
<stop offset="1" stop-color="#1A0F91"/>
</linearGradient>
<linearGradient id="paint10_linear_54_1684" x1="307.603" y1="19.1358" x2="304.294" y2="40.364" gradientUnits="userSpaceOnUse">
<stop stop-color="#FF928E"/>
<stop offset="1" stop-color="#FEB3B1"/>
</linearGradient>
<linearGradient id="paint11_linear_54_1684" x1="335.484" y1="26.8639" x2="321.452" y2="26.7306" gradientUnits="userSpaceOnUse">
<stop stop-color="#09005D"/>
<stop offset="1" stop-color="#1A0F91"/>
</linearGradient>
<linearGradient id="paint12_linear_54_1684" x1="336.086" y1="26.3476" x2="322.426" y2="26.2178" gradientUnits="userSpaceOnUse">
<stop stop-color="#4042E2"/>
<stop offset="1" stop-color="#4F52FF"/>
</linearGradient>
<linearGradient id="paint13_linear_54_1684" x1="323.235" y1="21.573" x2="319.926" y2="42.8013" gradientUnits="userSpaceOnUse">
<stop stop-color="#FF928E"/>
<stop offset="1" stop-color="#FEB3B1"/>
</linearGradient>
<linearGradient id="paint14_linear_54_1684" x1="305.316" y1="41.5391" x2="312.865" y2="8.00869" gradientUnits="userSpaceOnUse">
<stop stop-color="#4042E2"/>
<stop offset="1" stop-color="#4F52FF"/>
</linearGradient>
<linearGradient id="paint15_linear_54_1684" x1="309.871" y1="22.4847" x2="291.883" y2="56.8188" gradientUnits="userSpaceOnUse">
<stop stop-color="#4042E2"/>
<stop offset="1" stop-color="#4F52FF"/>
</linearGradient>
<linearGradient id="paint16_linear_54_1684" x1="254.352" y1="13.5168" x2="282.018" y2="125.271" gradientUnits="userSpaceOnUse">
<stop stop-color="#FE7062"/>
<stop offset="1" stop-color="#FF928E"/>
</linearGradient>
<linearGradient id="paint17_linear_54_1684" x1="253.245" y1="26.4515" x2="263.427" y2="40.32" gradientUnits="userSpaceOnUse">
<stop stop-color="#FF928E"/>
<stop offset="1" stop-color="#FEB3B1"/>
</linearGradient>
<linearGradient id="paint18_linear_54_1684" x1="232.441" y1="44.4887" x2="254.404" y2="63.0959" gradientUnits="userSpaceOnUse">
<stop stop-color="#FF928E"/>
<stop offset="1" stop-color="#FEB3B1"/>
</linearGradient>
<linearGradient id="paint19_linear_54_1684" x1="242.744" y1="-19.3591" x2="246.634" y2="-0.307262" gradientUnits="userSpaceOnUse">
<stop stop-color="#FF928E"/>
<stop offset="1" stop-color="#FEB3B1"/>
</linearGradient>
<linearGradient id="paint20_linear_54_1684" x1="251.33" y1="7.84948" x2="247.628" y2="25.6449" gradientUnits="userSpaceOnUse">
<stop stop-color="#09005D"/>
<stop offset="1" stop-color="#1A0F91"/>
</linearGradient>
<linearGradient id="paint21_linear_54_1684" x1="246.331" y1="-20.0917" x2="250.222" y2="-1.03986" gradientUnits="userSpaceOnUse">
<stop stop-color="#FF928E"/>
<stop offset="1" stop-color="#FEB3B1"/>
</linearGradient>
<linearGradient id="paint22_linear_54_1684" x1="270.643" y1="20.5629" x2="262.919" y2="36.8892" gradientUnits="userSpaceOnUse">
<stop stop-color="#FE7062"/>
<stop offset="1" stop-color="#FF928E"/>
</linearGradient>
<linearGradient id="paint23_linear_54_1684" x1="497.812" y1="148.655" x2="463.378" y2="132.527" gradientUnits="userSpaceOnUse">
<stop stop-color="#E1473D"/>
<stop offset="1" stop-color="#E9605A"/>
</linearGradient>
<linearGradient id="paint24_linear_54_1684" x1="495.947" y1="152.638" x2="461.513" y2="136.51" gradientUnits="userSpaceOnUse">
<stop stop-color="#E1473D"/>
<stop offset="1" stop-color="#E9605A"/>
</linearGradient>
<linearGradient id="paint25_linear_54_1684" x1="237.233" y1="38.8334" x2="259.195" y2="57.4405" gradientUnits="userSpaceOnUse">
<stop stop-color="#FF928E"/>
<stop offset="1" stop-color="#FEB3B1"/>
</linearGradient>
<linearGradient id="paint26_linear_54_1684" x1="241.573" y1="31.5804" x2="235.955" y2="46.1511" gradientUnits="userSpaceOnUse">
<stop stop-color="#09005D"/>
<stop offset="1" stop-color="#1A0F91"/>
</linearGradient>
<linearGradient id="paint27_linear_54_1684" x1="238.802" y1="37.827" x2="234.664" y2="43.5819" gradientUnits="userSpaceOnUse">
<stop stop-color="#4042E2"/>
<stop offset="1" stop-color="#4F52FF"/>
</linearGradient>
<linearGradient id="paint28_linear_54_1684" x1="233.312" y1="42.1042" x2="229.899" y2="42.0718" gradientUnits="userSpaceOnUse">
<stop stop-color="#FF928E"/>
<stop offset="1" stop-color="#FEB3B1"/>
</linearGradient>
<linearGradient id="paint29_linear_54_1684" x1="77.9256" y1="205.419" x2="89.8631" y2="183.651" gradientUnits="userSpaceOnUse">
<stop stop-color="#FF928E"/>
<stop offset="1" stop-color="#FEB3B1"/>
</linearGradient>
<linearGradient id="paint30_linear_54_1684" x1="70.6645" y1="225.371" x2="72.8556" y2="258.967" gradientUnits="userSpaceOnUse">
<stop stop-color="#4042E2"/>
<stop offset="1" stop-color="#4F52FF"/>
</linearGradient>
<linearGradient id="paint31_linear_54_1684" x1="79.6315" y1="231.593" x2="83.4937" y2="210" gradientUnits="userSpaceOnUse">
<stop stop-color="#FF928E"/>
<stop offset="1" stop-color="#FEB3B1"/>
</linearGradient>
<linearGradient id="paint32_linear_54_1684" x1="66.9278" y1="225.845" x2="61.2805" y2="205.021" gradientUnits="userSpaceOnUse">
<stop stop-color="#FE7062"/>
<stop offset="1" stop-color="#FF928E"/>
</linearGradient>
<linearGradient id="paint33_linear_54_1684" x1="91.8079" y1="223.992" x2="93.999" y2="257.589" gradientUnits="userSpaceOnUse">
<stop stop-color="#4042E2"/>
<stop offset="1" stop-color="#4F52FF"/>
</linearGradient>
<linearGradient id="paint34_linear_54_1684" x1="62.3648" y1="171.124" x2="45.6616" y2="207.478" gradientUnits="userSpaceOnUse">
<stop stop-color="#FE7062"/>
<stop offset="1" stop-color="#FF928E"/>
</linearGradient>
<linearGradient id="paint35_linear_54_1684" x1="61.9623" y1="173.539" x2="63.5346" y2="163.45" gradientUnits="userSpaceOnUse">
<stop stop-color="#FF928E"/>
<stop offset="1" stop-color="#FEB3B1"/>
</linearGradient>
<linearGradient id="paint36_linear_54_1684" x1="284.525" y1="-86.5889" x2="274.288" y2="-74.9553" gradientUnits="userSpaceOnUse">
<stop stop-color="#FF928E"/>
<stop offset="1" stop-color="#FEB3B1"/>
</linearGradient>
<linearGradient id="paint37_linear_54_1684" x1="160.966" y1="559.338" x2="165.871" y2="580.327" gradientUnits="userSpaceOnUse">
<stop stop-color="#09005D"/>
<stop offset="1" stop-color="#1A0F91"/>
</linearGradient>
<linearGradient id="paint38_linear_54_1684" x1="281.191" y1="-89.5212" x2="270.954" y2="-77.8877" gradientUnits="userSpaceOnUse">
<stop stop-color="#FF928E"/>
<stop offset="1" stop-color="#FEB3B1"/>
</linearGradient>
<linearGradient id="paint39_linear_54_1684" x1="61.6992" y1="175.591" x2="54.8528" y2="197.184" gradientUnits="userSpaceOnUse">
<stop stop-color="#FF928E"/>
<stop offset="1" stop-color="#FEB3B1"/>
</linearGradient>
<linearGradient id="paint40_linear_54_1684" x1="207.407" y1="556.649" x2="215.175" y2="576.755" gradientUnits="userSpaceOnUse">
<stop stop-color="#09005D"/>
<stop offset="1" stop-color="#1A0F91"/>
</linearGradient>
<linearGradient id="paint41_linear_54_1684" x1="52.3749" y1="187.967" x2="70.6898" y2="193.974" gradientUnits="userSpaceOnUse">
<stop stop-color="#09005D"/>
<stop offset="1" stop-color="#1A0F91"/>
</linearGradient>
<linearGradient id="paint42_linear_54_1684" x1="77.534" y1="175.958" x2="90.7237" y2="189.899" gradientUnits="userSpaceOnUse">
<stop stop-color="#09005D"/>
<stop offset="1" stop-color="#1A0F91"/>
</linearGradient>
<linearGradient id="paint43_linear_54_1684" x1="85.5077" y1="179.429" x2="91.4923" y2="188.442" gradientUnits="userSpaceOnUse">
<stop stop-color="#4042E2"/>
<stop offset="1" stop-color="#4F52FF"/>
</linearGradient>
<linearGradient id="paint44_linear_54_1684" x1="24.0253" y1="196.063" x2="122.35" y2="196.063" gradientUnits="userSpaceOnUse">
<stop stop-color="#DAE3FE"/>
<stop offset="1" stop-color="#E9EFFD"/>
</linearGradient>
<linearGradient id="paint45_linear_54_1684" x1="309.849" y1="181.76" x2="334.565" y2="221.052" gradientUnits="userSpaceOnUse">
<stop stop-color="#09005D"/>
<stop offset="1" stop-color="#1A0F91"/>
</linearGradient>
<linearGradient id="paint46_linear_54_1684" x1="278.305" y1="210.678" x2="292.177" y2="210.678" gradientUnits="userSpaceOnUse">
<stop stop-color="#FE7062"/>
<stop offset="1" stop-color="#FF928E"/>
</linearGradient>
<linearGradient id="paint47_linear_54_1684" x1="266.27" y1="235.394" x2="278.963" y2="235.394" gradientUnits="userSpaceOnUse">
<stop stop-color="#FE7062"/>
<stop offset="1" stop-color="#FF928E"/>
</linearGradient>
<linearGradient id="paint48_linear_54_1684" x1="277.231" y1="213.254" x2="292.177" y2="213.254" gradientUnits="userSpaceOnUse">
<stop stop-color="#FF928E"/>
<stop offset="1" stop-color="#FEB3B1"/>
</linearGradient>
<linearGradient id="paint49_linear_54_1684" x1="264.364" y1="238.135" x2="275.84" y2="238.135" gradientUnits="userSpaceOnUse">
<stop stop-color="#FF928E"/>
<stop offset="1" stop-color="#FEB3B1"/>
</linearGradient>
<linearGradient id="paint50_linear_54_1684" x1="297.268" y1="187.879" x2="321.062" y2="187.879" gradientUnits="userSpaceOnUse">
<stop stop-color="#FF928E"/>
<stop offset="1" stop-color="#FEB3B1"/>
</linearGradient>
<linearGradient id="paint51_linear_54_1684" x1="328.375" y1="186.188" x2="309.59" y2="252.09" gradientUnits="userSpaceOnUse">
<stop stop-color="#FE7062"/>
<stop offset="1" stop-color="#FF928E"/>
</linearGradient>
<linearGradient id="paint52_linear_54_1684" x1="330.634" y1="173.211" x2="329.273" y2="160.968" gradientUnits="userSpaceOnUse">
<stop stop-color="#FF928E"/>
<stop offset="1" stop-color="#FEB3B1"/>
</linearGradient>
<linearGradient id="paint53_linear_54_1684" x1="327.249" y1="145.327" x2="323.386" y2="164.287" gradientUnits="userSpaceOnUse">
<stop stop-color="#E1473D"/>
<stop offset="1" stop-color="#E9605A"/>
</linearGradient>
<linearGradient id="paint54_linear_54_1684" x1="337.672" y1="147.451" x2="333.81" y2="166.41" gradientUnits="userSpaceOnUse">
<stop stop-color="#E1473D"/>
<stop offset="1" stop-color="#E9605A"/>
</linearGradient>
<linearGradient id="paint55_linear_54_1684" x1="346.724" y1="149.295" x2="342.862" y2="168.254" gradientUnits="userSpaceOnUse">
<stop stop-color="#E1473D"/>
<stop offset="1" stop-color="#E9605A"/>
</linearGradient>
<linearGradient id="paint56_linear_54_1684" x1="293.907" y1="181.67" x2="304.071" y2="181.67" gradientUnits="userSpaceOnUse">
<stop stop-color="#09005D"/>
<stop offset="1" stop-color="#1A0F91"/>
</linearGradient>
<linearGradient id="paint57_linear_54_1684" x1="317.776" y1="205.215" x2="316.285" y2="191.797" gradientUnits="userSpaceOnUse">
<stop stop-color="#FF928E"/>
<stop offset="1" stop-color="#FEB3B1"/>
</linearGradient>
<linearGradient id="paint58_linear_54_1684" x1="330.903" y1="156.241" x2="320.194" y2="163.087" gradientUnits="userSpaceOnUse">
<stop stop-color="#FF928E"/>
<stop offset="1" stop-color="#FEB3B1"/>
</linearGradient>
<linearGradient id="paint59_linear_54_1684" x1="312.448" y1="169.038" x2="335.513" y2="150.043" gradientUnits="userSpaceOnUse">
<stop stop-color="#E1473D"/>
<stop offset="1" stop-color="#E9605A"/>
</linearGradient>
<linearGradient id="paint60_linear_54_1684" x1="327.412" y1="166.305" x2="330.743" y2="156.104" gradientUnits="userSpaceOnUse">
<stop stop-color="#FF928E"/>
<stop offset="1" stop-color="#FEB3B1"/>
</linearGradient>
<linearGradient id="paint61_linear_54_1684" x1="150.1" y1="196.367" x2="157.303" y2="196.367" gradientUnits="userSpaceOnUse">
<stop stop-color="#FE7062"/>
<stop offset="1" stop-color="#FF928E"/>
</linearGradient>
<linearGradient id="paint62_linear_54_1684" x1="158.715" y1="215.954" x2="170.616" y2="215.954" gradientUnits="userSpaceOnUse">
<stop stop-color="#E1473D"/>
<stop offset="1" stop-color="#E9605A"/>
</linearGradient>
<linearGradient id="paint63_linear_54_1684" x1="166.398" y1="195.799" x2="180.88" y2="147.086" gradientUnits="userSpaceOnUse">
<stop stop-color="#E1473D"/>
<stop offset="1" stop-color="#E9605A"/>
</linearGradient>
<linearGradient id="paint64_linear_54_1684" x1="168.293" y1="196.363" x2="182.775" y2="147.649" gradientUnits="userSpaceOnUse">
<stop stop-color="#E1473D"/>
<stop offset="1" stop-color="#E9605A"/>
</linearGradient>
<linearGradient id="paint65_linear_54_1684" x1="161.775" y1="177.219" x2="122.12" y2="241.951" gradientUnits="userSpaceOnUse">
<stop stop-color="#FE7062"/>
<stop offset="1" stop-color="#FF928E"/>
</linearGradient>
<linearGradient id="paint66_linear_54_1684" x1="138.651" y1="177.454" x2="138.125" y2="189.392" gradientUnits="userSpaceOnUse">
<stop stop-color="#E1473D"/>
<stop offset="1" stop-color="#E9605A"/>
</linearGradient>
<linearGradient id="paint67_linear_54_1684" x1="138.832" y1="177.462" x2="138.305" y2="189.4" gradientUnits="userSpaceOnUse">
<stop stop-color="#E1473D"/>
<stop offset="1" stop-color="#E9605A"/>
</linearGradient>
<linearGradient id="paint68_linear_54_1684" x1="206.679" y1="74.9131" x2="217.187" y2="69.8984" gradientUnits="userSpaceOnUse">
<stop stop-color="#DAE3FE"/>
<stop offset="1" stop-color="#E9EFFD"/>
</linearGradient>
</defs>
</svg>
